AbhayaLibre-ExtraBold.ufo
<glyph name="si_NyAa.halant" format="1">
  <advance width="1151"/>
  <unicode hex="0000"/>
  <outline>
    <contour>
      <point x="989.5" y="-67" type="line"/>
      <point x="989.5" y="681" type="line"/>
      <point x="1043.5" y="639"/>
      <point x="1141" y="634"/>
      <point x="1141" y="542" type="curve" smooth="yes"/>
      <point x="1141" y="498"/>
      <point x="1106.19" y="468"/>
      <point x="1063" y="468" type="curve" smooth="yes"/>
      <point x="1048.33" y="468"/>
      <point x="1033.33" y="471.333"/>
      <point x="1018" y="478" type="curve"/>
      <point x="1018" y="-73" type="line"/>
    </contour>
    <contour>
      <point x="1018.11" y="504.273" type="line"/>
      <point x="1026.6" y="499.699"/>
      <point x="1037.38" y="497.413"/>
      <point x="1050.45" y="497.413" type="curve" smooth="yes"/>
      <point x="1082.45" y="497.413"/>
      <point x="1096" y="521.915"/>
      <point x="1096" y="545.438" type="curve" smooth="yes"/>
      <point x="1096" y="586.602"/>
      <point x="1064.17" y="606.203"/>
      <point x="1018.11" y="636.587" type="curve"/>
    </contour>
    <contour>
      <point x="861.75" y="2" type="curve"/>
      <point x="850.2" y="0.592773"/>
      <point x="833.083" y="-1"/>
      <point x="805.75" y="-1" type="curve" smooth="yes"/>
      <point x="674.75" y="-1"/>
      <point x="602.75" y="69"/>
      <point x="602.75" y="169" type="curve" smooth="yes"/>
      <point x="602.75" y="274"/>
      <point x="675.75" y="317"/>
      <point x="794.75" y="317" type="curve" smooth="yes"/>
      <point x="912" y="317" type="line"/>
      <point x="902.276" y="363.186"/>
      <point x="850.515" y="390"/>
      <point x="818" y="390" type="curve" smooth="yes"/>
      <point x="799" y="390"/>
      <point x="784.549" y="378.911"/>
      <point x="776" y="361" type="curve" smooth="yes"/>
      <point x="765.5" y="339"/>
      <point x="748.579" y="333"/>
      <point x="728.75" y="333" type="curve" smooth="yes"/>
      <point x="703.75" y="333"/>
      <point x="686" y="349.75"/>
      <point x="686" y="370.75" type="curve" smooth="yes"/>
      <point x="686" y="407.033"/>
      <point x="727" y="433"/>
      <point x="782" y="433" type="curve" smooth="yes"/>
      <point x="867.739" y="433"/>
      <point x="933.49" y="388.542"/>
      <point x="950.75" y="291" type="curve"/>
      <point x="889" y="291" type="line" smooth="yes"/>
      <point x="801" y="291"/>
      <point x="756" y="257"/>
      <point x="756" y="173" type="curve" smooth="yes"/>
      <point x="756" y="89"/>
      <point x="807.739" y="44"/>
      <point x="857.25" y="44" type="curve" smooth="yes"/>
      <point x="887.599" y="44"/>
      <point x="912.5" y="48.25"/>
      <point x="952.5" y="94.25" type="curve"/>
      <point x="984.25" y="75" type="line"/>
      <point x="964.25" y="58.333"/>
      <point x="947.867" y="41.1865"/>
      <point x="932.5" y="32.75" type="curve"/>
      <point x="935.833" y="33.417"/>
      <point x="934" y="33.5"/>
      <point x="938" y="33.5" type="curve" smooth="yes"/>
      <point x="986.271" y="33.5"/>
      <point x="1018.75" y="-17.8018"/>
      <point x="1018.75" y="-87" type="curve" smooth="yes"/>
      <point x="1018.75" y="-175"/>
      <point x="981.405" y="-212.5"/>
      <point x="913.5" y="-212.5" type="curve" smooth="yes"/>
      <point x="864.345" y="-212.5"/>
      <point x="846.75" y="-187.083"/>
      <point x="846.75" y="-166" type="curve"/>
      <point x="881.25" y="-166" type="line"/>
      <point x="881.254" y="-173.44"/>
      <point x="887.897" y="-176"/>
      <point x="895.75" y="-176" type="curve" smooth="yes"/>
      <point x="920.199" y="-176"/>
      <point x="931.75" y="-151.479"/>
      <point x="931.75" y="-90" type="curve" smooth="yes"/>
      <point x="931.75" y="-45.0967"/>
      <point x="918.408" y="-17"/>
      <point x="899.75" y="-17" type="curve" smooth="yes"/>
      <point x="882.082" y="-17"/>
      <point x="876.068" y="-29.2295"/>
      <point x="876" y="-45" type="curve"/>
      <point x="843.25" y="-45" type="line"/>
      <point x="843.297" y="-29.335"/>
      <point x="850.925" y="-8.01855"/>
    </contour>
    <contour>
      <point x="238" y="323" type="curve" smooth="yes"/>
      <point x="229.732" y="305.546"/>
      <point x="212" y="297"/>
      <point x="197" y="297" type="curve" smooth="yes"/>
      <point x="160" y="297"/>
      <point x="154" y="328"/>
      <point x="154" y="340" type="curve" smooth="yes"/>
      <point x="154" y="394.099"/>
      <point x="204.363" y="433"/>
      <point x="261" y="433" type="curve" smooth="yes"/>
      <point x="313.348" y="433"/>
      <point x="345" y="399"/>
      <point x="345" y="358" type="curve" smooth="yes"/>
      <point x="345" y="352"/>
      <point x="345" y="349"/>
      <point x="344" y="341" type="curve"/>
      <point x="380.113" y="368.975"/>
      <point x="427.488" y="396.378"/>
      <point x="492" y="417" type="curve" smooth="yes"/>
      <point x="558.129" y="438.139"/>
      <point x="632.859" y="442"/>
      <point x="676.25" y="442" type="curve" smooth="yes"/>
      <point x="761.635" y="442"/>
      <point x="805.122" y="432.737"/>
      <point x="827" y="427" type="curve"/>
      <point x="819.517" y="426.319"/>
      <point x="734.508" y="410.876"/>
      <point x="722" y="410" type="curve"/>
      <point x="706.982" y="410.563"/>
      <point x="686.476" y="412"/>
      <point x="674" y="412" type="curve" smooth="yes"/>
      <point x="615.313" y="412"/>
      <point x="564.896" y="403.343"/>
      <point x="536.5" y="397" type="curve" smooth="yes"/>
      <point x="449.891" y="377.654"/>
      <point x="387.161" y="337.115"/>
      <point x="345.25" y="306.25" type="curve"/>
      <point x="373.415" y="312.696"/>
      <point x="402.667" y="314"/>
      <point x="430" y="314" type="curve" smooth="yes"/>
      <point x="550" y="314"/>
      <point x="640" y="250"/>
      <point x="640" y="126" type="curve" smooth="yes"/>
      <point x="640" y="67.8477"/>
      <point x="607" y="-1"/>
      <point x="522" y="-1" type="curve" smooth="yes"/>
      <point x="476" y="-1"/>
      <point x="442.333" y="20.333"/>
      <point x="421" y="63" type="curve"/>
      <point x="403.667" y="21.667"/>
      <point x="371.021" y="-1"/>
      <point x="329" y="-1" type="curve" smooth="yes"/>
      <point x="242" y="-1"/>
      <point x="245" y="73"/>
      <point x="212" y="73" type="curve" smooth="yes"/>
      <point x="189.675" y="73"/>
      <point x="177" y="51"/>
      <point x="174" y="11" type="curve"/>
      <point x="146" y="22" type="line"/>
      <point x="153.696" y="91.2695"/>
      <point x="199.452" y="184.165"/>
      <point x="234" y="232" type="curve" smooth="yes"/>
      <point x="260" y="268"/>
      <point x="273" y="280"/>
      <point x="296" y="304" type="curve"/>
      <point x="305" y="314"/>
      <point x="316.25" y="331"/>
      <point x="316.25" y="352" type="curve" smooth="yes"/>
      <point x="316.25" y="371"/>
      <point x="307" y="386"/>
      <point x="283" y="386" type="curve" smooth="yes"/>
      <point x="269" y="386"/>
      <point x="253.438" y="378.533"/>
      <point x="249" y="363" type="curve" smooth="yes"/>
      <point x="243" y="342"/>
      <point x="247" y="342"/>
    </contour>
    <contour>
      <point x="305" y="268" type="curve"/>
      <point x="287.667" y="253.333"/>
      <point x="271.522" y="234.996"/>
      <point x="256" y="212" type="curve" smooth="yes"/>
      <point x="229" y="172"/>
      <point x="226" y="163"/>
      <point x="216" y="143" type="curve"/>
      <point x="228" y="153"/>
      <point x="240" y="160"/>
      <point x="254" y="160" type="curve" smooth="yes"/>
      <point x="286" y="160"/>
      <point x="297" y="140"/>
      <point x="337" y="140" type="curve" smooth="yes"/>
      <point x="383" y="140"/>
      <point x="405" y="157"/>
      <point x="405" y="214" type="curve" smooth="yes"/>
      <point x="405" y="216.209"/>
      <point x="405.041" y="214.305"/>
      <point x="405" y="216" type="curve"/>
      <point x="433" y="216" type="line"/>
      <point x="432.964" y="214.664"/>
      <point x="433" y="216.33"/>
      <point x="433" y="215" type="curve" smooth="yes"/>
      <point x="433" y="154"/>
      <point x="457" y="140"/>
      <point x="502" y="140" type="curve" smooth="yes"/>
      <point x="543" y="140"/>
      <point x="568" y="169"/>
      <point x="568" y="204" type="curve" smooth="yes"/>
      <point x="568" y="246"/>
      <point x="527" y="287"/>
      <point x="426" y="287" type="curve" smooth="yes"/>
      <point x="369.333" y="287"/>
      <point x="329.667" y="280"/>
    </contour>
    <contour>
      <point x="293" y="428.25" type="curve"/>
      <point x="272" y="417.25"/>
      <point x="195" y="404.5"/>
      <point x="178" y="398.5" type="curve"/>
      <point x="106" y="381.5"/>
      <point x="59" y="319.268"/>
      <point x="59" y="218" type="curve" smooth="yes"/>
      <point x="59" y="137.333"/>
      <point x="86" y="78"/>
      <point x="135" y="34" type="curve"/>
      <point x="135" y="0" type="line"/>
      <point x="68.5828" y="33.2086"/>
      <point x="27" y="120.07"/>
      <point x="27" y="221" type="curve" smooth="yes"/>
      <point x="27" y="352.7"/>
      <point x="99.7559" y="434.25"/>
      <point x="239" y="434.25" type="curve" smooth="yes"/>
      <point x="248" y="434.25"/>
      <point x="271" y="434.25"/>
    </contour>
  </outline>
</glyph>
<glyph name="uni0D8F" format="1">
  <advance width="820"/>
  <unicode hex="0D8F"/>
  <outline>
    <contour>
      <point x="641.24" y="53" type="curve" smooth="yes"/>
      <point x="641.24" y="39.5547"/>
      <point x="651.805" y="28.9902"/>
      <point x="665.25" y="28.9902" type="curve" smooth="yes"/>
      <point x="678.695" y="28.9902"/>
      <point x="689.26" y="39.5547"/>
      <point x="689.26" y="53" type="curve" smooth="yes"/>
      <point x="689.26" y="66.4453"/>
      <point x="678.695" y="77.0098"/>
      <point x="665.25" y="77.0098" type="curve" smooth="yes"/>
      <point x="651.805" y="77.0098"/>
      <point x="641.24" y="66.4453"/>
    </contour>
    <contour>
      <point x="582" y="445" type="curve" smooth="yes"/>
      <point x="582" y="467.209"/>
      <point x="597.873" y="481"/>
      <point x="630" y="481" type="curve" smooth="yes"/>
      <point x="716.633" y="481"/>
      <point x="773" y="378.197"/>
      <point x="773" y="240" type="curve" smooth="yes"/>
      <point x="773" y="147.28"/>
      <point x="741.789" y="1.25"/>
      <point x="665.5" y="1.25" type="curve" smooth="yes"/>
      <point x="636.334" y="1.25"/>
      <point x="613.5" y="23.415"/>
      <point x="613.5" y="53.25" type="curve" smooth="yes"/>
      <point x="613.5" y="78.5664"/>
      <point x="632.804" y="104.75"/>
      <point x="665.5" y="104.75" type="curve" smooth="yes"/>
      <point x="682.58" y="104.75"/>
      <point x="698.824" y="98.9082"/>
      <point x="708.5" y="80" type="curve"/>
      <point x="729.152" y="115.104"/>
      <point x="739.75" y="187.75"/>
      <point x="739.75" y="239.75" type="curve" smooth="yes"/>
      <point x="739.75" y="344.396"/>
      <point x="701.53" y="449.5"/>
      <point x="633.5" y="449.5" type="curve" smooth="yes"/>
      <point x="625.361" y="449.5"/>
      <point x="615" y="447.084"/>
      <point x="615" y="432" type="curve" smooth="yes"/>
      <point x="615" y="420"/>
      <point x="619.749" y="407.359"/>
      <point x="632" y="389" type="curve"/>
      <point x="619.043" y="397.964"/>
      <point x="595.71" y="421.403"/>
      <point x="588" y="424" type="curve"/>
      <point x="582.578" y="430.529"/>
      <point x="582" y="439.667"/>
    </contour>
    <contour>
      <point x="114.74" y="53" type="curve" smooth="yes"/>
      <point x="114.74" y="39.5547"/>
      <point x="125.305" y="28.9902"/>
      <point x="138.75" y="28.9902" type="curve" smooth="yes"/>
      <point x="152.195" y="28.9902"/>
      <point x="162.76" y="39.5547"/>
      <point x="162.76" y="53" type="curve" smooth="yes"/>
      <point x="162.76" y="66.4453"/>
      <point x="152.195" y="77.0098"/>
      <point x="138.75" y="77.0098" type="curve" smooth="yes"/>
      <point x="125.305" y="77.0098"/>
      <point x="114.74" y="66.4453"/>
    </contour>
    <contour>
      <point x="31" y="240" type="curve" smooth="yes"/>
      <point x="31" y="378.197"/>
      <point x="87.3675" y="481"/>
      <point x="174" y="481" type="curve" smooth="yes"/>
      <point x="206.127" y="481"/>
      <point x="222" y="467.209"/>
      <point x="222" y="445" type="curve" smooth="yes"/>
      <point x="222" y="439.667"/>
      <point x="221.422" y="432.529"/>
      <point x="216" y="426" type="curve"/>
      <point x="208.29" y="423.403"/>
      <point x="185.707" y="412.964"/>
      <point x="172.75" y="404" type="curve"/>
      <point x="181.728" y="413.703"/>
      <point x="189.25" y="424"/>
      <point x="189.25" y="436" type="curve" smooth="yes"/>
      <point x="189.25" y="445.248"/>
      <point x="178.639" y="449.5"/>
      <point x="170.5" y="449.5" type="curve" smooth="yes"/>
      <point x="102.47" y="449.5"/>
      <point x="64.25" y="344.396"/>
      <point x="64.25" y="239.75" type="curve" smooth="yes"/>
      <point x="64.25" y="187.75"/>
      <point x="74.8479" y="115.104"/>
      <point x="95.5" y="80" type="curve"/>
      <point x="105.176" y="98.9082"/>
      <point x="121.42" y="104.75"/>
      <point x="138.5" y="104.75" type="curve" smooth="yes"/>
      <point x="171.197" y="104.75"/>
      <point x="190.5" y="78.5664"/>
      <point x="190.5" y="53.25" type="curve" smooth="yes"/>
      <point x="190.5" y="23.415"/>
      <point x="167.666" y="1.25"/>
      <point x="138.5" y="1.25" type="curve" smooth="yes"/>
      <point x="62.2109" y="1.25"/>
      <point x="31" y="147.28"/>
    </contour>
    <contour>
      <point x="132.825" y="183.555" type="curve" smooth="yes"/>
      <point x="132.825" y="274.624"/>
      <point x="200.724" y="326.928"/>
      <point x="308.494" y="326.928" type="curve" smooth="yes"/>
      <point x="321.494" y="326.928"/>
      <point x="330.702" y="326.289"/>
      <point x="343.494" y="325" type="curve"/>
      <point x="343.955" y="328.824"/>
      <point x="344.176" y="332.491"/>
      <point x="344.176" y="336" type="curve" smooth="yes"/>
      <point x="344.176" y="376"/>
      <point x="318.494" y="390.274"/>
      <point x="295.494" y="390.274" type="curve" smooth="yes"/>
      <point x="267.494" y="390.274"/>
      <point x="253.281" y="376.439"/>
      <point x="247.147" y="358" type="curve" smooth="yes"/>
      <point x="240.494" y="338"/>
      <point x="223.494" y="326.073"/>
      <point x="198.494" y="326.073" type="curve" smooth="yes"/>
      <point x="177.494" y="326.073"/>
      <point x="156.819" y="337"/>
      <point x="156.819" y="367" type="curve" smooth="yes"/>
      <point x="156.819" y="408"/>
      <point x="204.494" y="433.626"/>
      <point x="259.684" y="433.626" type="curve" smooth="yes"/>
      <point x="332.042" y="433.626"/>
      <point x="376.363" y="401"/>
      <point x="376.363" y="334" type="curve" smooth="yes"/>
      <point x="376.363" y="322.637"/>
      <point x="375.126" y="309.304"/>
      <point x="372.494" y="296" type="curve"/>
      <point x="354.675" y="298.376"/>
      <point x="319.725" y="299.718"/>
      <point x="318.494" y="299.718" type="curve" smooth="yes"/>
      <point x="245.494" y="299.718"/>
      <point x="197.494" y="274"/>
      <point x="197.494" y="231" type="curve" smooth="yes"/>
      <point x="197.494" y="158"/>
      <point x="307.494" y="140"/>
      <point x="408.494" y="140" type="curve" smooth="yes"/>
      <point x="505.494" y="140"/>
      <point x="608.494" y="166"/>
      <point x="608.494" y="239" type="curve" smooth="yes"/>
      <point x="608.494" y="276"/>
      <point x="569.494" y="301.612"/>
      <point x="495.494" y="301.612" type="curve" smooth="yes"/>
      <point x="472.313" y="301.612"/>
      <point x="448.421" y="299.169"/>
      <point x="425.494" y="295" type="curve"/>
      <point x="423.566" y="305.924"/>
      <point x="422.638" y="318.267"/>
      <point x="422.638" y="328" type="curve" smooth="yes"/>
      <point x="422.638" y="397"/>
      <point x="467.451" y="433.118"/>
      <point x="540.339" y="433.118" type="curve" smooth="yes"/>
      <point x="606.494" y="433.118"/>
      <point x="642.513" y="392.966"/>
      <point x="642.513" y="354" type="curve" smooth="yes"/>
      <point x="642.513" y="334"/>
      <point x="634.042" y="316.667"/>
      <point x="615.494" y="303" type="curve"/>
      <point x="655.826" y="279.473"/>
      <point x="675.5" y="240.743"/>
      <point x="675.5" y="186.451" type="curve" smooth="yes"/>
      <point x="675.5" y="55.5615"/>
      <point x="549.139" y="0"/>
      <point x="408.494" y="0" type="curve" smooth="yes"/>
      <point x="260.084" y="0"/>
      <point x="132.825" y="45.9199"/>
    </contour>
    <contour>
      <point x="456.679" y="336" type="curve" smooth="yes"/>
      <point x="456.679" y="332.228"/>
      <point x="456.957" y="328.864"/>
      <point x="457.494" y="325" type="curve"/>
      <point x="474.449" y="327.055"/>
      <point x="488.839" y="328.098"/>
      <point x="504.494" y="328.098" type="curve" smooth="yes"/>
      <point x="537.494" y="328.098"/>
      <point x="563.954" y="323.765"/>
      <point x="588.494" y="315" type="curve"/>
      <point x="599.826" y="325.703"/>
      <point x="603.973" y="338.485"/>
      <point x="603.973" y="351" type="curve" smooth="yes"/>
      <point x="603.973" y="380"/>
      <point x="580.494" y="402.638"/>
      <point x="533.494" y="402.638" type="curve" smooth="yes"/>
      <point x="491.494" y="402.638"/>
      <point x="456.679" y="381"/>
    </contour>
  </outline>
</glyph>
<glyph name="uni0DAF" format="1">
  <advance width="456"/>
  <unicode hex="0DAF"/>
  <outline>
    <contour>
      <point x="31" y="169" type="curve" smooth="yes"/>
      <point x="31" y="274"/>
      <point x="104" y="317"/>
      <point x="223" y="317" type="curve" smooth="yes"/>
      <point x="340.25" y="317" type="line"/>
      <point x="330.526" y="363.186"/>
      <point x="300.514" y="390"/>
      <point x="268" y="390" type="curve" smooth="yes"/>
      <point x="249" y="390"/>
      <point x="234.549" y="378.911"/>
      <point x="226" y="361" type="curve" smooth="yes"/>
      <point x="215.5" y="339"/>
      <point x="198.579" y="333"/>
      <point x="178.75" y="333" type="curve" smooth="yes"/>
      <point x="153.75" y="333"/>
      <point x="136" y="349.75"/>
      <point x="136" y="370.75" type="curve" smooth="yes"/>
      <point x="136" y="407.033"/>
      <point x="177" y="433"/>
      <point x="232" y="433" type="curve" smooth="yes"/>
      <point x="317.739" y="433"/>
      <point x="361.74" y="388.542"/>
      <point x="379" y="291" type="curve"/>
      <point x="317.25" y="291" type="line" smooth="yes"/>
      <point x="229.25" y="291"/>
      <point x="184.25" y="257"/>
      <point x="184.25" y="173" type="curve" smooth="yes"/>
      <point x="184.25" y="89"/>
      <point x="235.989" y="44"/>
      <point x="285.5" y="44" type="curve" smooth="yes"/>
      <point x="315.849" y="44"/>
      <point x="340.75" y="48.25"/>
      <point x="380.75" y="94.25" type="curve"/>
      <point x="407" y="75" type="line"/>
      <point x="376.46" y="39.3701"/>
      <point x="335" y="-16"/>
      <point x="335" y="-92" type="curve" smooth="yes"/>
      <point x="335" y="-133.842"/>
      <point x="347.445" y="-185.983"/>
      <point x="409" y="-205.75" type="curve"/>
      <point x="409" y="-238" type="line"/>
      <point x="388.735" y="-242.805"/>
      <point x="366.185" y="-246"/>
      <point x="349" y="-246" type="curve" smooth="yes"/>
      <point x="268.534" y="-246"/>
      <point x="234.75" y="-193.269"/>
      <point x="234.75" y="-136.25" type="curve" smooth="yes"/>
      <point x="234.75" y="-78.9846"/>
      <point x="267.211" y="-39.8845"/>
      <point x="315" y="8.5" type="curve"/>
      <point x="289.784" y="1.80626"/>
      <point x="261.333" y="-1"/>
      <point x="234" y="-1" type="curve" smooth="yes"/>
      <point x="103" y="-1"/>
      <point x="31" y="69"/>
    </contour>
  </outline>
</glyph>
<glyph name="uni0DCF" format="1">
  <advance width="312"/>
  <unicode hex="0DCF"/>
  <outline>
    <contour>
      <point x="22" y="110.1" type="curve" smooth="yes"/>
      <point x="22" y="117.507"/>
      <point x="22.333" y="124.914"/>
      <point x="23" y="132.32" type="curve"/>
      <point x="50.75" y="132.32" type="line"/>
      <point x="50.083" y="127.606"/>
      <point x="49.75" y="122.557"/>
      <point x="49.75" y="117.17" type="curve" smooth="yes"/>
      <point x="49.75" y="70.4502"/>
      <point x="73.4863" y="66"/>
      <point x="85" y="66" type="curve" smooth="yes"/>
      <point x="107.645" y="66"/>
      <point x="132" y="90.54"/>
      <point x="132" y="201" type="curve" smooth="yes"/>
      <point x="132" y="311.46"/>
      <point x="107.036" y="338"/>
      <point x="85" y="338" type="curve" smooth="yes"/>
      <point x="74.7803" y="338"/>
      <point x="49.75" y="331.394"/>
      <point x="49.75" y="284.83" type="curve" smooth="yes"/>
      <point x="49.75" y="279.443"/>
      <point x="50.083" y="274.394"/>
      <point x="50.75" y="269.68" type="curve"/>
      <point x="23" y="269.68" type="line"/>
      <point x="22.333" y="277.086"/>
      <point x="22" y="284.494"/>
      <point x="22" y="291.9" type="curve" smooth="yes"/>
      <point x="22" y="360.729"/>
      <point x="74" y="403"/>
      <point x="133" y="403" type="curve" smooth="yes"/>
      <point x="224" y="403"/>
      <point x="270" y="329.27"/>
      <point x="270" y="201" type="curve" smooth="yes"/>
      <point x="270" y="72.7305"/>
      <point x="224" y="-1"/>
      <point x="133" y="-1" type="curve" smooth="yes"/>
      <point x="65.5879" y="-1"/>
      <point x="22" y="41.2715"/>
    </contour>
  </outline>
</glyph>
<glyph name="uni0DD0" format="1">
  <advance width="334"/>
  <unicode hex="0DD0"/>
  <outline>
    <contour>
      <point x="3" y="311.25" type="line"/>
      <point x="3" y="339" type="line"/>
      <point x="249" y="339" type="line"/>
      <point x="248.333" y="337"/>
      <point x="247.083" y="329.167"/>
      <point x="245.75" y="320.5" type="curve"/>
      <point x="192.971" y="238.489"/>
      <point x="178" y="169"/>
      <point x="178" y="90" type="curve" smooth="yes"/>
      <point x="178" y="26.4375"/>
      <point x="201.362" y="-48.9266"/>
      <point x="258.428" y="-76" type="curve" smooth="yes"/>
      <point x="271.22" y="-82.0688"/>
      <point x="285.705" y="-85.711"/>
      <point x="302" y="-86.25" type="curve"/>
      <point x="306" y="-106" type="line"/>
      <point x="278.667" y="-136.667"/>
      <point x="238.75" y="-147"/>
      <point x="197.75" y="-147" type="curve" smooth="yes"/>
      <point x="112.75" y="-147"/>
      <point x="50" y="-83.2432"/>
      <point x="50" y="18.25" type="curve" smooth="yes"/>
      <point x="50" y="154.791"/>
      <point x="148.532" y="247.412"/>
      <point x="208.25" y="311.25" type="curve"/>
    </contour>
  </outline>
</glyph>
<glyph name="NameMe.541" format="1">
  <advance width="609"/>
  <outline>
    <contour>
      <point x="417.75" y="-67" type="line"/>
      <point x="446.25" y="-73" type="line"/>
      <point x="446.25" y="478" type="line"/>
      <point x="461.583" y="471.333"/>
      <point x="476.583" y="468"/>
      <point x="491.25" y="468" type="curve" smooth="yes"/>
      <point x="534.441" y="468"/>
      <point x="569.25" y="498"/>
      <point x="569.25" y="542" type="curve" smooth="yes"/>
      <point x="569.25" y="634"/>
      <point x="471.75" y="639"/>
      <point x="417.75" y="681" type="curve"/>
    </contour>
    <contour>
      <point x="446.355" y="504.273" type="curve"/>
      <point x="446.355" y="636.587" type="line"/>
      <point x="492.42" y="606.203"/>
      <point x="524.25" y="586.602"/>
      <point x="524.25" y="545.438" type="curve" smooth="yes"/>
      <point x="524.25" y="521.915"/>
      <point x="510.704" y="497.413"/>
      <point x="478.698" y="497.413" type="curve" smooth="yes"/>
      <point x="465.632" y="497.413"/>
      <point x="454.85" y="499.699"/>
    </contour>
    <contour>
      <point x="290" y="2" type="curve"/>
      <point x="279.175" y="-8.01894"/>
      <point x="271.547" y="-29.335"/>
      <point x="271.5" y="-45" type="curve"/>
      <point x="304.25" y="-45" type="line"/>
      <point x="304.318" y="-29.2295"/>
      <point x="310.332" y="-17"/>
      <point x="328" y="-17" type="curve" smooth="yes"/>
      <point x="346.658" y="-17"/>
      <point x="360" y="-45.0967"/>
      <point x="360" y="-90" type="curve" smooth="yes"/>
      <point x="360" y="-151.479"/>
      <point x="348.449" y="-176"/>
      <point x="324" y="-176" type="curve" smooth="yes"/>
      <point x="316.147" y="-176"/>
      <point x="309.504" y="-173.44"/>
      <point x="309.5" y="-166" type="curve"/>
      <point x="275" y="-166" type="line"/>
      <point x="275" y="-187.083"/>
      <point x="292.595" y="-212.5"/>
      <point x="341.75" y="-212.5" type="curve" smooth="yes"/>
      <point x="409.655" y="-212.5"/>
      <point x="447" y="-175"/>
      <point x="447" y="-87" type="curve" smooth="yes"/>
      <point x="447" y="-17.8019"/>
      <point x="414.521" y="33.5"/>
      <point x="366.25" y="33.5" type="curve" smooth="yes"/>
      <point x="362.25" y="33.5"/>
      <point x="364.083" y="33.417"/>
      <point x="360.75" y="32.75" type="curve"/>
      <point x="376.117" y="41.1863"/>
      <point x="392.5" y="58.333"/>
      <point x="412.5" y="75" type="curve"/>
      <point x="380.75" y="94.25" type="line"/>
      <point x="340.75" y="48.25"/>
      <point x="315.849" y="44"/>
      <point x="285.5" y="44" type="curve" smooth="yes"/>
      <point x="235.989" y="44"/>
      <point x="184.25" y="89"/>
      <point x="184.25" y="173" type="curve" smooth="yes"/>
      <point x="184.25" y="257"/>
      <point x="229.25" y="291"/>
      <point x="317.25" y="291" type="curve" smooth="yes"/>
      <point x="379" y="291" type="line"/>
      <point x="361.74" y="388.542"/>
      <point x="317.739" y="433"/>
      <point x="232" y="433" type="curve" smooth="yes"/>
      <point x="177" y="433"/>
      <point x="136" y="407.033"/>
      <point x="136" y="370.75" type="curve" smooth="yes"/>
      <point x="136" y="349.75"/>
      <point x="153.75" y="333"/>
      <point x="178.75" y="333" type="curve" smooth="yes"/>
      <point x="198.579" y="333"/>
      <point x="215.5" y="339"/>
      <point x="226" y="361" type="curve" smooth="yes"/>
      <point x="234.549" y="378.911"/>
      <point x="249" y="390"/>
      <point x="268" y="390" type="curve" smooth="yes"/>
      <point x="300.514" y="390"/>
      <point x="330.526" y="363.186"/>
      <point x="340.25" y="317" type="curve"/>
      <point x="223" y="317" type="line" smooth="yes"/>
      <point x="104" y="317"/>
      <point x="31" y="274"/>
      <point x="31" y="169" type="curve" smooth="yes"/>
      <point x="31" y="69"/>
      <point x="103" y="-1"/>
      <point x="234" y="-1" type="curve" smooth="yes"/>
      <point x="261.333" y="-1"/>
      <point x="278.45" y="0.592773"/>
    </contour>
  </outline>
</glyph>
<glyph name="NameMe.547" format="1">
  <advance width="540"/>
  <outline>
    <contour>
      <point x="409.75" y="4" type="curve"/>
      <point x="392.69" y="-10.3359"/>
      <point x="360.75" y="-54.2383"/>
      <point x="360.75" y="-108" type="curve" smooth="yes"/>
      <point x="360.75" y="-157.651"/>
      <point x="380.454" y="-193.58"/>
      <point x="398.75" y="-201" type="curve"/>
      <point x="398.75" y="-228.25" type="line"/>
      <point x="394.958" y="-229.427"/>
      <point x="384.635" y="-230.25"/>
      <point x="379.75" y="-230.25" type="curve" smooth="yes"/>
      <point x="317.523" y="-230.25"/>
      <point x="269.75" y="-197.724"/>
      <point x="269.75" y="-132" type="curve" smooth="yes"/>
      <point x="269.75" y="-78.6523"/>
      <point x="308.708" y="-41.1084"/>
      <point x="355.75" y="1" type="curve"/>
      <point x="347.821" y="-0.615234"/>
      <point x="345.083" y="-1"/>
      <point x="317.75" y="-1" type="curve" smooth="yes"/>
      <point x="186.75" y="-1"/>
      <point x="114.75" y="69"/>
      <point x="114.75" y="169" type="curve" smooth="yes"/>
      <point x="114.75" y="274"/>
      <point x="187.75" y="317"/>
      <point x="306.75" y="317" type="curve" smooth="yes"/>
      <point x="424" y="317" type="line"/>
      <point x="414.276" y="363.186"/>
      <point x="384.265" y="390"/>
      <point x="351.75" y="390" type="curve" smooth="yes"/>
      <point x="332.75" y="390"/>
      <point x="318.299" y="378.911"/>
      <point x="309.75" y="361" type="curve" smooth="yes"/>
      <point x="299.25" y="339"/>
      <point x="282.329" y="333"/>
      <point x="262.5" y="333" type="curve" smooth="yes"/>
      <point x="237.5" y="333"/>
      <point x="219.75" y="349.75"/>
      <point x="219.75" y="370.75" type="curve" smooth="yes"/>
      <point x="219.75" y="407.033"/>
      <point x="260.75" y="433"/>
      <point x="315.75" y="433" type="curve" smooth="yes"/>
      <point x="401.489" y="433"/>
      <point x="445.49" y="388.542"/>
      <point x="462.75" y="291" type="curve"/>
      <point x="401" y="291" type="line" smooth="yes"/>
      <point x="313" y="291"/>
      <point x="268" y="257"/>
      <point x="268" y="173" type="curve" smooth="yes"/>
      <point x="268" y="89"/>
      <point x="319.739" y="44"/>
      <point x="369.25" y="44" type="curve" smooth="yes"/>
      <point x="399.599" y="44"/>
      <point x="424.5" y="48.25"/>
      <point x="464.5" y="94.25" type="curve"/>
      <point x="490.75" y="75" type="line"/>
      <point x="490.48" y="67.5654"/>
      <point x="440.75" y="30.75"/>
      <point x="440.75" y="30.75" type="curve"/>
      <point x="509.75" y="30.75" type="line"/>
      <point x="509.75" y="4.75" type="line"/>
      <point x="447.5" y="-36" type="line"/>
      <point x="507.75" y="-36" type="line"/>
      <point x="507.75" y="-61.75" type="line"/>
      <point x="495.354" y="-74.9141"/>
      <point x="477.25" y="-92.0703"/>
      <point x="477.25" y="-136" type="curve" smooth="yes"/>
      <point x="477.25" y="-176.404"/>
      <point x="498.982" y="-200"/>
      <point x="515.75" y="-200" type="curve"/>
      <point x="515.75" y="-228.5" type="line"/>
      <point x="513.078" y="-229.383"/>
      <point x="508.697" y="-229.75"/>
      <point x="504.75" y="-229.75" type="curve" smooth="yes"/>
      <point x="448.401" y="-229.75"/>
      <point x="392.75" y="-189.072"/>
      <point x="392.75" y="-144" type="curve" smooth="yes"/>
      <point x="392.75" y="-104.948"/>
      <point x="420.844" y="-75.0098"/>
      <point x="451.75" y="-61.25" type="curve"/>
      <point x="451.493" y="-61.5586"/>
      <point x="395.75" y="-61.75"/>
      <point x="395.75" y="-61.75" type="curve"/>
      <point x="395.75" y="-40" type="line"/>
      <point x="419.191" y="-25.7754"/>
      <point x="441.179" y="-9.8457"/>
      <point x="465.25" y="3.75" type="curve"/>
      <point x="463.147" y="3.75"/>
      <point x="409.75" y="4"/>
    </contour>
    <contour>
      <point x="354" y="429.5" type="curve"/>
      <point x="333" y="418.5"/>
      <point x="265.037" y="411.052"/>
      <point x="256" y="405.75" type="curve"/>
      <point x="177.193" y="405.75"/>
      <point x="59" y="370.057"/>
      <point x="59" y="218" type="curve" smooth="yes"/>
      <point x="59" y="137.333"/>
      <point x="86" y="78"/>
      <point x="135" y="34" type="curve"/>
      <point x="135" y="0" type="line"/>
      <point x="68.5828" y="33.2086"/>
      <point x="27" y="120.07"/>
      <point x="27" y="221" type="curve" smooth="yes"/>
      <point x="27" y="337.213"/>
      <point x="97.5107" y="436.25"/>
      <point x="265.5" y="436.25" type="curve" smooth="yes"/>
      <point x="291.563" y="436.25"/>
      <point x="320.717" y="435.999"/>
    </contour>
  </outline>
</glyph>
<glyph name="NameMe.571" format="1">
  <advance width="681"/>
  <outline>
    <contour>
      <point x="517" y="29" type="line"/>
      <point x="517" y="681" type="line"/>
      <point x="571" y="639"/>
      <point x="668.5" y="634"/>
      <point x="668.5" y="542" type="curve" smooth="yes"/>
      <point x="668.5" y="498"/>
      <point x="633.691" y="468"/>
      <point x="590.5" y="468" type="curve" smooth="yes"/>
      <point x="575.833" y="468"/>
      <point x="560.833" y="471.333"/>
      <point x="545.5" y="478" type="curve"/>
      <point x="545.5" y="23" type="line"/>
    </contour>
    <contour>
      <point x="545.605" y="504.273" type="line"/>
      <point x="554.1" y="499.699"/>
      <point x="564.882" y="497.413"/>
      <point x="577.948" y="497.413" type="curve" smooth="yes"/>
      <point x="609.954" y="497.413"/>
      <point x="623.5" y="521.915"/>
      <point x="623.5" y="545.438" type="curve" smooth="yes"/>
      <point x="623.5" y="586.602"/>
      <point x="591.67" y="606.203"/>
      <point x="545.605" y="636.587" type="curve"/>
    </contour>
    <contour>
      <point x="340" y="46" type="line"/>
      <point x="348.723" y="48.0625"/>
      <point x="353.999" y="50"/>
      <point x="364" y="50" type="curve" smooth="yes"/>
      <point x="389.143" y="50"/>
      <point x="424.15" y="10.6006"/>
      <point x="424.15" y="-41.5996" type="curve" smooth="yes"/>
      <point x="424.15" y="-77"/>
      <point x="417.496" y="-93.6992"/>
      <point x="412.5" y="-106" type="curve"/>
      <point x="432.562" y="-113.706"/>
      <point x="447.003" y="-116"/>
      <point x="469" y="-116" type="curve" smooth="yes"/>
      <point x="506.359" y="-116"/>
      <point x="521" y="-95.6582"/>
      <point x="521" y="-80" type="curve" smooth="yes"/>
      <point x="521" y="-52.0613"/>
      <point x="496.482" y="-47.5674"/>
      <point x="478" y="-44" type="curve" smooth="yes"/>
      <point x="464.782" y="-41.4482"/>
      <point x="440.5" y="-28.5635"/>
      <point x="440.5" y="-1" type="curve" smooth="yes"/>
      <point x="440.5" y="38.1152"/>
      <point x="471.656" y="53.7998"/>
      <point x="508.15" y="53.7998" type="curve" smooth="yes"/>
      <point x="543.55" y="53.7998"/>
      <point x="571.15" y="34.6006"/>
      <point x="571.15" y="-0.799805" type="curve" smooth="yes"/>
      <point x="571.15" y="-4.7998"/>
      <point x="570.75" y="-8.7998"/>
      <point x="569.95" y="-12.7998" type="curve"/>
      <point x="540.6" y="-12.7998" type="line"/>
      <point x="541.399" y="-9.2002"/>
      <point x="541.8" y="-5.59961"/>
      <point x="541.8" y="-2" type="curve" smooth="yes"/>
      <point x="541.8" y="11.8711"/>
      <point x="533.8" y="27.25"/>
      <point x="508" y="27.25" type="curve" smooth="yes"/>
      <point x="493.28" y="27.25"/>
      <point x="469.75" y="22.9329"/>
      <point x="469.75" y="0.5" type="curve" smooth="yes"/>
      <point x="469.75" y="-18.71"/>
      <point x="484.6" y="-22"/>
      <point x="508" y="-22" type="curve" smooth="yes"/>
      <point x="543.401" y="-22"/>
      <point x="592.75" y="-45.915"/>
      <point x="592.75" y="-107" type="curve" smooth="yes"/>
      <point x="592.75" y="-165.8"/>
      <point x="539.95" y="-205.399"/>
      <point x="487.75" y="-205.399" type="curve" smooth="yes"/>
      <point x="441.178" y="-205.399"/>
      <point x="411.55" y="-192.8"/>
      <point x="382.75" y="-155.6" type="curve"/>
      <point x="364.142" y="-176.636"/>
      <point x="337.708" y="-196.467"/>
      <point x="311.95" y="-204.8" type="curve"/>
      <point x="294.5" y="-179.75" type="line"/>
      <point x="343.836" y="-162.454"/>
      <point x="393.75" y="-117.436"/>
      <point x="393.75" y="-44" type="curve" smooth="yes"/>
      <point x="393.75" y="-9.6582"/>
      <point x="371.248" y="25.5"/>
      <point x="350" y="25.5" type="curve" smooth="yes"/>
      <point x="340.8" y="25.5"/>
      <point x="334.679" y="23.9941"/>
      <point x="328" y="23.25" type="curve"/>
    </contour>
    <contour>
      <point x="234" y="-1" type="curve" smooth="yes"/>
      <point x="103" y="-1"/>
      <point x="31" y="69"/>
      <point x="31" y="169" type="curve" smooth="yes"/>
      <point x="31" y="274"/>
      <point x="104" y="317"/>
      <point x="223" y="317" type="curve" smooth="yes"/>
      <point x="340.25" y="317" type="line"/>
      <point x="330.526" y="363.186"/>
      <point x="300.514" y="390"/>
      <point x="268" y="390" type="curve" smooth="yes"/>
      <point x="249" y="390"/>
      <point x="234.549" y="378.911"/>
      <point x="226" y="361" type="curve" smooth="yes"/>
      <point x="215.5" y="339"/>
      <point x="198.579" y="333"/>
      <point x="178.75" y="333" type="curve" smooth="yes"/>
      <point x="153.75" y="333"/>
      <point x="136" y="349.75"/>
      <point x="136" y="370.75" type="curve" smooth="yes"/>
      <point x="136" y="407.033"/>
      <point x="177" y="433"/>
      <point x="232" y="433" type="curve" smooth="yes"/>
      <point x="317.739" y="433"/>
      <point x="361.74" y="388.542"/>
      <point x="379" y="291" type="curve"/>
      <point x="317.25" y="291" type="line" smooth="yes"/>
      <point x="229.25" y="291"/>
      <point x="184.25" y="257"/>
      <point x="184.25" y="173" type="curve" smooth="yes"/>
      <point x="184.25" y="89"/>
      <point x="235.989" y="44"/>
      <point x="285.5" y="44" type="curve" smooth="yes"/>
      <point x="315.849" y="44"/>
      <point x="340.75" y="48.25"/>
      <point x="380.75" y="94.25" type="curve"/>
      <point x="412.5" y="75" type="line"/>
      <point x="365.043" y="28.5498"/>
      <point x="325.778" y="-1"/>
    </contour>
  </outline>
</glyph>
<glyph name="si_BU" format="1">
  <advance width="619"/>
  <outline>
    <contour>
      <point x="49.25" y="-142.5" type="curve" smooth="yes"/>
      <point x="49.25" y="-90.4912"/>
      <point x="95.543" y="-50.5"/>
      <point x="150.75" y="-50.5" type="curve" smooth="yes"/>
      <point x="192.656" y="-50.5"/>
      <point x="230" y="-74.1416"/>
      <point x="244.75" y="-110" type="curve"/>
      <point x="212" y="-121.5" type="line"/>
      <point x="205.176" y="-104.358"/>
      <point x="183.75" y="-81.75"/>
      <point x="150.75" y="-81.75" type="curve" smooth="yes"/>
      <point x="114.046" y="-81.75"/>
      <point x="84.75" y="-109.716"/>
      <point x="84.75" y="-142.5" type="curve" smooth="yes"/>
      <point x="84.75" y="-171.663"/>
      <point x="106.498" y="-192.5"/>
      <point x="176.25" y="-192.5" type="curve" smooth="yes"/>
      <point x="530.5" y="-192.5" type="line"/>
      <point x="530.5" y="128" type="line"/>
      <point x="565.75" y="219" type="line"/>
      <point x="565.75" y="-235" type="line"/>
      <point x="154.75" y="-235" type="line" smooth="yes"/>
      <point x="75.207" y="-235"/>
      <point x="49.25" y="-186.092"/>
    </contour>
    <component base="uni0DB6"/>
  </outline>
</glyph>
<glyph name="si_BUu" format="1">
  <advance width="619"/>
  <outline>
    <contour>
      <point x="49.25" y="-138" type="curve" smooth="yes"/>
      <point x="49.25" y="-80"/>
      <point x="98.25" y="-40"/>
      <point x="151.25" y="-40" type="curve" smooth="yes"/>
      <point x="193.25" y="-40"/>
      <point x="225.583" y="-55"/>
      <point x="248.25" y="-91" type="curve"/>
      <point x="215.25" y="-102" type="line"/>
      <point x="203.934" y="-84.6992"/>
      <point x="185.25" y="-70"/>
      <point x="156.25" y="-70" type="curve" smooth="yes"/>
      <point x="117.25" y="-70"/>
      <point x="92.25" y="-95.0762"/>
      <point x="92.25" y="-120" type="curve" smooth="yes"/>
      <point x="92.25" y="-151.995"/>
      <point x="121.065" y="-167"/>
      <point x="155.25" y="-167" type="curve" smooth="yes"/>
      <point x="231.465" y="-167"/>
      <point x="298.577" y="-114.5"/>
      <point x="406.25" y="-114.5" type="curve" smooth="yes"/>
      <point x="457.332" y="-114.5"/>
      <point x="503.25" y="-133.75"/>
      <point x="530.25" y="-165.75" type="curve"/>
      <point x="530.25" y="152" type="line"/>
      <point x="565.25" y="212" type="line"/>
      <point x="565.25" y="-231" type="line"/>
      <point x="539.75" y="-231" type="line"/>
      <point x="524.75" y="-195"/>
      <point x="479.199" y="-146.25"/>
      <point x="416.25" y="-146.25" type="curve" smooth="yes"/>
      <point x="325.25" y="-146.25"/>
      <point x="258.25" y="-237"/>
      <point x="160.25" y="-237" type="curve" smooth="yes"/>
      <point x="105.25" y="-237"/>
      <point x="49.25" y="-206"/>
    </contour>
    <component base="uni0DB6"/>
  </outline>
</glyph>
<glyph name="si_CUu" format="1">
  <advance width="597"/>
  <outline>
    <contour>
      <point x="70.5" y="-138" type="curve" smooth="yes"/>
      <point x="70.5" y="-80"/>
      <point x="119.5" y="-40"/>
      <point x="172.5" y="-40" type="curve" smooth="yes"/>
      <point x="214.5" y="-40"/>
      <point x="246.833" y="-55"/>
      <point x="269.5" y="-91" type="curve"/>
      <point x="236.5" y="-102" type="line"/>
      <point x="225.184" y="-84.6992"/>
      <point x="206.5" y="-70"/>
      <point x="177.5" y="-70" type="curve" smooth="yes"/>
      <point x="138.5" y="-70"/>
      <point x="113.5" y="-95.0762"/>
      <point x="113.5" y="-120" type="curve" smooth="yes"/>
      <point x="113.5" y="-151.995"/>
      <point x="142.315" y="-167"/>
      <point x="176.5" y="-167" type="curve" smooth="yes"/>
      <point x="252.715" y="-167"/>
      <point x="319.143" y="-114.5"/>
      <point x="413.25" y="-114.5" type="curve" smooth="yes"/>
      <point x="464.332" y="-114.5"/>
      <point x="504" y="-133.75"/>
      <point x="531" y="-165.75" type="curve"/>
      <point x="531" y="152" type="line"/>
      <point x="566" y="212" type="line"/>
      <point x="566" y="-231" type="line"/>
      <point x="540.5" y="-231" type="line"/>
      <point x="525.5" y="-195"/>
      <point x="486.199" y="-146.25"/>
      <point x="423.25" y="-146.25" type="curve" smooth="yes"/>
      <point x="337.235" y="-146.25"/>
      <point x="279.5" y="-237"/>
      <point x="181.5" y="-237" type="curve" smooth="yes"/>
      <point x="126.5" y="-237"/>
      <point x="70.5" y="-206"/>
    </contour>
    <component base="uni0DA0"/>
  </outline>
</glyph>
<glyph name="si_ChI" format="1">
  <advance width="598"/>
  <outline>
    <contour>
      <point x="233" y="489.5" type="curve" smooth="yes"/>
      <point x="233" y="576.568"/>
      <point x="303.321" y="657"/>
      <point x="382" y="657" type="curve" smooth="yes"/>
      <point x="428.882" y="657"/>
      <point x="460.703" y="626.416"/>
      <point x="460.705" y="583" type="curve" smooth="yes"/>
      <point x="460.705" y="579.106"/>
      <point x="460.496" y="576.102"/>
      <point x="460" y="572" type="curve"/>
      <point x="459.982" y="571.995"/>
      <point x="430" y="544.016"/>
      <point x="430" y="544" type="curve"/>
      <point x="432.45" y="549.302"/>
      <point x="435.181" y="564.622"/>
      <point x="435.181" y="575.5" type="curve" smooth="yes"/>
      <point x="435.181" y="599.068"/>
      <point x="423.688" y="609"/>
      <point x="406" y="609" type="curve" smooth="yes"/>
      <point x="348.62" y="609"/>
      <point x="295" y="546.291"/>
      <point x="295" y="482" type="curve" smooth="yes"/>
      <point x="295" y="450.191"/>
      <point x="309.158" y="430.75"/>
      <point x="340" y="430.75" type="curve" smooth="yes"/>
      <point x="349.467" y="430.75"/>
      <point x="357.154" y="431.185"/>
      <point x="374" y="436" type="curve"/>
      <point x="373.999" y="435.978"/>
      <point x="370.001" y="425.001"/>
      <point x="370" y="425" type="curve"/>
      <point x="357.178" y="416.842"/>
      <point x="329.23" y="407.635"/>
      <point x="327" y="407" type="curve"/>
      <point x="325.947" y="406.999"/>
      <point x="324.051" y="406.952"/>
      <point x="323" y="406.952" type="curve" smooth="yes"/>
      <point x="260.125" y="406.952"/>
      <point x="233" y="439.49"/>
    </contour>
    <component base="uni0DA1"/>
  </outline>
</glyph>
<glyph name="si_DAa" format="1">
  <advance width="456"/>
  <outline>
    <contour>
      <point x="272" y="1" type="curve"/>
      <point x="224.958" y="-41.1085"/>
      <point x="186" y="-78.6526"/>
      <point x="186" y="-132" type="curve" smooth="yes"/>
      <point x="186" y="-197.723"/>
      <point x="233.773" y="-230.25"/>
      <point x="296" y="-230.25" type="curve" smooth="yes"/>
      <point x="300.885" y="-230.25"/>
      <point x="311.208" y="-229.427"/>
      <point x="315" y="-228.25" type="curve"/>
      <point x="315" y="-201" type="line"/>
      <point x="288.825" y="-194.085"/>
      <point x="277" y="-157.651"/>
      <point x="277" y="-108" type="curve" smooth="yes"/>
      <point x="277" y="-54.2386"/>
      <point x="315.873" y="4.47461"/>
      <point x="344" y="21" type="curve"/>
      <point x="328.786" y="-10.3386"/>
      <point x="308.5" y="-50.1621"/>
      <point x="308.5" y="-105" type="curve" smooth="yes"/>
      <point x="308.5" y="-178.438"/>
      <point x="364.651" y="-229.75"/>
      <point x="421" y="-229.75" type="curve" smooth="yes"/>
      <point x="424.947" y="-229.75"/>
      <point x="429.328" y="-229.383"/>
      <point x="432" y="-228.5" type="curve"/>
      <point x="432" y="-199.25" type="line"/>
      <point x="408.945" y="-199.25"/>
      <point x="385" y="-127.798"/>
      <point x="385" y="-60" type="curve" smooth="yes"/>
      <point x="385" y="5.1582"/>
      <point x="391.727" y="47.7496"/>
      <point x="407" y="75" type="curve"/>
      <point x="380.75" y="94.25" type="line"/>
      <point x="340.75" y="48.25"/>
      <point x="315.849" y="44"/>
      <point x="285.5" y="44" type="curve" smooth="yes"/>
      <point x="235.989" y="44"/>
      <point x="184.25" y="89"/>
      <point x="184.25" y="173" type="curve" smooth="yes"/>
      <point x="184.25" y="257"/>
      <point x="229.25" y="291"/>
      <point x="317.25" y="291" type="curve" smooth="yes"/>
      <point x="379" y="291" type="line"/>
      <point x="361.74" y="388.542"/>
      <point x="317.739" y="433"/>
      <point x="232" y="433" type="curve" smooth="yes"/>
      <point x="177" y="433"/>
      <point x="136" y="407.033"/>
      <point x="136" y="370.75" type="curve" smooth="yes"/>
      <point x="136" y="349.75"/>
      <point x="153.75" y="333"/>
      <point x="178.75" y="333" type="curve" smooth="yes"/>
      <point x="198.579" y="333"/>
      <point x="215.5" y="339"/>
      <point x="226" y="361" type="curve" smooth="yes"/>
      <point x="234.549" y="378.911"/>
      <point x="249" y="390"/>
      <point x="268" y="390" type="curve" smooth="yes"/>
      <point x="300.514" y="390"/>
      <point x="330.526" y="363.186"/>
      <point x="340.25" y="317" type="curve"/>
      <point x="223" y="317" type="line" smooth="yes"/>
      <point x="104" y="317"/>
      <point x="31" y="274"/>
      <point x="31" y="169" type="curve" smooth="yes"/>
      <point x="31" y="69"/>
      <point x="103" y="-1"/>
      <point x="234" y="-1" type="curve" smooth="yes"/>
      <point x="261.333" y="-1"/>
      <point x="264.071" y="-0.615063"/>
    </contour>
  </outline>
</glyph>
<glyph name="si_DAae" format="1">
  <advance width="461"/>
  <outline>
    <contour>
      <point x="31" y="169" type="curve" smooth="yes"/>
      <point x="31" y="274"/>
      <point x="104" y="317"/>
      <point x="223" y="317" type="curve" smooth="yes"/>
      <point x="340.25" y="317" type="line"/>
      <point x="330.526" y="363.186"/>
      <point x="300.514" y="390"/>
      <point x="268" y="390" type="curve" smooth="yes"/>
      <point x="249" y="390"/>
      <point x="234.549" y="378.911"/>
      <point x="226" y="361" type="curve" smooth="yes"/>
      <point x="215.5" y="339"/>
      <point x="198.579" y="333"/>
      <point x="178.75" y="333" type="curve" smooth="yes"/>
      <point x="153.75" y="333"/>
      <point x="136" y="349.75"/>
      <point x="136" y="370.75" type="curve" smooth="yes"/>
      <point x="136" y="407.033"/>
      <point x="177" y="433"/>
      <point x="232" y="433" type="curve" smooth="yes"/>
      <point x="317.739" y="433"/>
      <point x="361.74" y="388.542"/>
      <point x="379" y="291" type="curve"/>
      <point x="317.25" y="291" type="line" smooth="yes"/>
      <point x="229.25" y="291"/>
      <point x="184.25" y="257"/>
      <point x="184.25" y="173" type="curve" smooth="yes"/>
      <point x="184.25" y="89"/>
      <point x="235.989" y="44"/>
      <point x="285.5" y="44" type="curve" smooth="yes"/>
      <point x="315.849" y="44"/>
      <point x="340.75" y="48.25"/>
      <point x="380.75" y="94.25" type="curve"/>
      <point x="407" y="75" type="line"/>
      <point x="406.73" y="67.5654"/>
      <point x="357" y="30.75"/>
      <point x="357" y="30.75" type="curve"/>
      <point x="426" y="30.75" type="line"/>
      <point x="426" y="4.75" type="line"/>
      <point x="363.75" y="-36" type="line"/>
      <point x="424" y="-36" type="line"/>
      <point x="424" y="-61.75" type="line"/>
      <point x="411.604" y="-74.9144"/>
      <point x="393.5" y="-92.0703"/>
      <point x="393.5" y="-136" type="curve" smooth="yes"/>
      <point x="393.5" y="-176.404"/>
      <point x="415.232" y="-200"/>
      <point x="432" y="-200" type="curve"/>
      <point x="432" y="-228.5" type="line"/>
      <point x="429.328" y="-229.383"/>
      <point x="424.947" y="-229.75"/>
      <point x="421" y="-229.75" type="curve" smooth="yes"/>
      <point x="364.651" y="-229.75"/>
      <point x="309" y="-189.072"/>
      <point x="309" y="-144" type="curve" smooth="yes"/>
      <point x="309" y="-104.948"/>
      <point x="337.094" y="-75.0098"/>
      <point x="368" y="-61.25" type="curve"/>
      <point x="367.743" y="-61.5586"/>
      <point x="312" y="-61.75"/>
      <point x="312" y="-61.75" type="curve"/>
      <point x="312" y="-40" type="line"/>
      <point x="335.441" y="-25.7754"/>
      <point x="357.429" y="-9.8457"/>
      <point x="381.5" y="3.75" type="curve"/>
      <point x="379.397" y="3.75"/>
      <point x="326" y="4"/>
      <point x="326" y="4" type="curve"/>
      <point x="308.94" y="-10.3356"/>
      <point x="277" y="-54.2386"/>
      <point x="277" y="-108" type="curve" smooth="yes"/>
      <point x="277" y="-157.651"/>
      <point x="296.704" y="-193.58"/>
      <point x="315" y="-201" type="curve"/>
      <point x="315" y="-228.25" type="line"/>
      <point x="311.208" y="-229.427"/>
      <point x="300.885" y="-230.25"/>
      <point x="296" y="-230.25" type="curve" smooth="yes"/>
      <point x="233.773" y="-230.25"/>
      <point x="186" y="-197.723"/>
      <point x="186" y="-132" type="curve" smooth="yes"/>
      <point x="186" y="-78.6526"/>
      <point x="224.958" y="-41.1085"/>
      <point x="272" y="1" type="curve"/>
      <point x="264.071" y="-0.615063"/>
      <point x="261.333" y="-1"/>
      <point x="234" y="-1" type="curve" smooth="yes"/>
      <point x="103" y="-1"/>
      <point x="31" y="69"/>
    </contour>
  </outline>
</glyph>
<glyph name="si_DYUu.post" format="1">
  <advance width="614"/>
  <outline>
    <contour>
      <point x="586" y="-139" type="line"/>
      <point x="586" y="-343.5" type="line"/>
      <point x="586" y="-343.5"/>
      <point x="570.389" y="-343.448"/>
      <point x="562" y="-342.925" type="curve"/>
      <point x="553.669" y="-326.673"/>
      <point x="533.127" y="-314.25"/>
      <point x="500" y="-314.25" type="curve" smooth="yes"/>
      <point x="452.717" y="-314.25"/>
      <point x="432.695" y="-348"/>
      <point x="377.25" y="-348" type="curve" smooth="yes"/>
      <point x="337.963" y="-348"/>
      <point x="307" y="-322.852"/>
      <point x="307" y="-282" type="curve" smooth="yes"/>
      <point x="307" y="-243.854"/>
      <point x="334.477" y="-220"/>
      <point x="373" y="-220" type="curve" smooth="yes"/>
      <point x="404.446" y="-220"/>
      <point x="420.663" y="-235.522"/>
      <point x="430.75" y="-257.25" type="curve"/>
      <point x="406" y="-270" type="line"/>
      <point x="399.077" y="-254.615"/>
      <point x="387.257" y="-246"/>
      <point x="371" y="-246" type="curve" smooth="yes"/>
      <point x="349.735" y="-246"/>
      <point x="338" y="-260.359"/>
      <point x="338" y="-272" type="curve" smooth="yes"/>
      <point x="338" y="-293.493"/>
      <point x="361.377" y="-300"/>
      <point x="387" y="-300" type="curve" smooth="yes"/>
      <point x="437.268" y="-300"/>
      <point x="453.924" y="-286"/>
      <point x="504" y="-286" type="curve" smooth="yes"/>
      <point x="541.721" y="-286"/>
      <point x="556" y="-302.5"/>
      <point x="556" y="-302.5" type="curve"/>
      <point x="556" y="-175.5" type="line"/>
    </contour>
    <contour>
      <point x="340" y="46" type="line"/>
      <point x="348.723" y="48.0625"/>
      <point x="353.999" y="50"/>
      <point x="364" y="50" type="curve" smooth="yes"/>
      <point x="389.143" y="50"/>
      <point x="424.15" y="10.6006"/>
      <point x="424.15" y="-41.5996" type="curve" smooth="yes"/>
      <point x="424.15" y="-77"/>
      <point x="417.496" y="-93.6992"/>
      <point x="412.5" y="-106" type="curve"/>
      <point x="432.562" y="-113.706"/>
      <point x="447.003" y="-116"/>
      <point x="469" y="-116" type="curve" smooth="yes"/>
      <point x="506.359" y="-116"/>
      <point x="521" y="-95.6582"/>
      <point x="521" y="-80" type="curve" smooth="yes"/>
      <point x="521" y="-52.0613"/>
      <point x="496.482" y="-47.5674"/>
      <point x="478" y="-44" type="curve" smooth="yes"/>
      <point x="464.782" y="-41.4482"/>
      <point x="440.5" y="-28.5635"/>
      <point x="440.5" y="-1" type="curve" smooth="yes"/>
      <point x="440.5" y="38.1152"/>
      <point x="471.656" y="53.7998"/>
      <point x="508.15" y="53.7998" type="curve" smooth="yes"/>
      <point x="543.55" y="53.7998"/>
      <point x="571.15" y="34.6006"/>
      <point x="571.15" y="-0.799805" type="curve" smooth="yes"/>
      <point x="571.15" y="-4.7998"/>
      <point x="570.75" y="-8.7998"/>
      <point x="569.95" y="-12.7998" type="curve"/>
      <point x="540.6" y="-12.7998" type="line"/>
      <point x="541.399" y="-9.2002"/>
      <point x="541.8" y="-5.59961"/>
      <point x="541.8" y="-2" type="curve" smooth="yes"/>
      <point x="541.8" y="11.8711"/>
      <point x="533.8" y="27.25"/>
      <point x="508" y="27.25" type="curve" smooth="yes"/>
      <point x="493.28" y="27.25"/>
      <point x="469.75" y="22.9329"/>
      <point x="469.75" y="0.5" type="curve" smooth="yes"/>
      <point x="469.75" y="-18.71"/>
      <point x="484.6" y="-22"/>
      <point x="508" y="-22" type="curve" smooth="yes"/>
      <point x="543.401" y="-22"/>
      <point x="592.75" y="-45.915"/>
      <point x="592.75" y="-107" type="curve" smooth="yes"/>
      <point x="592.75" y="-165.8"/>
      <point x="539.95" y="-205.399"/>
      <point x="487.75" y="-205.399" type="curve" smooth="yes"/>
      <point x="441.178" y="-205.399"/>
      <point x="411.55" y="-192.8"/>
      <point x="382.75" y="-155.6" type="curve"/>
      <point x="364.142" y="-176.636"/>
      <point x="337.708" y="-196.467"/>
      <point x="311.95" y="-204.8" type="curve"/>
      <point x="294.5" y="-179.75" type="line"/>
      <point x="343.836" y="-162.454"/>
      <point x="393.75" y="-117.436"/>
      <point x="393.75" y="-44" type="curve" smooth="yes"/>
      <point x="393.75" y="-9.6582"/>
      <point x="371.248" y="25.5"/>
      <point x="350" y="25.5" type="curve" smooth="yes"/>
      <point x="340.8" y="25.5"/>
      <point x="334.679" y="23.9941"/>
      <point x="328" y="23.25" type="curve"/>
    </contour>
    <contour>
      <point x="234" y="-1" type="curve" smooth="yes"/>
      <point x="103" y="-1"/>
      <point x="31" y="69"/>
      <point x="31" y="169" type="curve" smooth="yes"/>
      <point x="31" y="274"/>
      <point x="104" y="317"/>
      <point x="223" y="317" type="curve" smooth="yes"/>
      <point x="340.25" y="317" type="line"/>
      <point x="330.526" y="363.186"/>
      <point x="300.514" y="390"/>
      <point x="268" y="390" type="curve" smooth="yes"/>
      <point x="249" y="390"/>
      <point x="234.549" y="378.911"/>
      <point x="226" y="361" type="curve" smooth="yes"/>
      <point x="215.5" y="339"/>
      <point x="198.579" y="333"/>
      <point x="178.75" y="333" type="curve" smooth="yes"/>
      <point x="153.75" y="333"/>
      <point x="136" y="349.75"/>
      <point x="136" y="370.75" type="curve" smooth="yes"/>
      <point x="136" y="407.033"/>
      <point x="177" y="433"/>
      <point x="232" y="433" type="curve" smooth="yes"/>
      <point x="317.739" y="433"/>
      <point x="361.74" y="388.542"/>
      <point x="379" y="291" type="curve"/>
      <point x="317.25" y="291" type="line" smooth="yes"/>
      <point x="229.25" y="291"/>
      <point x="184.25" y="257"/>
      <point x="184.25" y="173" type="curve" smooth="yes"/>
      <point x="184.25" y="89"/>
      <point x="235.989" y="44"/>
      <point x="285.5" y="44" type="curve" smooth="yes"/>
      <point x="315.849" y="44"/>
      <point x="340.75" y="48.25"/>
      <point x="380.75" y="94.25" type="curve"/>
      <point x="412.5" y="75" type="line"/>
      <point x="365.043" y="28.5498"/>
      <point x="325.778" y="-1"/>
    </contour>
  </outline>
</glyph>
<glyph name="si_Da.reph" format="1">
  <advance width="456"/>
  <outline>
    <contour>
      <point x="199.4" y="511" type="curve" smooth="yes"/>
      <point x="199.4" y="490.854"/>
      <point x="217.628" y="474.547"/>
      <point x="239.5" y="474.547" type="curve" smooth="yes"/>
      <point x="261.372" y="474.547"/>
      <point x="279.6" y="490.854"/>
      <point x="279.6" y="511" type="curve" smooth="yes"/>
      <point x="279.6" y="531.146"/>
      <point x="261.372" y="547.453"/>
      <point x="239.5" y="547.453" type="curve" smooth="yes"/>
      <point x="217.628" y="547.453"/>
      <point x="199.4" y="531.146"/>
    </contour>
    <contour>
      <point x="96.5" y="530" type="curve" smooth="yes"/>
      <point x="96.5" y="594"/>
      <point x="154.62" y="631"/>
      <point x="236.5" y="631" type="curve" smooth="yes"/>
      <point x="313.5" y="631"/>
      <point x="377.5" y="588"/>
      <point x="377.5" y="517" type="curve" smooth="yes"/>
      <point x="377.5" y="493"/>
      <point x="369.167" y="471.333"/>
      <point x="352.5" y="452" type="curve"/>
      <point x="316.75" y="452" type="line"/>
      <point x="329.92" y="464.387"/>
      <point x="345.5" y="488.734"/>
      <point x="345.5" y="516" type="curve" smooth="yes"/>
      <point x="345.5" y="570.521"/>
      <point x="296.5" y="602.5"/>
      <point x="235.5" y="602.5" type="curve" smooth="yes"/>
      <point x="182.722" y="602.5"/>
      <point x="129.25" y="579.99"/>
      <point x="129.25" y="530" type="curve" smooth="yes"/>
      <point x="129.25" y="490.925"/>
      <point x="172.401" y="473.688"/>
      <point x="190" y="471.25" type="curve"/>
      <point x="182" y="477.25"/>
      <point x="171.5" y="491"/>
      <point x="171.5" y="512" type="curve" smooth="yes"/>
      <point x="171.5" y="547"/>
      <point x="202.854" y="572"/>
      <point x="238.5" y="572" type="curve" smooth="yes"/>
      <point x="279.5" y="572"/>
      <point x="307.5" y="545"/>
      <point x="307.5" y="510" type="curve" smooth="yes"/>
      <point x="307.5" y="471"/>
      <point x="272.5" y="445"/>
      <point x="214.5" y="445" type="curve" smooth="yes"/>
      <point x="155.5" y="445"/>
      <point x="96.5" y="474"/>
    </contour>
    <component base="uni0DAF"/>
  </outline>
</glyph>
<glyph name="si_Dha.reph" format="1">
  <advance width="638"/>
  <outline>
    <contour>
      <point x="274.4" y="622" type="curve" smooth="yes"/>
      <point x="274.4" y="642.146"/>
      <point x="292.628" y="658.453"/>
      <point x="314.5" y="658.453" type="curve" smooth="yes"/>
      <point x="336.372" y="658.453"/>
      <point x="354.6" y="642.146"/>
      <point x="354.6" y="622" type="curve" smooth="yes"/>
      <point x="354.6" y="601.854"/>
      <point x="336.372" y="585.547"/>
      <point x="314.5" y="585.547" type="curve" smooth="yes"/>
      <point x="292.628" y="585.547"/>
      <point x="274.4" y="601.854"/>
    </contour>
    <contour>
      <point x="171.5" y="641" type="curve" smooth="yes"/>
      <point x="171.5" y="585"/>
      <point x="230.5" y="556"/>
      <point x="289.5" y="556" type="curve" smooth="yes"/>
      <point x="347.5" y="556"/>
      <point x="382.5" y="582"/>
      <point x="382.5" y="621" type="curve" smooth="yes"/>
      <point x="382.5" y="656"/>
      <point x="354.5" y="683"/>
      <point x="313.5" y="683" type="curve" smooth="yes"/>
      <point x="277.854" y="683"/>
      <point x="246.5" y="658"/>
      <point x="246.5" y="623" type="curve" smooth="yes"/>
      <point x="246.5" y="602"/>
      <point x="257" y="588.25"/>
      <point x="265" y="582.25" type="curve"/>
      <point x="247.401" y="584.688"/>
      <point x="204.25" y="601.925"/>
      <point x="204.25" y="641" type="curve" smooth="yes"/>
      <point x="204.25" y="690.99"/>
      <point x="257.722" y="713.5"/>
      <point x="310.5" y="713.5" type="curve" smooth="yes"/>
      <point x="371.5" y="713.5"/>
      <point x="420.5" y="681.521"/>
      <point x="420.5" y="627" type="curve" smooth="yes"/>
      <point x="420.5" y="599.734"/>
      <point x="404.92" y="575.387"/>
      <point x="391.75" y="563" type="curve"/>
      <point x="427.5" y="563" type="line"/>
      <point x="444.167" y="582.333"/>
      <point x="452.5" y="604"/>
      <point x="452.5" y="628" type="curve" smooth="yes"/>
      <point x="452.5" y="699"/>
      <point x="388.5" y="742"/>
      <point x="311.5" y="742" type="curve" smooth="yes"/>
      <point x="229.62" y="742"/>
      <point x="171.5" y="705"/>
    </contour>
    <component base="uni0DB0"/>
  </outline>
</glyph>
<glyph name="si_DvocR" format="1">
  <advance width="703"/>
  <outline>
    <contour>
      <point x="422.632" y="249" type="curve" smooth="yes"/>
      <point x="422.632" y="329"/>
      <point x="457.8" y="393"/>
      <point x="537.5" y="393" type="curve" smooth="yes"/>
      <point x="624.396" y="393"/>
      <point x="660.5" y="313.777"/>
      <point x="660.5" y="203" type="curve" smooth="yes"/>
      <point x="660.5" y="144"/>
      <point x="643.5" y="52.4365"/>
      <point x="643.5" y="23" type="curve" smooth="yes"/>
      <point x="643.5" y="15.667"/>
      <point x="643.833" y="9"/>
      <point x="644.5" y="3" type="curve"/>
      <point x="569.75" y="3" type="line"/>
      <point x="567.083" y="12.333"/>
      <point x="562.083" y="17"/>
      <point x="554.75" y="17" type="curve" smooth="yes"/>
      <point x="542.597" y="17"/>
      <point x="534.396" y="-1"/>
      <point x="505.5" y="-1" type="curve" smooth="yes"/>
      <point x="446.5" y="-1"/>
      <point x="422.75" y="65.5635"/>
      <point x="422.75" y="106" type="curve" smooth="yes"/>
      <point x="422.75" y="153.333"/>
      <point x="444.758" y="188.315"/>
      <point x="488.75" y="207" type="curve" smooth="yes"/>
      <point x="510.996" y="216.448"/>
      <point x="535.828" y="220.009"/>
      <point x="543.25" y="220.5" type="curve"/>
      <point x="543.25" y="310.5"/>
      <point x="534.286" y="340"/>
      <point x="505.75" y="340" type="curve" smooth="yes"/>
      <point x="472.153" y="340"/>
      <point x="448.953" y="308"/>
      <point x="448.953" y="246" type="curve" smooth="yes"/>
      <point x="448.953" y="244.333"/>
      <point x="448.964" y="243.666"/>
      <point x="449" y="242" type="curve"/>
      <point x="422.75" y="242" type="line"/>
      <point x="422.668" y="244.678"/>
      <point x="422.632" y="246.345"/>
    </contour>
    <contour>
      <point x="454" y="107" type="curve" smooth="yes"/>
      <point x="454" y="76.335"/>
      <point x="467.87" y="29.5"/>
      <point x="507.5" y="29.5" type="curve" smooth="yes"/>
      <point x="534.398" y="29.5"/>
      <point x="536.751" y="40.627"/>
      <point x="551" y="42" type="curve"/>
      <point x="542.893" y="47.1436"/>
      <point x="542.25" y="75.833"/>
      <point x="542.25" y="113.5" type="curve" smooth="yes"/>
      <point x="542.25" y="144.879"/>
      <point x="543.407" y="165"/>
      <point x="543.407" y="183" type="curve" smooth="yes"/>
      <point x="543.407" y="185.996"/>
      <point x="543.361" y="189.663"/>
      <point x="543.25" y="192" type="curve"/>
      <point x="539.718" y="192"/>
      <point x="520.903" y="187.953"/>
      <point x="512.75" y="185.5" type="curve" smooth="yes"/>
      <point x="476.448" y="174.578"/>
      <point x="454" y="150.545"/>
    </contour>
    <component base="uni0DAF"/>
  </outline>
</glyph>
<glyph name="si_F.halant" format="1">
  <advance width="607"/>
  <outline>
    <contour>
      <point x="403.5" y="423" type="line"/>
      <point x="403.5" y="681" type="line"/>
      <point x="457.5" y="639"/>
      <point x="555" y="634"/>
      <point x="555" y="542" type="curve" smooth="yes"/>
      <point x="555" y="498"/>
      <point x="520.191" y="468"/>
      <point x="477" y="468" type="curve" smooth="yes"/>
      <point x="462.333" y="468"/>
      <point x="447.333" y="471.333"/>
      <point x="432" y="478" type="curve"/>
      <point x="432" y="410" type="line"/>
    </contour>
    <contour>
      <point x="432.105" y="504.273" type="line"/>
      <point x="440.6" y="499.699"/>
      <point x="451.382" y="497.413"/>
      <point x="464.448" y="497.413" type="curve" smooth="yes"/>
      <point x="496.454" y="497.413"/>
      <point x="510" y="521.915"/>
      <point x="510" y="545.438" type="curve" smooth="yes"/>
      <point x="510" y="586.602"/>
      <point x="478.17" y="606.203"/>
      <point x="432.105" y="636.587" type="curve"/>
    </contour>
    <component base="uni0DC6"/>
  </outline>
</glyph>
<glyph name="si_G.halant" format="1">
  <advance width="636"/>
  <outline>
    <contour>
      <point x="434.5" y="348" type="line"/>
      <point x="434.5" y="681" type="line"/>
      <point x="488.5" y="639"/>
      <point x="586" y="634"/>
      <point x="586" y="542" type="curve" smooth="yes"/>
      <point x="586" y="498"/>
      <point x="551.191" y="468"/>
      <point x="508" y="468" type="curve" smooth="yes"/>
      <point x="493.333" y="468"/>
      <point x="478.333" y="471.333"/>
      <point x="463" y="478" type="curve"/>
      <point x="463" y="331" type="line"/>
    </contour>
    <contour>
      <point x="463.105" y="504.273" type="line"/>
      <point x="471.6" y="499.699"/>
      <point x="482.382" y="497.413"/>
      <point x="495.448" y="497.413" type="curve" smooth="yes"/>
      <point x="527.454" y="497.413"/>
      <point x="541" y="521.915"/>
      <point x="541" y="545.438" type="curve" smooth="yes"/>
      <point x="541" y="586.602"/>
      <point x="509.17" y="606.203"/>
      <point x="463.105" y="636.587" type="curve"/>
    </contour>
    <component base="uni0D9C"/>
  </outline>
</glyph>
<glyph name="si_GDha" format="1">
  <advance width="942"/>
  <outline>
    <contour>
      <point x="34" y="207" type="curve" smooth="yes"/>
      <point x="34" y="330"/>
      <point x="109" y="431.5"/>
      <point x="220" y="431.5" type="curve" smooth="yes"/>
      <point x="223.953" y="431.5"/>
      <point x="228.954" y="431.25"/>
      <point x="233" y="431" type="curve"/>
      <point x="233" y="405" type="line"/>
      <point x="229.645" y="405.284"/>
      <point x="225.311" y="405.45"/>
      <point x="222" y="405.45" type="curve" smooth="yes"/>
      <point x="138" y="405.45"/>
      <point x="88" y="329"/>
      <point x="88" y="258" type="curve" smooth="yes"/>
      <point x="88" y="186"/>
      <point x="142" y="140"/>
      <point x="211" y="140" type="curve" smooth="yes"/>
      <point x="270" y="140"/>
      <point x="294" y="164"/>
      <point x="294" y="191" type="curve" smooth="yes"/>
      <point x="294" y="216"/>
      <point x="276" y="220"/>
      <point x="269" y="220" type="curve" smooth="yes"/>
      <point x="258" y="220"/>
      <point x="251" y="217"/>
      <point x="246" y="214" type="curve"/>
      <point x="245" y="208"/>
      <point x="244" y="197.333"/>
      <point x="244" y="194" type="curve"/>
      <point x="214.75" y="194" type="line"/>
      <point x="224.946" y="318.901"/>
      <point x="288" y="431.5"/>
      <point x="410" y="431.5" type="curve" smooth="yes"/>
      <point x="466.521" y="431.5"/>
      <point x="491.823" y="420.777"/>
      <point x="527.75" y="398" type="curve"/>
      <point x="514.927" y="390.982"/>
      <point x="488.756" y="394.64"/>
      <point x="476.75" y="392" type="curve"/>
      <point x="455.328" y="399.842"/>
      <point x="431.432" y="402.25"/>
      <point x="414.5" y="402.25" type="curve" smooth="yes"/>
      <point x="309.653" y="402.25"/>
      <point x="266.733" y="315.347"/>
      <point x="251" y="241.75" type="curve"/>
      <point x="254.837" y="244.272"/>
      <point x="265.252" y="246"/>
      <point x="270" y="246" type="curve" smooth="yes"/>
      <point x="320" y="246"/>
      <point x="352" y="202"/>
      <point x="352" y="136" type="curve" smooth="yes"/>
      <point x="352" y="56"/>
      <point x="295" y="-2"/>
      <point x="208" y="-2" type="curve" smooth="yes"/>
      <point x="97" y="-2"/>
      <point x="34" y="96"/>
    </contour>
    <component base="uni0DB0" xOffset="306"/>
  </outline>
</glyph>
<glyph name="si_GUu" format="1">
  <advance width="636"/>
  <outline>
    <contour>
      <point x="335.946" y="-129" type="curve" smooth="yes"/>
      <point x="335.946" y="-93.3486"/>
      <point x="362.946" y="-72"/>
      <point x="399.946" y="-67" type="curve"/>
      <point x="344.946" y="-39" type="line"/>
      <point x="430.196" y="-14.5" type="line"/>
      <point x="338.5" y="1" type="line"/>
      <point x="393" y="14" type="line"/>
      <point x="515" y="-6" type="line"/>
      <point x="407.696" y="-43.25" type="line"/>
      <point x="467.946" y="-76" type="line"/>
      <point x="439.946" y="-83"/>
      <point x="385.946" y="-83.4658"/>
      <point x="385.946" y="-104.5" type="curve" smooth="yes"/>
      <point x="385.946" y="-120.922"/>
      <point x="417.87" y="-129"/>
      <point x="459.946" y="-129" type="curve" smooth="yes"/>
      <point x="513.946" y="-129"/>
      <point x="558.175" y="-112.984"/>
      <point x="558.175" y="-82" type="curve" smooth="yes"/>
      <point x="558.175" y="-77"/>
      <point x="557.442" y="-66.9287"/>
      <point x="552.196" y="-59" type="curve"/>
      <point x="586.946" y="-59" type="line"/>
      <point x="590.537" y="-71.1182"/>
      <point x="591.25" y="-82.833"/>
      <point x="591.25" y="-94" type="curve" smooth="yes"/>
      <point x="591.25" y="-161"/>
      <point x="539.946" y="-205"/>
      <point x="457.946" y="-205" type="curve" smooth="yes"/>
      <point x="399.946" y="-205"/>
      <point x="335.946" y="-187.466"/>
    </contour>
    <component base="uni0D9C"/>
  </outline>
</glyph>
<glyph name="si_HRIi" format="1">
  <advance width="653"/>
  <outline>
    <contour>
      <point x="393.546" y="520" type="curve" smooth="yes"/>
      <point x="393.546" y="552.893"/>
      <point x="423.082" y="579.742"/>
      <point x="460" y="579.742" type="curve" smooth="yes"/>
      <point x="496.918" y="579.742"/>
      <point x="526.454" y="552.893"/>
      <point x="526.454" y="520" type="curve" smooth="yes"/>
      <point x="526.454" y="487.107"/>
      <point x="496.918" y="460.258"/>
      <point x="460" y="460.258" type="curve" smooth="yes"/>
      <point x="423.082" y="460.258"/>
      <point x="393.546" y="487.107"/>
    </contour>
    <contour>
      <point x="150" y="537" type="curve" smooth="yes"/>
      <point x="150" y="462"/>
      <point x="237" y="412.833"/>
      <point x="397" y="409.5" type="curve"/>
      <point x="413" y="431.5" type="line"/>
      <point x="412.006" y="431.494"/>
      <point x="412.006" y="431.492"/>
      <point x="411" y="431.492" type="curve" smooth="yes"/>
      <point x="325" y="431.492"/>
      <point x="221" y="453.811"/>
      <point x="221" y="503" type="curve" smooth="yes"/>
      <point x="221" y="537.781"/>
      <point x="276.527" y="566"/>
      <point x="358" y="566" type="curve" smooth="yes"/>
      <point x="363.678" y="566"/>
      <point x="369.354" y="565.931"/>
      <point x="375" y="565.781" type="curve"/>
      <point x="367.643" y="554.466"/>
      <point x="361" y="538.988"/>
      <point x="361" y="520" type="curve" smooth="yes"/>
      <point x="361" y="463.284"/>
      <point x="414.356" y="431"/>
      <point x="460" y="431" type="curve" smooth="yes"/>
      <point x="502.17" y="431"/>
      <point x="559" y="456.817"/>
      <point x="559" y="525" type="curve" smooth="yes"/>
      <point x="559" y="618.415"/>
      <point x="456.345" y="667"/>
      <point x="351" y="667" type="curve" smooth="yes"/>
      <point x="248.984" y="667"/>
      <point x="150" y="628"/>
    </contour>
    <contour>
      <point x="61.25" y="-44" type="curve"/>
      <point x="90.75" y="-44" type="line"/>
      <point x="124.283" y="-93.29"/>
      <point x="184.302" y="-113.75"/>
      <point x="297.5" y="-113.75" type="curve" smooth="yes"/>
      <point x="449.064" y="-113.75"/>
      <point x="572.25" y="-31.0107"/>
      <point x="572.25" y="63.25" type="curve" smooth="yes"/>
      <point x="572.25" y="78.2842"/>
      <point x="569.5" y="90.793"/>
      <point x="562.5" y="102" type="curve"/>
      <point x="575.5" y="133" type="line"/>
      <point x="593.5" y="106.333"/>
      <point x="602.5" y="74.667"/>
      <point x="602.5" y="38" type="curve" smooth="yes"/>
      <point x="602.5" y="-123.729"/>
      <point x="471.55" y="-219"/>
      <point x="320" y="-219" type="curve" smooth="yes"/>
      <point x="180.156" y="-219"/>
      <point x="98.583" y="-153.333"/>
    </contour>
    <component base="uni0DC4"/>
  </outline>
</glyph>
<glyph name="si_JRI" format="1">
  <advance width="598"/>
  <outline>
    <contour>
      <point x="40.5" y="-44" type="curve"/>
      <point x="70" y="-44" type="line"/>
      <point x="107.476" y="-86.958"/>
      <point x="170.167" y="-114.25"/>
      <point x="275.5" y="-114.25" type="curve" smooth="yes"/>
      <point x="418.5" y="-114.25"/>
      <point x="518" y="-31.0107"/>
      <point x="518" y="63.25" type="curve" smooth="yes"/>
      <point x="518" y="78.2842"/>
      <point x="516.438" y="90.4463"/>
      <point x="511" y="102" type="curve"/>
      <point x="524" y="133" type="line"/>
      <point x="542" y="106.333"/>
      <point x="551" y="74.667"/>
      <point x="551" y="38" type="curve" smooth="yes"/>
      <point x="551" y="-123.729"/>
      <point x="432.75" y="-219"/>
      <point x="288.75" y="-219" type="curve" smooth="yes"/>
      <point x="155.75" y="-219"/>
      <point x="77.833" y="-153.333"/>
    </contour>
    <contour>
      <point x="233" y="489.5" type="curve" smooth="yes"/>
      <point x="233" y="576.568"/>
      <point x="303.321" y="657"/>
      <point x="382" y="657" type="curve" smooth="yes"/>
      <point x="428.882" y="657"/>
      <point x="460.703" y="626.416"/>
      <point x="460.705" y="583" type="curve" smooth="yes"/>
      <point x="460.705" y="579.106"/>
      <point x="460.496" y="576.102"/>
      <point x="460" y="572" type="curve"/>
      <point x="459.982" y="571.995"/>
      <point x="430" y="544.016"/>
      <point x="430" y="544" type="curve"/>
      <point x="432.45" y="549.302"/>
      <point x="435.181" y="564.622"/>
      <point x="435.181" y="575.5" type="curve" smooth="yes"/>
      <point x="435.181" y="599.068"/>
      <point x="423.688" y="609"/>
      <point x="406" y="609" type="curve" smooth="yes"/>
      <point x="348.62" y="609"/>
      <point x="295" y="546.291"/>
      <point x="295" y="482" type="curve" smooth="yes"/>
      <point x="295" y="450.191"/>
      <point x="309.158" y="430.75"/>
      <point x="340" y="430.75" type="curve" smooth="yes"/>
      <point x="349.467" y="430.75"/>
      <point x="357.154" y="431.185"/>
      <point x="374" y="436" type="curve"/>
      <point x="373.999" y="435.978"/>
      <point x="370.001" y="425.001"/>
      <point x="370" y="425" type="curve"/>
      <point x="327" y="407" type="line"/>
      <point x="325.947" y="406.999"/>
      <point x="324.051" y="406.952"/>
      <point x="323" y="406.952" type="curve" smooth="yes"/>
      <point x="260.125" y="406.952"/>
      <point x="233" y="439.49"/>
    </contour>
    <component base="uni0DA2"/>
  </outline>
</glyph>
<glyph name="si_JhRIi" format="1">
  <advance width="1087"/>
  <outline>
    <contour>
      <point x="505.75" y="-44" type="curve"/>
      <point x="535.25" y="-44" type="line"/>
      <point x="572.726" y="-86.958"/>
      <point x="639.667" y="-114.25"/>
      <point x="745" y="-114.25" type="curve" smooth="yes"/>
      <point x="888" y="-114.25"/>
      <point x="999" y="-31.0107"/>
      <point x="999" y="63.25" type="curve" smooth="yes"/>
      <point x="999" y="78.2842"/>
      <point x="997.438" y="90.4463"/>
      <point x="992" y="102" type="curve"/>
      <point x="1005" y="133" type="line"/>
      <point x="1023" y="106.333"/>
      <point x="1032" y="74.667"/>
      <point x="1032" y="38" type="curve" smooth="yes"/>
      <point x="1032" y="-123.729"/>
      <point x="903.75" y="-219"/>
      <point x="759.75" y="-219" type="curve" smooth="yes"/>
      <point x="626.75" y="-219"/>
      <point x="543.083" y="-153.333"/>
    </contour>
    <contour>
      <point x="21" y="22" type="line"/>
      <point x="28.6966" y="91.2697"/>
      <point x="74.4525" y="184.165"/>
      <point x="109" y="232" type="curve" smooth="yes"/>
      <point x="135" y="268"/>
      <point x="148" y="280"/>
      <point x="171" y="304" type="curve"/>
      <point x="180" y="314"/>
      <point x="191.75" y="331"/>
      <point x="191.75" y="352" type="curve" smooth="yes"/>
      <point x="191.75" y="371"/>
      <point x="182" y="386"/>
      <point x="158" y="386" type="curve" smooth="yes"/>
      <point x="144" y="386"/>
      <point x="128.438" y="378.533"/>
      <point x="124" y="363" type="curve" smooth="yes"/>
      <point x="118" y="342"/>
      <point x="122" y="342"/>
      <point x="113" y="323" type="curve" smooth="yes"/>
      <point x="104.732" y="305.546"/>
      <point x="87" y="297"/>
      <point x="72" y="297" type="curve" smooth="yes"/>
      <point x="35" y="297"/>
      <point x="29" y="328"/>
      <point x="29" y="340" type="curve" smooth="yes"/>
      <point x="29" y="394.099"/>
      <point x="79.3632" y="433"/>
      <point x="136" y="433" type="curve" smooth="yes"/>
      <point x="188.348" y="433"/>
      <point x="220" y="399"/>
      <point x="220" y="358" type="curve" smooth="yes"/>
      <point x="220" y="352"/>
      <point x="220" y="349"/>
      <point x="219" y="341" type="curve"/>
      <point x="278" y="396"/>
      <point x="377" y="431.5"/>
      <point x="464" y="431.5" type="curve" smooth="yes"/>
      <point x="569.164" y="431.5"/>
      <point x="649.122" y="403.737"/>
      <point x="671" y="398" type="curve"/>
      <point x="663.517" y="397.319"/>
      <point x="615.758" y="385.376"/>
      <point x="603.25" y="384.5" type="curve"/>
      <point x="563.635" y="395.022"/>
      <point x="515.625" y="402"/>
      <point x="471" y="402" type="curve" smooth="yes"/>
      <point x="331.959" y="402"/>
      <point x="252.756" y="335.149"/>
      <point x="216.5" y="304.5" type="curve"/>
      <point x="246.5" y="312.5"/>
      <point x="277.667" y="314"/>
      <point x="305" y="314" type="curve" smooth="yes"/>
      <point x="425" y="314"/>
      <point x="515" y="250"/>
      <point x="515" y="126" type="curve" smooth="yes"/>
      <point x="515" y="67.8472"/>
      <point x="482" y="-1"/>
      <point x="397" y="-1" type="curve" smooth="yes"/>
      <point x="351" y="-1"/>
      <point x="317.333" y="20.3333"/>
      <point x="296" y="63" type="curve"/>
      <point x="278.667" y="21.6667"/>
      <point x="246.021" y="-1"/>
      <point x="204" y="-1" type="curve" smooth="yes"/>
      <point x="117" y="-1"/>
      <point x="120" y="73"/>
      <point x="87" y="73" type="curve" smooth="yes"/>
      <point x="64.6748" y="73"/>
      <point x="52" y="51"/>
      <point x="49" y="11" type="curve"/>
    </contour>
    <contour>
      <point x="91" y="143" type="curve"/>
      <point x="103" y="153"/>
      <point x="115" y="160"/>
      <point x="129" y="160" type="curve" smooth="yes"/>
      <point x="161" y="160"/>
      <point x="172" y="140"/>
      <point x="212" y="140" type="curve" smooth="yes"/>
      <point x="258" y="140"/>
      <point x="280" y="157"/>
      <point x="280" y="214" type="curve" smooth="yes"/>
      <point x="280" y="216.209"/>
      <point x="280.041" y="214.305"/>
      <point x="280" y="216" type="curve"/>
      <point x="308" y="216" type="line"/>
      <point x="307.964" y="214.664"/>
      <point x="308" y="216.33"/>
      <point x="308" y="215" type="curve" smooth="yes"/>
      <point x="308" y="154"/>
      <point x="332" y="140"/>
      <point x="377" y="140" type="curve" smooth="yes"/>
      <point x="418" y="140"/>
      <point x="443" y="169"/>
      <point x="443" y="204" type="curve" smooth="yes"/>
      <point x="443" y="246"/>
      <point x="402" y="287"/>
      <point x="301" y="287" type="curve" smooth="yes"/>
      <point x="244.333" y="287"/>
      <point x="204.667" y="280"/>
      <point x="180" y="268" type="curve"/>
      <point x="162.667" y="253.333"/>
      <point x="146.522" y="234.996"/>
      <point x="131" y="212" type="curve" smooth="yes"/>
      <point x="104" y="172"/>
      <point x="101" y="163"/>
    </contour>
    <component base="si_DhIi" xOffset="449"/>
  </outline>
</glyph>
<glyph name="si_JhUu.reph" format="1">
  <advance width="1087"/>
  <outline>
    <contour>
      <point x="501" y="-138" type="curve" smooth="yes"/>
      <point x="501" y="-80"/>
      <point x="550" y="-40"/>
      <point x="603" y="-40" type="curve" smooth="yes"/>
      <point x="645" y="-40"/>
      <point x="677.333" y="-55"/>
      <point x="700" y="-91" type="curve"/>
      <point x="667" y="-102" type="line"/>
      <point x="655.684" y="-84.6992"/>
      <point x="637" y="-70"/>
      <point x="608" y="-70" type="curve" smooth="yes"/>
      <point x="569" y="-70"/>
      <point x="544" y="-95.0762"/>
      <point x="544" y="-120" type="curve" smooth="yes"/>
      <point x="544" y="-151.995"/>
      <point x="572.815" y="-167"/>
      <point x="607" y="-167" type="curve" smooth="yes"/>
      <point x="683.215" y="-167"/>
      <point x="758.327" y="-114.5"/>
      <point x="866" y="-114.5" type="curve" smooth="yes"/>
      <point x="917.082" y="-114.5"/>
      <point x="963" y="-133.75"/>
      <point x="990" y="-165.75" type="curve"/>
      <point x="990" y="152" type="line"/>
      <point x="1025" y="212" type="line"/>
      <point x="1025" y="-231" type="line"/>
      <point x="999.5" y="-231" type="line"/>
      <point x="984.5" y="-195"/>
      <point x="938.949" y="-146.25"/>
      <point x="876" y="-146.25" type="curve" smooth="yes"/>
      <point x="785" y="-146.25"/>
      <point x="710" y="-237"/>
      <point x="612" y="-237" type="curve" smooth="yes"/>
      <point x="557" y="-237"/>
      <point x="501" y="-206"/>
    </contour>
    <contour>
      <point x="724.4" y="622" type="curve" smooth="yes"/>
      <point x="724.4" y="601.854"/>
      <point x="742.628" y="585.547"/>
      <point x="764.5" y="585.547" type="curve" smooth="yes"/>
      <point x="786.372" y="585.547"/>
      <point x="804.6" y="601.854"/>
      <point x="804.6" y="622" type="curve" smooth="yes"/>
      <point x="804.6" y="642.146"/>
      <point x="786.372" y="658.453"/>
      <point x="764.5" y="658.453" type="curve" smooth="yes"/>
      <point x="742.628" y="658.453"/>
      <point x="724.4" y="642.146"/>
    </contour>
    <contour>
      <point x="621.5" y="641" type="curve" smooth="yes"/>
      <point x="621.5" y="705"/>
      <point x="679.62" y="742"/>
      <point x="761.5" y="742" type="curve" smooth="yes"/>
      <point x="838.5" y="742"/>
      <point x="902.5" y="699"/>
      <point x="902.5" y="628" type="curve" smooth="yes"/>
      <point x="902.5" y="604"/>
      <point x="894.167" y="582.333"/>
      <point x="877.5" y="563" type="curve"/>
      <point x="841.75" y="563" type="line"/>
      <point x="854.92" y="575.387"/>
      <point x="870.5" y="599.734"/>
      <point x="870.5" y="627" type="curve" smooth="yes"/>
      <point x="870.5" y="681.521"/>
      <point x="821.5" y="713.5"/>
      <point x="760.5" y="713.5" type="curve" smooth="yes"/>
      <point x="707.722" y="713.5"/>
      <point x="654.25" y="690.99"/>
      <point x="654.25" y="641" type="curve" smooth="yes"/>
      <point x="654.25" y="601.925"/>
      <point x="697.401" y="584.688"/>
      <point x="715" y="582.25" type="curve"/>
      <point x="707" y="588.25"/>
      <point x="696.5" y="602"/>
      <point x="696.5" y="623" type="curve" smooth="yes"/>
      <point x="696.5" y="658"/>
      <point x="727.854" y="683"/>
      <point x="763.5" y="683" type="curve" smooth="yes"/>
      <point x="804.5" y="683"/>
      <point x="832.5" y="656"/>
      <point x="832.5" y="621" type="curve" smooth="yes"/>
      <point x="832.5" y="582"/>
      <point x="797.5" y="556"/>
      <point x="739.5" y="556" type="curve" smooth="yes"/>
      <point x="680.5" y="556"/>
      <point x="621.5" y="585"/>
    </contour>
    <component base="uni0DA3"/>
  </outline>
</glyph>
<glyph name="si_JnyAa" format="1">
  <advance width="842"/>
  <outline>
    <contour>
      <point x="680.25" y="2" type="curve"/>
      <point x="668.7" y="0.592773"/>
      <point x="651.583" y="-1"/>
      <point x="624.25" y="-1" type="curve" smooth="yes"/>
      <point x="493.25" y="-1"/>
      <point x="421.25" y="69"/>
      <point x="421.25" y="169" type="curve" smooth="yes"/>
      <point x="421.25" y="274"/>
      <point x="494.25" y="317"/>
      <point x="613.25" y="317" type="curve" smooth="yes"/>
      <point x="730.5" y="317" type="line"/>
      <point x="720.776" y="363.186"/>
      <point x="690.765" y="390"/>
      <point x="658.25" y="390" type="curve" smooth="yes"/>
      <point x="639.25" y="390"/>
      <point x="624.799" y="378.911"/>
      <point x="616.25" y="361" type="curve" smooth="yes"/>
      <point x="605.75" y="339"/>
      <point x="588.829" y="333"/>
      <point x="569" y="333" type="curve" smooth="yes"/>
      <point x="544" y="333"/>
      <point x="526.25" y="349.75"/>
      <point x="526.25" y="370.75" type="curve" smooth="yes"/>
      <point x="526.25" y="407.033"/>
      <point x="567.25" y="433"/>
      <point x="622.25" y="433" type="curve" smooth="yes"/>
      <point x="707.989" y="433"/>
      <point x="751.99" y="388.542"/>
      <point x="769.25" y="291" type="curve"/>
      <point x="707.5" y="291" type="line" smooth="yes"/>
      <point x="619.5" y="291"/>
      <point x="574.5" y="257"/>
      <point x="574.5" y="173" type="curve" smooth="yes"/>
      <point x="574.5" y="89"/>
      <point x="626.239" y="44"/>
      <point x="675.75" y="44" type="curve" smooth="yes"/>
      <point x="706.099" y="44"/>
      <point x="731" y="48.25"/>
      <point x="771" y="94.25" type="curve"/>
      <point x="802.75" y="75" type="line"/>
      <point x="782.75" y="58.333"/>
      <point x="766.367" y="41.1865"/>
      <point x="751" y="32.75" type="curve"/>
      <point x="754.333" y="33.417"/>
      <point x="752.5" y="33.5"/>
      <point x="756.5" y="33.5" type="curve" smooth="yes"/>
      <point x="804.771" y="33.5"/>
      <point x="837.25" y="-17.8018"/>
      <point x="837.25" y="-87" type="curve" smooth="yes"/>
      <point x="837.25" y="-175"/>
      <point x="799.905" y="-212.5"/>
      <point x="732" y="-212.5" type="curve" smooth="yes"/>
      <point x="682.845" y="-212.5"/>
      <point x="665.25" y="-187.083"/>
      <point x="665.25" y="-166" type="curve"/>
      <point x="699.75" y="-166" type="line"/>
      <point x="699.754" y="-173.44"/>
      <point x="706.397" y="-176"/>
      <point x="714.25" y="-176" type="curve" smooth="yes"/>
      <point x="738.699" y="-176"/>
      <point x="750.25" y="-151.479"/>
      <point x="750.25" y="-90" type="curve" smooth="yes"/>
      <point x="750.25" y="-45.0967"/>
      <point x="736.908" y="-17"/>
      <point x="718.25" y="-17" type="curve" smooth="yes"/>
      <point x="700.582" y="-17"/>
      <point x="694.568" y="-29.2295"/>
      <point x="694.5" y="-45" type="curve"/>
      <point x="661.75" y="-45" type="line"/>
      <point x="661.797" y="-29.335"/>
      <point x="669.425" y="-8.01855"/>
    </contour>
    <contour>
      <point x="674" y="426" type="curve"/>
      <point x="553" y="408.5" type="line"/>
      <point x="547.395" y="408.655"/>
      <point x="545.467" y="408.75"/>
      <point x="539.75" y="408.75" type="curve" smooth="yes"/>
      <point x="442.528" y="408.75"/>
      <point x="370.746" y="347.596"/>
      <point x="349.75" y="240.75" type="curve"/>
      <point x="357.75" y="244.75"/>
      <point x="363.333" y="245.75"/>
      <point x="370" y="245.75" type="curve" smooth="yes"/>
      <point x="418" y="245.75"/>
      <point x="452" y="202"/>
      <point x="452" y="136" type="curve" smooth="yes"/>
      <point x="452" y="56"/>
      <point x="395" y="-2"/>
      <point x="308" y="-2" type="curve" smooth="yes"/>
      <point x="197" y="-2"/>
      <point x="134" y="96"/>
      <point x="134" y="207" type="curve" smooth="yes"/>
      <point x="134" y="330"/>
      <point x="209" y="431.5"/>
      <point x="320" y="431.5" type="curve" smooth="yes"/>
      <point x="323.953" y="431.5"/>
      <point x="328.954" y="431.25"/>
      <point x="333" y="431" type="curve"/>
      <point x="333" y="405.5" type="line"/>
      <point x="329.645" y="405.784"/>
      <point x="325.311" y="405.95"/>
      <point x="322" y="405.95" type="curve" smooth="yes"/>
      <point x="236" y="405.95"/>
      <point x="187.75" y="327.458"/>
      <point x="187.75" y="258.25" type="curve" smooth="yes"/>
      <point x="187.75" y="202.544"/>
      <point x="227.27" y="140"/>
      <point x="308" y="140" type="curve" smooth="yes"/>
      <point x="367" y="140"/>
      <point x="394" y="160.486"/>
      <point x="394" y="190.5" type="curve" smooth="yes"/>
      <point x="394" y="201.482"/>
      <point x="388.872" y="219.75"/>
      <point x="367" y="219.75" type="curve" smooth="yes"/>
      <point x="359.667" y="219.75"/>
      <point x="350.75" y="216.75"/>
      <point x="345.75" y="212.75" type="curve"/>
      <point x="344.75" y="206.75"/>
      <point x="343.5" y="197.333"/>
      <point x="343.5" y="194" type="curve"/>
      <point x="314.5" y="194" type="line"/>
      <point x="328.178" y="354.298"/>
      <point x="406.221" y="438"/>
      <point x="560" y="438" type="curve" smooth="yes"/>
      <point x="591" y="438"/>
      <point x="640.988" y="436.425"/>
    </contour>
    <contour>
      <point x="326" y="431.25" type="curve"/>
      <point x="305" y="420.25"/>
      <point x="253.84" y="413.676"/>
      <point x="238.25" y="405.5" type="curve"/>
      <point x="135.583" y="405.5"/>
      <point x="59" y="347.259"/>
      <point x="59" y="218" type="curve" smooth="yes"/>
      <point x="59" y="137.333"/>
      <point x="86" y="78"/>
      <point x="135" y="34" type="curve"/>
      <point x="135" y="0" type="line"/>
      <point x="68.5828" y="33.2086"/>
      <point x="27" y="120.07"/>
      <point x="27" y="221" type="curve" smooth="yes"/>
      <point x="27" y="352.7"/>
      <point x="99.7562" y="433"/>
      <point x="239" y="433" type="curve" smooth="yes"/>
      <point x="248" y="433"/>
      <point x="299.296" y="432.309"/>
    </contour>
  </outline>
</glyph>
<glyph name="si_JnyIi" format="1">
  <advance width="842"/>
  <outline>
    <contour>
      <point x="639.194" y="492.5" type="curve" smooth="yes"/>
      <point x="639.194" y="462.728"/>
      <point x="668.006" y="438.718"/>
      <point x="702.58" y="438.718" type="curve" smooth="yes"/>
      <point x="737.154" y="438.718"/>
      <point x="765.966" y="462.728"/>
      <point x="765.966" y="492.5" type="curve" smooth="yes"/>
      <point x="765.966" y="522.272"/>
      <point x="737.154" y="546.282"/>
      <point x="702.58" y="546.282" type="curve" smooth="yes"/>
      <point x="668.006" y="546.282"/>
      <point x="639.194" y="522.272"/>
    </contour>
    <contour>
      <point x="424.91" y="522.25" type="curve" smooth="yes"/>
      <point x="424.91" y="614.278"/>
      <point x="516.133" y="671"/>
      <point x="612.83" y="671" type="curve" smooth="yes"/>
      <point x="709.527" y="671"/>
      <point x="801.75" y="619.928"/>
      <point x="801.75" y="511.25" type="curve" smooth="yes"/>
      <point x="801.75" y="440.185"/>
      <point x="753.294" y="407.5"/>
      <point x="702.08" y="407.5" type="curve" smooth="yes"/>
      <point x="642.405" y="407.5"/>
      <point x="604.58" y="448.5"/>
      <point x="604.58" y="493.5" type="curve" smooth="yes"/>
      <point x="604.58" y="535.516"/>
      <point x="636.982" y="555.592"/>
      <point x="643.83" y="560" type="curve"/>
      <point x="637.12" y="560.581"/>
      <point x="629.242" y="561.25"/>
      <point x="613.83" y="561.25" type="curve" smooth="yes"/>
      <point x="555.183" y="561.25"/>
      <point x="472" y="545.835"/>
      <point x="472" y="490" type="curve" smooth="yes"/>
      <point x="472" y="462.223"/>
      <point x="500.864" y="437.75"/>
      <point x="550" y="437.75" type="curve"/>
      <point x="498" y="423" type="line"/>
      <point x="473.658" y="429.052"/>
      <point x="424.91" y="462.996"/>
    </contour>
    <component base="uni0DA5"/>
  </outline>
</glyph>
<glyph name="si_K.halant" format="1">
  <advance width="746"/>
  <outline>
    <contour>
      <point x="549.5" y="348" type="line"/>
      <point x="549.5" y="681" type="line"/>
      <point x="603.5" y="639"/>
      <point x="701" y="634"/>
      <point x="701" y="542" type="curve" smooth="yes"/>
      <point x="701" y="498"/>
      <point x="666.191" y="468"/>
      <point x="623" y="468" type="curve" smooth="yes"/>
      <point x="608.333" y="468"/>
      <point x="593.333" y="471.333"/>
      <point x="578" y="478" type="curve"/>
      <point x="578" y="331" type="line"/>
    </contour>
    <contour>
      <point x="578.105" y="504.273" type="line"/>
      <point x="586.6" y="499.699"/>
      <point x="597.382" y="497.413"/>
      <point x="610.448" y="497.413" type="curve" smooth="yes"/>
      <point x="642.454" y="497.413"/>
      <point x="656" y="521.915"/>
      <point x="656" y="545.438" type="curve" smooth="yes"/>
      <point x="656" y="586.602"/>
      <point x="624.17" y="606.203"/>
      <point x="578.105" y="636.587" type="curve"/>
    </contour>
    <component base="uni0D9A"/>
  </outline>
</glyph>
<glyph name="si_KRIi" format="1">
  <advance width="746"/>
  <outline>
    <contour>
      <point x="532.302" y="476" type="curve" smooth="yes"/>
      <point x="532.302" y="444.706"/>
      <point x="559.077" y="418.458"/>
      <point x="591" y="418.458" type="curve" smooth="yes"/>
      <point x="622.923" y="418.458"/>
      <point x="649.698" y="444.706"/>
      <point x="649.698" y="476" type="curve" smooth="yes"/>
      <point x="649.698" y="507.294"/>
      <point x="622.923" y="533.542"/>
      <point x="591" y="533.542" type="curve" smooth="yes"/>
      <point x="559.077" y="533.542"/>
      <point x="532.302" y="507.294"/>
    </contour>
    <contour>
      <point x="218" y="421" type="curve" smooth="yes"/>
      <point x="218" y="590"/>
      <point x="330" y="671"/>
      <point x="473" y="671" type="curve" smooth="yes"/>
      <point x="603" y="671"/>
      <point x="689" y="600"/>
      <point x="689" y="495" type="curve" smooth="yes"/>
      <point x="689" y="444"/>
      <point x="651" y="388"/>
      <point x="593" y="388" type="curve" smooth="yes"/>
      <point x="535" y="388"/>
      <point x="500" y="433"/>
      <point x="500" y="477" type="curve" smooth="yes"/>
      <point x="500" y="509.015"/>
      <point x="514.197" y="528.213"/>
      <point x="531.25" y="543.25" type="curve"/>
      <point x="517.943" y="547.273"/>
      <point x="491.614" y="550"/>
      <point x="474.25" y="550" type="curve" smooth="yes"/>
      <point x="323.992" y="550"/>
      <point x="246.25" y="464.06"/>
      <point x="246.25" y="398" type="curve" smooth="yes"/>
      <point x="246.25" y="383.333"/>
      <point x="248.333" y="376.011"/>
      <point x="250.25" y="365" type="curve"/>
      <point x="225" y="343" type="line"/>
      <point x="220.903" y="360.752"/>
      <point x="218" y="389.837"/>
    </contour>
    <contour>
      <point x="114" y="-44" type="curve"/>
      <point x="143.5" y="-44" type="line"/>
      <point x="177.033" y="-93.29"/>
      <point x="247.552" y="-112.75"/>
      <point x="360.75" y="-112.75" type="curve" smooth="yes"/>
      <point x="512.314" y="-112.75"/>
      <point x="655.75" y="-31.0107"/>
      <point x="655.75" y="63.25" type="curve" smooth="yes"/>
      <point x="655.75" y="78.2842"/>
      <point x="653" y="90.793"/>
      <point x="646" y="102" type="curve"/>
      <point x="659" y="133" type="line"/>
      <point x="677" y="106.333"/>
      <point x="686" y="74.667"/>
      <point x="686" y="38" type="curve" smooth="yes"/>
      <point x="686" y="-123.729"/>
      <point x="536.3" y="-219"/>
      <point x="384.75" y="-219" type="curve" smooth="yes"/>
      <point x="244.907" y="-219"/>
      <point x="151.333" y="-153.333"/>
    </contour>
    <component base="uni0D9A"/>
  </outline>
</glyph>
<glyph name="si_Ka.reph" format="1">
  <advance width="746"/>
  <outline>
    <contour>
      <point x="390.9" y="511" type="curve" smooth="yes"/>
      <point x="390.9" y="490.854"/>
      <point x="409.128" y="474.547"/>
      <point x="431" y="474.547" type="curve" smooth="yes"/>
      <point x="452.872" y="474.547"/>
      <point x="471.1" y="490.854"/>
      <point x="471.1" y="511" type="curve" smooth="yes"/>
      <point x="471.1" y="531.146"/>
      <point x="452.872" y="547.453"/>
      <point x="431" y="547.453" type="curve" smooth="yes"/>
      <point x="409.128" y="547.453"/>
      <point x="390.9" y="531.146"/>
    </contour>
    <contour>
      <point x="288" y="530" type="curve" smooth="yes"/>
      <point x="288" y="594"/>
      <point x="346.12" y="631"/>
      <point x="428" y="631" type="curve" smooth="yes"/>
      <point x="505" y="631"/>
      <point x="569" y="588"/>
      <point x="569" y="517" type="curve" smooth="yes"/>
      <point x="569" y="493"/>
      <point x="560.667" y="471.333"/>
      <point x="544" y="452" type="curve"/>
      <point x="508.25" y="452" type="line"/>
      <point x="521.42" y="464.387"/>
      <point x="537" y="488.734"/>
      <point x="537" y="516" type="curve" smooth="yes"/>
      <point x="537" y="570.521"/>
      <point x="488" y="602.5"/>
      <point x="427" y="602.5" type="curve" smooth="yes"/>
      <point x="374.222" y="602.5"/>
      <point x="320.75" y="579.99"/>
      <point x="320.75" y="530" type="curve" smooth="yes"/>
      <point x="320.75" y="490.925"/>
      <point x="363.901" y="473.688"/>
      <point x="381.5" y="471.25" type="curve"/>
      <point x="373.5" y="477.25"/>
      <point x="363" y="491"/>
      <point x="363" y="512" type="curve" smooth="yes"/>
      <point x="363" y="547"/>
      <point x="394.354" y="572"/>
      <point x="430" y="572" type="curve" smooth="yes"/>
      <point x="471" y="572"/>
      <point x="499" y="545"/>
      <point x="499" y="510" type="curve" smooth="yes"/>
      <point x="499" y="471"/>
      <point x="464" y="445"/>
      <point x="406" y="445" type="curve" smooth="yes"/>
      <point x="347" y="445"/>
      <point x="288" y="474"/>
    </contour>
    <component base="uni0D9A"/>
  </outline>
</glyph>
<glyph name="si_LlIi" format="1">
  <advance width="636"/>
  <outline>
    <contour>
      <point x="414.313" y="514" type="curve" smooth="yes"/>
      <point x="414.313" y="483.616"/>
      <point x="443.717" y="459.114"/>
      <point x="479" y="459.114" type="curve" smooth="yes"/>
      <point x="514.283" y="459.114"/>
      <point x="543.687" y="483.616"/>
      <point x="543.687" y="514" type="curve" smooth="yes"/>
      <point x="543.687" y="544.384"/>
      <point x="514.283" y="568.886"/>
      <point x="479" y="568.886" type="curve" smooth="yes"/>
      <point x="443.717" y="568.886"/>
      <point x="414.313" y="544.384"/>
    </contour>
    <contour>
      <point x="87" y="517" type="curve" smooth="yes"/>
      <point x="87" y="624.211"/>
      <point x="203.946" y="671"/>
      <point x="331" y="671" type="curve" smooth="yes"/>
      <point x="447.714" y="671"/>
      <point x="580" y="627.399"/>
      <point x="580" y="524" type="curve" smooth="yes"/>
      <point x="580" y="468.769"/>
      <point x="535.277" y="429"/>
      <point x="479" y="429" type="curve" smooth="yes"/>
      <point x="421" y="429"/>
      <point x="381" y="470"/>
      <point x="381" y="515" type="curve" smooth="yes"/>
      <point x="381" y="525.451"/>
      <point x="383.769" y="549.089"/>
      <point x="397" y="562" type="curve"/>
      <point x="388.151" y="563.391"/>
      <point x="351.502" y="565"/>
      <point x="319" y="565" type="curve" smooth="yes"/>
      <point x="224.836" y="565"/>
      <point x="147" y="538.281"/>
      <point x="147" y="484.5" type="curve" smooth="yes"/>
      <point x="147" y="445.908"/>
      <point x="202.548" y="430.145"/>
      <point x="237" y="428" type="curve"/>
      <point x="189" y="409" type="line"/>
      <point x="141.633" y="417.885"/>
      <point x="87" y="456"/>
    </contour>
    <component base="uni0DC5"/>
  </outline>
</glyph>
<glyph name="si_Lla.touch" format="1">
  <advance width="636"/>
  <outline>
    <contour>
      <point x="31" y="114" type="curve" smooth="yes"/>
      <point x="31" y="191.989"/>
      <point x="80" y="297"/>
      <point x="179" y="297" type="curve" smooth="yes"/>
      <point x="540.25" y="297" type="line"/>
      <point x="540.25" y="349.646"/>
      <point x="510" y="401.5"/>
      <point x="444" y="401.5" type="curve" smooth="yes"/>
      <point x="398" y="401.5"/>
      <point x="365" y="363.195"/>
      <point x="365" y="329" type="curve"/>
      <point x="332" y="329" type="line"/>
      <point x="332" y="362.459"/>
      <point x="302" y="402.5"/>
      <point x="259" y="402.5" type="curve" smooth="yes"/>
      <point x="203" y="402.5"/>
      <point x="181" y="357.939"/>
      <point x="181" y="297.25" type="curve" smooth="yes"/>
      <point x="181" y="192.33"/>
      <point x="251.091" y="138"/>
      <point x="352" y="138" type="curve" smooth="yes"/>
      <point x="420.567" y="138"/>
      <point x="477.355" y="158.228"/>
      <point x="501.5" y="190" type="curve"/>
      <point x="531.5" y="190" type="line"/>
      <point x="508.692" y="89.4279"/>
      <point x="437" y="43"/>
      <point x="334" y="43" type="curve" smooth="yes"/>
      <point x="217.772" y="43"/>
      <point x="126" y="138"/>
      <point x="126" y="274" type="curve" smooth="yes"/>
      <point x="126" y="373"/>
      <point x="187.046" y="432"/>
      <point x="260" y="432" type="curve" smooth="yes"/>
      <point x="296" y="432"/>
      <point x="333" y="415"/>
      <point x="349" y="377" type="curve"/>
      <point x="367" y="415"/>
      <point x="409" y="432"/>
      <point x="445" y="432" type="curve" smooth="yes"/>
      <point x="532" y="432"/>
      <point x="576" y="363.504"/>
      <point x="576" y="268.75" type="curve"/>
      <point x="278" y="268.75" type="line" smooth="yes"/>
      <point x="236" y="268.75"/>
      <point x="155" y="264.04"/>
      <point x="155" y="172" type="curve" smooth="yes"/>
      <point x="155" y="50.3125"/>
      <point x="244.248" y="-68"/>
      <point x="402" y="-68" type="curve" smooth="yes"/>
      <point x="489.957" y="-68"/>
      <point x="586.08" y="-29.6738"/>
      <point x="589" y="74" type="curve"/>
      <point x="618" y="74" type="line"/>
      <point x="618" y="-68"/>
      <point x="472" y="-153"/>
      <point x="343" y="-153" type="curve" smooth="yes"/>
      <point x="168" y="-153"/>
      <point x="31" y="-57"/>
    </contour>
  </outline>
</glyph>
<glyph name="si_MbI" format="1">
  <advance width="636"/>
  <outline>
    <contour>
      <point x="72.5" y="562" type="curve" smooth="yes"/>
      <point x="72.5" y="652"/>
      <point x="207" y="670"/>
      <point x="307" y="670" type="curve" smooth="yes"/>
      <point x="443" y="670"/>
      <point x="558" y="639"/>
      <point x="558" y="554" type="curve" smooth="yes"/>
      <point x="558" y="502"/>
      <point x="504" y="480"/>
      <point x="470" y="474" type="curve"/>
      <point x="420" y="490" type="line"/>
      <point x="456" y="491"/>
      <point x="483" y="504.566"/>
      <point x="483" y="527" type="curve" smooth="yes"/>
      <point x="483" y="564.309"/>
      <point x="415" y="581"/>
      <point x="307" y="581" type="curve" smooth="yes"/>
      <point x="231.344" y="581"/>
      <point x="131.5" y="573.211"/>
      <point x="131.5" y="538" type="curve" smooth="yes"/>
      <point x="131.5" y="511.059"/>
      <point x="183" y="508"/>
      <point x="285" y="504" type="curve" smooth="yes"/>
      <point x="349.869" y="501.456"/>
      <point x="449" y="499"/>
      <point x="504" y="459" type="curve" smooth="yes"/>
      <point x="553.146" y="423.257"/>
      <point x="590" y="355.689"/>
      <point x="590" y="251" type="curve"/>
      <point x="529" y="292" type="line"/>
      <point x="529" y="319.207"/>
      <point x="526.315" y="381.697"/>
      <point x="495.25" y="417.25" type="curve" smooth="yes"/>
      <point x="449.764" y="469.307"/>
      <point x="387.019" y="470.325"/>
      <point x="286" y="476" type="curve" smooth="yes"/>
      <point x="197" y="481"/>
      <point x="72.5" y="476"/>
    </contour>
    <contour>
      <point x="30" y="230" type="curve" smooth="yes"/>
      <point x="30" y="338"/>
      <point x="74" y="431.5"/>
      <point x="148" y="431.5" type="curve" smooth="yes"/>
      <point x="167.007" y="431.5"/>
      <point x="175" y="428"/>
      <point x="182" y="423" type="curve" smooth="yes"/>
      <point x="192.609" y="415.422"/>
      <point x="200.873" y="401"/>
      <point x="200.873" y="371" type="curve" smooth="yes"/>
      <point x="200.873" y="357"/>
      <point x="201" y="358.015"/>
      <point x="201" y="355" type="curve" smooth="yes"/>
      <point x="201" y="302"/>
      <point x="232" y="267"/>
      <point x="297" y="267" type="curve" smooth="yes"/>
      <point x="350.167" y="267"/>
      <point x="375.25" y="299"/>
      <point x="375.25" y="315" type="curve" smooth="yes"/>
      <point x="375.25" y="316"/>
      <point x="375.25" y="315"/>
      <point x="375.25" y="317" type="curve"/>
      <point x="371.25" y="312"/>
      <point x="358.656" y="289"/>
      <point x="318" y="289" type="curve" smooth="yes"/>
      <point x="271.278" y="289"/>
      <point x="245" y="324.079"/>
      <point x="245" y="360" type="curve" smooth="yes"/>
      <point x="245" y="402"/>
      <point x="277" y="434"/>
      <point x="322" y="434" type="curve" smooth="yes"/>
      <point x="381" y="434"/>
      <point x="408" y="383"/>
      <point x="408" y="337" type="curve" smooth="yes"/>
      <point x="408" y="280"/>
      <point x="363" y="238"/>
      <point x="292" y="238" type="curve" smooth="yes"/>
      <point x="218" y="238"/>
      <point x="170.5" y="282"/>
      <point x="170.5" y="357" type="curve" smooth="yes"/>
      <point x="170.5" y="362.22"/>
      <point x="170.775" y="362.935"/>
      <point x="170.775" y="372" type="curve" smooth="yes"/>
      <point x="170.775" y="392"/>
      <point x="164" y="403.75"/>
      <point x="145" y="403.75" type="curve" smooth="yes"/>
      <point x="98" y="403.75"/>
      <point x="74" y="329"/>
      <point x="74" y="279" type="curve" smooth="yes"/>
      <point x="74" y="198"/>
      <point x="109" y="124.75"/>
      <point x="180.086" y="124.75" type="curve" smooth="yes"/>
      <point x="197" y="124.75"/>
      <point x="211.086" y="128.75"/>
      <point x="219.086" y="135.75" type="curve"/>
      <point x="219.086" y="142.75"/>
      <point x="220.537" y="150.474"/>
      <point x="223.254" y="159.75" type="curve" smooth="yes"/>
      <point x="234.618" y="198.558"/>
      <point x="268.118" y="218.75"/>
      <point x="310.086" y="218.75" type="curve" smooth="yes"/>
      <point x="352.054" y="218.75"/>
      <point x="385.554" y="198.558"/>
      <point x="396.917" y="159.75" type="curve" smooth="yes"/>
      <point x="399.634" y="150.474"/>
      <point x="401.086" y="142.75"/>
      <point x="401.086" y="135.75" type="curve"/>
      <point x="410" y="128.75"/>
      <point x="422" y="124.75"/>
      <point x="440.086" y="124.75" type="curve" smooth="yes"/>
      <point x="497" y="124.75"/>
      <point x="529" y="213.485"/>
      <point x="529" y="296.25" type="curve"/>
      <point x="545.201" y="280.935"/>
      <point x="565.375" y="275.588"/>
      <point x="590" y="254" type="curve"/>
      <point x="590" y="126.501"/>
      <point x="523" y="0"/>
      <point x="424.086" y="0" type="curve" smooth="yes"/>
      <point x="400.086" y="0"/>
      <point x="389.753" y="4"/>
      <point x="359.086" y="12" type="curve"/>
      <point x="356.086" y="16"/>
      <point x="355.086" y="40.333"/>
      <point x="355.086" y="47" type="curve" smooth="yes"/>
      <point x="355.086" y="78.675"/>
      <point x="370.086" y="93.0344"/>
      <point x="370.086" y="120.75" type="curve" smooth="yes"/>
      <point x="370.086" y="157.75"/>
      <point x="354.086" y="186.75"/>
      <point x="310.086" y="186.75" type="curve" smooth="yes"/>
      <point x="266.086" y="186.75"/>
      <point x="250.086" y="157.75"/>
      <point x="250.086" y="120.75" type="curve" smooth="yes"/>
      <point x="250.086" y="92.7341"/>
      <point x="265.086" y="78.4224"/>
      <point x="265.086" y="47" type="curve" smooth="yes"/>
      <point x="265.086" y="40.333"/>
      <point x="264.086" y="16"/>
      <point x="261.086" y="12" type="curve"/>
      <point x="230.419" y="4"/>
      <point x="220.086" y="0"/>
      <point x="196.086" y="0" type="curve" smooth="yes"/>
      <point x="86" y="0"/>
      <point x="30" y="119.832"/>
    </contour>
    <contour>
      <point x="274.94" y="363" type="curve" smooth="yes"/>
      <point x="274.94" y="337.52"/>
      <point x="295.52" y="316.94"/>
      <point x="321" y="316.94" type="curve" smooth="yes"/>
      <point x="346.48" y="316.94"/>
      <point x="367.06" y="337.52"/>
      <point x="367.06" y="363" type="curve" smooth="yes"/>
      <point x="367.06" y="388.48"/>
      <point x="346.48" y="409.06"/>
      <point x="321" y="409.06" type="curve" smooth="yes"/>
      <point x="295.52" y="409.06"/>
      <point x="274.94" y="388.48"/>
    </contour>
  </outline>
</glyph>
<glyph name="si_MbIi" format="1">
  <advance width="636"/>
  <outline>
    <contour>
      <point x="408.897" y="538.75" type="curve" smooth="yes"/>
      <point x="408.897" y="568.331"/>
      <point x="435.526" y="592.123"/>
      <point x="468" y="592.123" type="curve" smooth="yes"/>
      <point x="500.474" y="592.123"/>
      <point x="527.103" y="568.331"/>
      <point x="527.103" y="538.75" type="curve" smooth="yes"/>
      <point x="527.103" y="509.169"/>
      <point x="500.474" y="485.377"/>
      <point x="468" y="485.377" type="curve" smooth="yes"/>
      <point x="435.526" y="485.377"/>
      <point x="408.897" y="509.169"/>
    </contour>
    <contour>
      <point x="72.75" y="562" type="curve" smooth="yes"/>
      <point x="72.75" y="476"/>
      <point x="204" y="481"/>
      <point x="293" y="476" type="curve" smooth="yes"/>
      <point x="394.019" y="470.325"/>
      <point x="446.626" y="470.406"/>
      <point x="492" y="418.25" type="curve" smooth="yes"/>
      <point x="521.983" y="383.785"/>
      <point x="529" y="333.815"/>
      <point x="529" y="292" type="curve"/>
      <point x="590" y="258.25" type="line"/>
      <point x="590" y="361.248"/>
      <point x="555.146" y="423.257"/>
      <point x="506" y="459" type="curve" smooth="yes"/>
      <point x="451" y="499"/>
      <point x="356.869" y="501.456"/>
      <point x="292" y="504" type="curve" smooth="yes"/>
      <point x="190" y="508"/>
      <point x="127.75" y="510.989"/>
      <point x="127.75" y="540" type="curve" smooth="yes"/>
      <point x="127.75" y="580.369"/>
      <point x="236.344" y="588.5"/>
      <point x="312" y="588.5" type="curve" smooth="yes"/>
      <point x="348.481" y="588.5"/>
      <point x="381.659" y="585.578"/>
      <point x="390" y="584" type="curve"/>
      <point x="386.022" y="578.984"/>
      <point x="376" y="565.35"/>
      <point x="376" y="541.75" type="curve" smooth="yes"/>
      <point x="376" y="488.75"/>
      <point x="424" y="457.75"/>
      <point x="468" y="457.75" type="curve" smooth="yes"/>
      <point x="512" y="457.75"/>
      <point x="560" y="488.75"/>
      <point x="560" y="541.75" type="curve" smooth="yes"/>
      <point x="560" y="640.054"/>
      <point x="450" y="670"/>
      <point x="314" y="670" type="curve" smooth="yes"/>
      <point x="213.75" y="670"/>
      <point x="72.75" y="652"/>
    </contour>
    <contour>
      <point x="30" y="230" type="curve" smooth="yes"/>
      <point x="30" y="338"/>
      <point x="74" y="431.5"/>
      <point x="148" y="431.5" type="curve" smooth="yes"/>
      <point x="167.007" y="431.5"/>
      <point x="175" y="428"/>
      <point x="182" y="423" type="curve" smooth="yes"/>
      <point x="192.609" y="415.422"/>
      <point x="200.873" y="401"/>
      <point x="200.873" y="371" type="curve" smooth="yes"/>
      <point x="200.873" y="357"/>
      <point x="201" y="358.015"/>
      <point x="201" y="355" type="curve" smooth="yes"/>
      <point x="201" y="302"/>
      <point x="232" y="267"/>
      <point x="297" y="267" type="curve" smooth="yes"/>
      <point x="350.167" y="267"/>
      <point x="375.25" y="299"/>
      <point x="375.25" y="315" type="curve" smooth="yes"/>
      <point x="375.25" y="316"/>
      <point x="375.25" y="315"/>
      <point x="375.25" y="317" type="curve"/>
      <point x="371.25" y="312"/>
      <point x="358.656" y="289"/>
      <point x="318" y="289" type="curve" smooth="yes"/>
      <point x="271.278" y="289"/>
      <point x="245" y="324.079"/>
      <point x="245" y="360" type="curve" smooth="yes"/>
      <point x="245" y="402"/>
      <point x="277" y="434"/>
      <point x="322" y="434" type="curve" smooth="yes"/>
      <point x="381" y="434"/>
      <point x="408" y="383"/>
      <point x="408" y="337" type="curve" smooth="yes"/>
      <point x="408" y="280"/>
      <point x="363" y="238"/>
      <point x="292" y="238" type="curve" smooth="yes"/>
      <point x="218" y="238"/>
      <point x="170.5" y="282"/>
      <point x="170.5" y="357" type="curve" smooth="yes"/>
      <point x="170.5" y="362.22"/>
      <point x="170.775" y="362.935"/>
      <point x="170.775" y="372" type="curve" smooth="yes"/>
      <point x="170.775" y="392"/>
      <point x="164" y="403.75"/>
      <point x="145" y="403.75" type="curve" smooth="yes"/>
      <point x="98" y="403.75"/>
      <point x="74" y="329"/>
      <point x="74" y="279" type="curve" smooth="yes"/>
      <point x="74" y="198"/>
      <point x="109" y="124.75"/>
      <point x="180.086" y="124.75" type="curve" smooth="yes"/>
      <point x="197" y="124.75"/>
      <point x="211.086" y="128.75"/>
      <point x="219.086" y="135.75" type="curve"/>
      <point x="219.086" y="142.75"/>
      <point x="220.537" y="150.474"/>
      <point x="223.254" y="159.75" type="curve" smooth="yes"/>
      <point x="234.618" y="198.558"/>
      <point x="268.118" y="218.75"/>
      <point x="310.086" y="218.75" type="curve" smooth="yes"/>
      <point x="352.054" y="218.75"/>
      <point x="385.554" y="198.558"/>
      <point x="396.917" y="159.75" type="curve" smooth="yes"/>
      <point x="399.634" y="150.474"/>
      <point x="401.086" y="142.75"/>
      <point x="401.086" y="135.75" type="curve"/>
      <point x="410" y="128.75"/>
      <point x="422" y="124.75"/>
      <point x="440.086" y="124.75" type="curve" smooth="yes"/>
      <point x="497" y="124.75"/>
      <point x="529" y="213.485"/>
      <point x="529" y="296.25" type="curve"/>
      <point x="545.201" y="280.935"/>
      <point x="565.375" y="283.838"/>
      <point x="590" y="262.25" type="curve"/>
      <point x="590" y="126.586"/>
      <point x="523" y="0"/>
      <point x="424.086" y="0" type="curve" smooth="yes"/>
      <point x="400.086" y="0"/>
      <point x="389.753" y="4"/>
      <point x="359.086" y="12" type="curve"/>
      <point x="356.086" y="16"/>
      <point x="355.086" y="40.333"/>
      <point x="355.086" y="47" type="curve" smooth="yes"/>
      <point x="355.086" y="78.675"/>
      <point x="370.086" y="93.0344"/>
      <point x="370.086" y="120.75" type="curve" smooth="yes"/>
      <point x="370.086" y="157.75"/>
      <point x="354.086" y="186.75"/>
      <point x="310.086" y="186.75" type="curve" smooth="yes"/>
      <point x="266.086" y="186.75"/>
      <point x="250.086" y="157.75"/>
      <point x="250.086" y="120.75" type="curve" smooth="yes"/>
      <point x="250.086" y="92.7341"/>
      <point x="265.086" y="78.4224"/>
      <point x="265.086" y="47" type="curve" smooth="yes"/>
      <point x="265.086" y="40.333"/>
      <point x="264.086" y="16"/>
      <point x="261.086" y="12" type="curve"/>
      <point x="230.419" y="4"/>
      <point x="220.086" y="0"/>
      <point x="196.086" y="0" type="curve" smooth="yes"/>
      <point x="86" y="0"/>
      <point x="30" y="119.832"/>
    </contour>
    <contour>
      <point x="274.94" y="363" type="curve" smooth="yes"/>
      <point x="274.94" y="337.52"/>
      <point x="295.52" y="316.94"/>
      <point x="321" y="316.94" type="curve" smooth="yes"/>
      <point x="346.48" y="316.94"/>
      <point x="367.06" y="337.52"/>
      <point x="367.06" y="363" type="curve" smooth="yes"/>
      <point x="367.06" y="388.48"/>
      <point x="346.48" y="409.06"/>
      <point x="321" y="409.06" type="curve" smooth="yes"/>
      <point x="295.52" y="409.06"/>
      <point x="274.94" y="388.48"/>
    </contour>
  </outline>
</glyph>
<glyph name="si_ND.halant" format="1">
  <advance width="894"/>
  <outline>
    <contour>
      <point x="701.5" y="423" type="line"/>
      <point x="730" y="410" type="line"/>
      <point x="730" y="478" type="line"/>
      <point x="745.333" y="471.333"/>
      <point x="760.333" y="468"/>
      <point x="775" y="468" type="curve" smooth="yes"/>
      <point x="818.191" y="468"/>
      <point x="853" y="498"/>
      <point x="853" y="542" type="curve" smooth="yes"/>
      <point x="853" y="634"/>
      <point x="755.5" y="639"/>
      <point x="701.5" y="681" type="curve"/>
    </contour>
    <contour>
      <point x="730.105" y="504.273" type="curve"/>
      <point x="730.105" y="636.587" type="line"/>
      <point x="776.17" y="606.203"/>
      <point x="808" y="586.602"/>
      <point x="808" y="545.438" type="curve" smooth="yes"/>
      <point x="808" y="521.915"/>
      <point x="794.454" y="497.413"/>
      <point x="762.448" y="497.413" type="curve" smooth="yes"/>
      <point x="749.382" y="497.413"/>
      <point x="738.6" y="499.699"/>
    </contour>
    <component base="si_NDa"/>
  </outline>
</glyph>
<glyph name="si_NDI" format="1">
  <advance width="894"/>
  <outline>
    <contour>
      <point x="473.58" y="519.75" type="curve" smooth="yes"/>
      <point x="473.58" y="457.276"/>
      <point x="521.369" y="431.668"/>
      <point x="530" y="431.5" type="curve"/>
      <point x="587" y="436" type="line"/>
      <point x="540.305" y="439.57"/>
      <point x="522" y="467.944"/>
      <point x="522" y="490" type="curve" smooth="yes"/>
      <point x="522" y="535.744"/>
      <point x="592.984" y="552"/>
      <point x="665" y="552" type="curve" smooth="yes"/>
      <point x="737.016" y="552"/>
      <point x="795.5" y="535.901"/>
      <point x="795.5" y="486.25" type="curve" smooth="yes"/>
      <point x="795.5" y="460.608"/>
      <point x="771.926" y="426.755"/>
      <point x="717.84" y="426.75" type="curve"/>
      <point x="733.59" y="405" type="line"/>
      <point x="786.084" y="406.19"/>
      <point x="849.42" y="443.457"/>
      <point x="849.42" y="518" type="curve" smooth="yes"/>
      <point x="849.42" y="617.064"/>
      <point x="758.197" y="671"/>
      <point x="661.5" y="671" type="curve" smooth="yes"/>
      <point x="564.803" y="671"/>
      <point x="473.58" y="620.314"/>
    </contour>
    <component base="si_NDa"/>
  </outline>
</glyph>
<glyph name="si_NDhI" format="1">
  <advance width="1078"/>
  <outline>
    <contour>
      <point x="24" y="176" type="curve"/>
      <point x="32" y="167"/>
      <point x="50" y="160.128"/>
      <point x="67" y="160.128" type="curve" smooth="yes"/>
      <point x="130" y="160.128"/>
      <point x="131" y="206"/>
      <point x="208" y="279" type="curve"/>
      <point x="221" y="292"/>
      <point x="222.818" y="309.123"/>
      <point x="222.818" y="322" type="curve" smooth="yes"/>
      <point x="222.818" y="356"/>
      <point x="204" y="379.552"/>
      <point x="180.462" y="379.552" type="curve" smooth="yes"/>
      <point x="160" y="379.552"/>
      <point x="146" y="370"/>
      <point x="143.747" y="345" type="curve" smooth="yes"/>
      <point x="141.767" y="323.02"/>
      <point x="131" y="294"/>
      <point x="99" y="294" type="curve" smooth="yes"/>
      <point x="82" y="294"/>
      <point x="55.1415" y="304"/>
      <point x="55.1415" y="339" type="curve" smooth="yes"/>
      <point x="55.1415" y="384.003"/>
      <point x="89.0174" y="431"/>
      <point x="154" y="431" type="curve" smooth="yes"/>
      <point x="219.025" y="431"/>
      <point x="253" y="385.86"/>
      <point x="253" y="331" type="curve" smooth="yes"/>
      <point x="253" y="325.206"/>
      <point x="251.926" y="317.792"/>
      <point x="251" y="315" type="curve"/>
      <point x="302" y="375"/>
      <point x="400.636" y="432.778"/>
      <point x="506" y="432.778" type="curve" smooth="yes"/>
      <point x="594.577" y="432.778"/>
      <point x="641.648" y="406.271"/>
      <point x="662.25" y="397.75" type="curve"/>
      <point x="642.92" y="393.832"/>
      <point x="617.772" y="390.28"/>
      <point x="605.5" y="390.25" type="curve"/>
      <point x="588.209" y="396.053"/>
      <point x="558.901" y="405"/>
      <point x="501" y="405" type="curve" smooth="yes"/>
      <point x="400.868" y="405"/>
      <point x="314.729" y="343.107"/>
      <point x="270.75" y="297.75" type="curve"/>
      <point x="296.261" y="306.461"/>
      <point x="317.103" y="308.102"/>
      <point x="345.044" y="308.102" type="curve" smooth="yes"/>
      <point x="428.955" y="308.102"/>
      <point x="498.168" y="248.944"/>
      <point x="498.168" y="168.853" type="curve" smooth="yes"/>
      <point x="498.168" y="52.8253"/>
      <point x="398.035" y="-1.12219"/>
      <point x="276.065" y="-1.12219" type="curve" smooth="yes"/>
      <point x="136" y="-1.12219"/>
      <point x="24" y="65"/>
    </contour>
    <contour>
      <point x="125" y="147" type="curve"/>
      <point x="153.727" y="138.228"/>
      <point x="190.043" y="133"/>
      <point x="248" y="133" type="curve" smooth="yes"/>
      <point x="360" y="133"/>
      <point x="418" y="177"/>
      <point x="418" y="225" type="curve" smooth="yes"/>
      <point x="418" y="259"/>
      <point x="390" y="281"/>
      <point x="334" y="281" type="curve" smooth="yes"/>
      <point x="190" y="281"/>
      <point x="189" y="190"/>
    </contour>
    <component base="si_DhI" xOffset="441"/>
  </outline>
</glyph>
<glyph name="si_NVIi" format="1">
  <advance width="1032"/>
  <outline>
    <contour>
      <point x="803.647" y="538.75" type="curve" smooth="yes"/>
      <point x="803.647" y="509.169"/>
      <point x="830.276" y="485.377"/>
      <point x="862.75" y="485.377" type="curve" smooth="yes"/>
      <point x="895.224" y="485.377"/>
      <point x="921.853" y="509.169"/>
      <point x="921.853" y="538.75" type="curve" smooth="yes"/>
      <point x="921.853" y="568.331"/>
      <point x="895.224" y="592.123"/>
      <point x="862.75" y="592.123" type="curve" smooth="yes"/>
      <point x="830.276" y="592.123"/>
      <point x="803.647" y="568.331"/>
    </contour>
    <contour>
      <point x="484.75" y="562" type="curve" smooth="yes"/>
      <point x="484.75" y="652"/>
      <point x="608.5" y="670"/>
      <point x="708.75" y="670" type="curve" smooth="yes"/>
      <point x="844.75" y="670"/>
      <point x="954.75" y="640.054"/>
      <point x="954.75" y="541.75" type="curve" smooth="yes"/>
      <point x="954.75" y="488.75"/>
      <point x="906.75" y="457.75"/>
      <point x="862.75" y="457.75" type="curve" smooth="yes"/>
      <point x="818.75" y="457.75"/>
      <point x="770.75" y="488.75"/>
      <point x="770.75" y="541.75" type="curve" smooth="yes"/>
      <point x="770.75" y="565.35"/>
      <point x="780.772" y="578.984"/>
      <point x="784.75" y="584" type="curve"/>
      <point x="776.409" y="585.578"/>
      <point x="743.231" y="588.5"/>
      <point x="706.75" y="588.5" type="curve" smooth="yes"/>
      <point x="631.094" y="588.5"/>
      <point x="539.75" y="580.369"/>
      <point x="539.75" y="540" type="curve" smooth="yes"/>
      <point x="539.75" y="510.989"/>
      <point x="584.75" y="508"/>
      <point x="686.75" y="504" type="curve" smooth="yes"/>
      <point x="751.619" y="501.456"/>
      <point x="845.75" y="499"/>
      <point x="900.75" y="459" type="curve" smooth="yes"/>
      <point x="949.896" y="423.257"/>
      <point x="985.75" y="359.205"/>
      <point x="985.75" y="269.25" type="curve"/>
      <point x="921.75" y="322" type="line"/>
      <point x="921.75" y="346.583"/>
      <point x="918.406" y="385.429"/>
      <point x="892.75" y="416" type="curve" smooth="yes"/>
      <point x="848.311" y="468.954"/>
      <point x="788.769" y="470.325"/>
      <point x="687.75" y="476" type="curve" smooth="yes"/>
      <point x="598.75" y="481"/>
      <point x="484.75" y="476"/>
    </contour>
    <contour>
      <point x="470.75" y="165" type="curve" smooth="yes"/>
      <point x="470.75" y="250"/>
      <point x="535.75" y="304"/>
      <point x="636.75" y="304" type="curve" smooth="yes"/>
      <point x="693.75" y="304" type="line"/>
      <point x="693.832" y="306.041"/>
      <point x="693.836" y="306.041"/>
      <point x="693.836" y="308" type="curve" smooth="yes"/>
      <point x="693.836" y="358"/>
      <point x="661.75" y="387"/>
      <point x="628.75" y="387" type="curve" smooth="yes"/>
      <point x="594.75" y="387"/>
      <point x="583.75" y="371"/>
      <point x="578.25" y="355" type="curve" smooth="yes"/>
      <point x="571.701" y="335.948"/>
      <point x="559.75" y="319"/>
      <point x="533.75" y="319" type="curve" smooth="yes"/>
      <point x="510.75" y="319"/>
      <point x="493.75" y="333.368"/>
      <point x="493.75" y="359" type="curve" smooth="yes"/>
      <point x="493.75" y="406"/>
      <point x="543.75" y="431.5"/>
      <point x="598.75" y="431.5" type="curve" smooth="yes"/>
      <point x="686.75" y="431.5"/>
      <point x="729.896" y="376"/>
      <point x="729.896" y="290" type="curve" smooth="yes"/>
      <point x="729.896" y="286.722"/>
      <point x="729.851" y="280.388"/>
      <point x="729.75" y="277" type="curve"/>
      <point x="648.75" y="277" type="line" smooth="yes"/>
      <point x="574.75" y="277"/>
      <point x="538.75" y="250"/>
      <point x="538.75" y="213" type="curve" smooth="yes"/>
      <point x="538.75" y="151"/>
      <point x="633.75" y="140"/>
      <point x="707.75" y="140" type="curve" smooth="yes"/>
      <point x="860.75" y="140"/>
      <point x="921.75" y="213.738"/>
      <point x="921.75" y="325.75" type="curve"/>
      <point x="940.099" y="310.214"/>
      <point x="963.748" y="291.053"/>
      <point x="985.75" y="274" type="curve"/>
      <point x="985.75" y="114"/>
      <point x="887.75" y="0"/>
      <point x="704.75" y="0" type="curve" smooth="yes"/>
      <point x="583.75" y="0"/>
      <point x="470.75" y="46"/>
    </contour>
    <contour>
      <point x="24" y="176" type="curve"/>
      <point x="32" y="167"/>
      <point x="50" y="160.128"/>
      <point x="67" y="160.128" type="curve" smooth="yes"/>
      <point x="130" y="160.128"/>
      <point x="131" y="206"/>
      <point x="208" y="279" type="curve"/>
      <point x="221" y="292"/>
      <point x="222.818" y="309.123"/>
      <point x="222.818" y="322" type="curve" smooth="yes"/>
      <point x="222.818" y="356"/>
      <point x="204" y="379.552"/>
      <point x="180.462" y="379.552" type="curve" smooth="yes"/>
      <point x="160" y="379.552"/>
      <point x="146" y="370"/>
      <point x="143.747" y="345" type="curve" smooth="yes"/>
      <point x="141.767" y="323.02"/>
      <point x="131" y="294"/>
      <point x="99" y="294" type="curve" smooth="yes"/>
      <point x="82" y="294"/>
      <point x="55.1415" y="304"/>
      <point x="55.1415" y="339" type="curve" smooth="yes"/>
      <point x="55.1415" y="384.003"/>
      <point x="89.0174" y="431"/>
      <point x="154" y="431" type="curve" smooth="yes"/>
      <point x="219.025" y="431"/>
      <point x="253.021" y="385.059"/>
      <point x="253.021" y="332" type="curve" smooth="yes"/>
      <point x="253.021" y="325.136"/>
      <point x="251.944" y="318.281"/>
      <point x="251" y="315" type="curve"/>
      <point x="298.744" y="366.901"/>
      <point x="395.663" y="434"/>
      <point x="557.5" y="434" type="curve" smooth="yes"/>
      <point x="568.61" y="434"/>
      <point x="597.348" y="433.23"/>
      <point x="620.5" y="430.25" type="curve"/>
      <point x="605.051" y="423.002"/>
      <point x="539.486" y="409.887"/>
      <point x="527" y="404" type="curve"/>
      <point x="423.204" y="403.994"/>
      <point x="325.01" y="351.049"/>
      <point x="275.75" y="300" type="curve"/>
      <point x="297.347" y="305.924"/>
      <point x="317.103" y="308.102"/>
      <point x="345.044" y="308.102" type="curve" smooth="yes"/>
      <point x="428.955" y="308.102"/>
      <point x="498.168" y="248.944"/>
      <point x="498.168" y="168.853" type="curve" smooth="yes"/>
      <point x="498.168" y="52.8253"/>
      <point x="398.035" y="-1.12219"/>
      <point x="276.065" y="-1.12219" type="curve" smooth="yes"/>
      <point x="136" y="-1.12219"/>
      <point x="24" y="65"/>
    </contour>
    <contour>
      <point x="125" y="147" type="curve"/>
      <point x="153.727" y="138.228"/>
      <point x="190.043" y="133"/>
      <point x="248" y="133" type="curve" smooth="yes"/>
      <point x="360" y="133"/>
      <point x="418" y="177"/>
      <point x="418" y="225" type="curve" smooth="yes"/>
      <point x="418" y="259"/>
      <point x="390" y="281"/>
      <point x="334" y="281" type="curve" smooth="yes"/>
      <point x="190" y="281"/>
      <point x="189" y="190"/>
    </contour>
  </outline>
</glyph>
<glyph name="si_NVU" format="1">
  <advance width="1032"/>
  <outline>
    <contour>
      <point x="481.5" y="-142.5" type="curve" smooth="yes"/>
      <point x="481.5" y="-90.4912"/>
      <point x="527.793" y="-50.5"/>
      <point x="583" y="-50.5" type="curve" smooth="yes"/>
      <point x="624.906" y="-50.5"/>
      <point x="662.25" y="-74.1416"/>
      <point x="677" y="-110" type="curve"/>
      <point x="644.25" y="-121.5" type="line"/>
      <point x="637.426" y="-104.358"/>
      <point x="616" y="-81.75"/>
      <point x="583" y="-81.75" type="curve" smooth="yes"/>
      <point x="546.296" y="-81.75"/>
      <point x="517" y="-109.716"/>
      <point x="517" y="-142.5" type="curve" smooth="yes"/>
      <point x="517" y="-171.663"/>
      <point x="538.748" y="-192.5"/>
      <point x="608.5" y="-192.5" type="curve" smooth="yes"/>
      <point x="940.25" y="-192.5" type="line"/>
      <point x="940.25" y="128" type="line"/>
      <point x="975.5" y="219" type="line"/>
      <point x="975.5" y="-235" type="line"/>
      <point x="587" y="-235" type="line" smooth="yes"/>
      <point x="507.457" y="-235"/>
      <point x="481.5" y="-186.092"/>
    </contour>
    <component base="si_NVa"/>
  </outline>
</glyph>
<glyph name="si_Na.touch" format="1">
  <advance width="806"/>
  <outline>
    <contour>
      <point x="24" y="176" type="curve"/>
      <point x="32" y="167"/>
      <point x="50" y="160.128"/>
      <point x="67" y="160.128" type="curve" smooth="yes"/>
      <point x="130" y="160.128"/>
      <point x="131" y="206"/>
      <point x="208" y="279" type="curve"/>
      <point x="221" y="292"/>
      <point x="222.818" y="309.123"/>
      <point x="222.818" y="322" type="curve" smooth="yes"/>
      <point x="222.818" y="356"/>
      <point x="204" y="379.552"/>
      <point x="180.462" y="379.552" type="curve" smooth="yes"/>
      <point x="160" y="379.552"/>
      <point x="146" y="370"/>
      <point x="143.747" y="345" type="curve" smooth="yes"/>
      <point x="141.767" y="323.02"/>
      <point x="131" y="294"/>
      <point x="99" y="294" type="curve" smooth="yes"/>
      <point x="82" y="294"/>
      <point x="55.1415" y="304"/>
      <point x="55.1415" y="339" type="curve" smooth="yes"/>
      <point x="55.1415" y="384.003"/>
      <point x="89.0174" y="431"/>
      <point x="154" y="431" type="curve" smooth="yes"/>
      <point x="219.025" y="431"/>
      <point x="253.021" y="387"/>
      <point x="253.021" y="320" type="curve" smooth="yes"/>
      <point x="253.021" y="319.005"/>
      <point x="253.015" y="318.005"/>
      <point x="253" y="317" type="curve"/>
      <point x="303.121" y="374.781"/>
      <point x="400.636" y="432.778"/>
      <point x="506" y="432.778" type="curve" smooth="yes"/>
      <point x="646" y="432.778"/>
      <point x="760" y="335.013"/>
      <point x="760" y="183" type="curve" smooth="yes"/>
      <point x="760" y="62.6098"/>
      <point x="677" y="-1.22168"/>
      <point x="593" y="-1.22168" type="curve" smooth="yes"/>
      <point x="562" y="-1.22168"/>
      <point x="540" y="4"/>
      <point x="528" y="9" type="curve"/>
      <point x="528" y="38" type="line"/>
      <point x="538" y="34"/>
      <point x="551" y="31.3467"/>
      <point x="566" y="31.3467" type="curve" smooth="yes"/>
      <point x="606" y="31.3467"/>
      <point x="635" y="78"/>
      <point x="635" y="137" type="curve" smooth="yes"/>
      <point x="635" y="274"/>
      <point x="532" y="347"/>
      <point x="418" y="347" type="curve" smooth="yes"/>
      <point x="365" y="347"/>
      <point x="304" y="329"/>
      <point x="269" y="297" type="curve"/>
      <point x="294.869" y="306.342"/>
      <point x="317.103" y="308.102"/>
      <point x="345.044" y="308.102" type="curve" smooth="yes"/>
      <point x="428.955" y="308.102"/>
      <point x="498.168" y="248.944"/>
      <point x="498.168" y="168.853" type="curve" smooth="yes"/>
      <point x="498.168" y="52.8253"/>
      <point x="398.035" y="-1.12219"/>
      <point x="276.065" y="-1.12219" type="curve" smooth="yes"/>
      <point x="136" y="-1.12219"/>
      <point x="24" y="65"/>
    </contour>
    <contour>
      <point x="125" y="147" type="curve"/>
      <point x="153.727" y="138.228"/>
      <point x="190.043" y="133"/>
      <point x="248" y="133" type="curve" smooth="yes"/>
      <point x="360" y="133"/>
      <point x="418" y="177"/>
      <point x="418" y="225" type="curve" smooth="yes"/>
      <point x="418" y="259"/>
      <point x="390" y="281"/>
      <point x="334" y="281" type="curve" smooth="yes"/>
      <point x="190" y="281"/>
      <point x="189" y="190"/>
    </contour>
  </outline>
</glyph>
<glyph name="si_NdU" format="1">
  <advance width="538"/>
  <outline>
    <contour>
      <point x="116.75" y="-142.5" type="curve" smooth="yes"/>
      <point x="116.75" y="-90.4912"/>
      <point x="163.043" y="-50.5"/>
      <point x="218.25" y="-50.5" type="curve" smooth="yes"/>
      <point x="260.156" y="-50.5"/>
      <point x="297.5" y="-74.1416"/>
      <point x="312.25" y="-110" type="curve"/>
      <point x="279.5" y="-121.5" type="line"/>
      <point x="272.676" y="-104.358"/>
      <point x="251.25" y="-81.75"/>
      <point x="218.25" y="-81.75" type="curve" smooth="yes"/>
      <point x="181.546" y="-81.75"/>
      <point x="152.25" y="-109.716"/>
      <point x="152.25" y="-142.5" type="curve" smooth="yes"/>
      <point x="152.25" y="-171.663"/>
      <point x="173.998" y="-192.5"/>
      <point x="243.75" y="-192.5" type="curve" smooth="yes"/>
      <point x="455.5" y="-192.5" type="line"/>
      <point x="455.5" y="71" type="line"/>
      <point x="490.75" y="79" type="line"/>
      <point x="490.75" y="-235" type="line"/>
      <point x="222.25" y="-235" type="line" smooth="yes"/>
      <point x="142.707" y="-235"/>
      <point x="116.75" y="-186.092"/>
    </contour>
    <contour>
      <point x="115" y="169" type="curve" smooth="yes"/>
      <point x="115" y="274"/>
      <point x="188" y="317"/>
      <point x="307" y="317" type="curve" smooth="yes"/>
      <point x="424.25" y="317" type="line"/>
      <point x="414.526" y="363.186"/>
      <point x="384.514" y="390"/>
      <point x="352" y="390" type="curve" smooth="yes"/>
      <point x="333" y="390"/>
      <point x="318.549" y="378.911"/>
      <point x="310" y="361" type="curve" smooth="yes"/>
      <point x="299.5" y="339"/>
      <point x="282.579" y="333"/>
      <point x="262.75" y="333" type="curve" smooth="yes"/>
      <point x="237.75" y="333"/>
      <point x="220" y="349.75"/>
      <point x="220" y="370.75" type="curve" smooth="yes"/>
      <point x="220" y="407.033"/>
      <point x="261" y="433"/>
      <point x="316" y="433" type="curve" smooth="yes"/>
      <point x="401.739" y="433"/>
      <point x="445.74" y="388.542"/>
      <point x="463" y="291" type="curve"/>
      <point x="401.25" y="291" type="line" smooth="yes"/>
      <point x="313.25" y="291"/>
      <point x="268.25" y="257"/>
      <point x="268.25" y="173" type="curve" smooth="yes"/>
      <point x="268.25" y="89"/>
      <point x="319.989" y="44"/>
      <point x="369.5" y="44" type="curve" smooth="yes"/>
      <point x="399.849" y="44"/>
      <point x="424.75" y="48.25"/>
      <point x="464.75" y="94.25" type="curve"/>
      <point x="490.5" y="79" type="line"/>
      <point x="453.867" y="31.4547"/>
      <point x="406.708" y="-1"/>
      <point x="318" y="-1" type="curve" smooth="yes"/>
      <point x="187" y="-1"/>
      <point x="115" y="69"/>
    </contour>
    <contour>
      <point x="27" y="221" type="curve" smooth="yes"/>
      <point x="27" y="337.213"/>
      <point x="97.5107" y="436.25"/>
      <point x="265.5" y="436.25" type="curve" smooth="yes"/>
      <point x="291.563" y="436.25"/>
      <point x="320.717" y="435.999"/>
      <point x="354" y="429.5" type="curve"/>
      <point x="333" y="418.5"/>
      <point x="265.037" y="411.052"/>
      <point x="256" y="405.75" type="curve"/>
      <point x="177.193" y="405.75"/>
      <point x="59" y="370.057"/>
      <point x="59" y="218" type="curve" smooth="yes"/>
      <point x="59" y="137.333"/>
      <point x="86" y="78"/>
      <point x="135" y="34" type="curve"/>
      <point x="135" y="0" type="line"/>
      <point x="68.5828" y="33.2086"/>
      <point x="27" y="120.07"/>
    </contour>
  </outline>
</glyph>
<glyph name="si_Nga.touch" format="1">
  <advance width="617"/>
  <outline>
    <contour>
      <point x="89.0605" y="346.603" type="curve" smooth="yes"/>
      <point x="89.0605" y="320.074"/>
      <point x="112.504" y="298.482"/>
      <point x="141.5" y="298.482" type="curve" smooth="yes"/>
      <point x="170.496" y="298.482"/>
      <point x="193.939" y="320.074"/>
      <point x="193.939" y="346.603" type="curve" smooth="yes"/>
      <point x="193.939" y="373.131"/>
      <point x="170.496" y="394.723"/>
      <point x="141.5" y="394.723" type="curve" smooth="yes"/>
      <point x="112.504" y="394.723"/>
      <point x="89.0605" y="373.131"/>
    </contour>
    <contour>
      <point x="46" y="468" type="line"/>
      <point x="105.333" y="544"/>
      <point x="183.667" y="582"/>
      <point x="281" y="582" type="curve" smooth="yes"/>
      <point x="440.949" y="582"/>
      <point x="570" y="445"/>
      <point x="570" y="260" type="curve" smooth="yes"/>
      <point x="570" y="114"/>
      <point x="516" y="0"/>
      <point x="416" y="0" type="curve" smooth="yes"/>
      <point x="354.286" y="0"/>
      <point x="329.343" y="21.3887"/>
      <point x="298" y="59" type="curve"/>
      <point x="267.333" y="20.333"/>
      <point x="233" y="0"/>
      <point x="188" y="0" type="curve" smooth="yes"/>
      <point x="106.568" y="0"/>
      <point x="51" y="60.3535"/>
      <point x="51" y="140.25" type="curve" smooth="yes"/>
      <point x="51" y="212.25"/>
      <point x="108.784" y="259.5"/>
      <point x="179" y="259.5" type="curve" smooth="yes"/>
      <point x="215" y="259.5"/>
      <point x="244.5" y="252.75"/>
      <point x="279.5" y="252.75" type="curve" smooth="yes"/>
      <point x="325.5" y="252.75"/>
      <point x="341.25" y="277.272"/>
      <point x="341.25" y="309.75" type="curve" smooth="yes"/>
      <point x="341.25" y="381.358"/>
      <point x="263.404" y="409.462"/>
      <point x="213.75" y="409.462" type="curve" smooth="yes"/>
      <point x="199.419" y="409.462"/>
      <point x="192.041" y="408.422"/>
      <point x="184" y="407.25" type="curve"/>
      <point x="203" y="397.25"/>
      <point x="222.5" y="379.755"/>
      <point x="222.5" y="345.25" type="curve" smooth="yes"/>
      <point x="222.5" y="309.181"/>
      <point x="189.25" y="271.75"/>
      <point x="141.25" y="271.75" type="curve" smooth="yes"/>
      <point x="100.253" y="271.75"/>
      <point x="60.5" y="302.727"/>
      <point x="60.5" y="345.75" type="curve" smooth="yes"/>
      <point x="60.5" y="401.989"/>
      <point x="119.235" y="434"/>
      <point x="207.5" y="434" type="curve" smooth="yes"/>
      <point x="310.5" y="434"/>
      <point x="372" y="378.706"/>
      <point x="372" y="306.25" type="curve" smooth="yes"/>
      <point x="372" y="265.25"/>
      <point x="347.614" y="223.5"/>
      <point x="280.25" y="223.5" type="curve" smooth="yes"/>
      <point x="238.934" y="223.5"/>
      <point x="224" y="230.5"/>
      <point x="181" y="230.5" type="curve" smooth="yes"/>
      <point x="131.792" y="230.5"/>
      <point x="118" y="204.836"/>
      <point x="118" y="188.75" type="curve" smooth="yes"/>
      <point x="118" y="162.739"/>
      <point x="142.361" y="140"/>
      <point x="201" y="140" type="curve" smooth="yes"/>
      <point x="228.915" y="140"/>
      <point x="284" y="142.412"/>
      <point x="284" y="190.25" type="curve" smooth="yes"/>
      <point x="284" y="196" type="line"/>
      <point x="311" y="196" type="line"/>
      <point x="311" y="190.25" type="line" smooth="yes"/>
      <point x="311" y="144.034"/>
      <point x="353.991" y="140"/>
      <point x="386.25" y="140" type="curve" smooth="yes"/>
      <point x="459.726" y="140"/>
      <point x="497" y="208.701"/>
      <point x="497" y="315" type="curve" smooth="yes"/>
      <point x="497" y="425.767"/>
      <point x="424.647" y="555.5"/>
      <point x="278" y="555.5" type="curve" smooth="yes"/>
      <point x="198.667" y="555.5"/>
      <point x="133.379" y="526.16"/>
      <point x="80.25" y="468" type="curve"/>
    </contour>
  </outline>
</glyph>
<glyph name="si_NnddI" format="1">
  <advance width="731"/>
  <outline>
    <contour>
      <point x="166.358" y="562" type="curve" smooth="yes"/>
      <point x="166.358" y="652"/>
      <point x="302.358" y="670"/>
      <point x="402.358" y="670" type="curve" smooth="yes"/>
      <point x="538.358" y="670"/>
      <point x="652.858" y="639"/>
      <point x="652.858" y="554" type="curve" smooth="yes"/>
      <point x="652.858" y="502"/>
      <point x="598.858" y="480"/>
      <point x="564.858" y="474" type="curve"/>
      <point x="514.858" y="490" type="line"/>
      <point x="550.858" y="491"/>
      <point x="577.858" y="504.566"/>
      <point x="577.858" y="527" type="curve" smooth="yes"/>
      <point x="577.858" y="564.309"/>
      <point x="510.358" y="581"/>
      <point x="402.358" y="581" type="curve" smooth="yes"/>
      <point x="326.702" y="581"/>
      <point x="225.358" y="573.211"/>
      <point x="225.358" y="538" type="curve" smooth="yes"/>
      <point x="225.358" y="511.059"/>
      <point x="278.358" y="508"/>
      <point x="380.358" y="504" type="curve" smooth="yes"/>
      <point x="445.228" y="501.456"/>
      <point x="543.858" y="499"/>
      <point x="598.858" y="459" type="curve" smooth="yes"/>
      <point x="648.005" y="423.257"/>
      <point x="685.108" y="344.262"/>
      <point x="685.108" y="255.75" type="curve"/>
      <point x="627.608" y="293.75" type="line"/>
      <point x="627.608" y="335.469"/>
      <point x="621.475" y="377.839"/>
      <point x="594.608" y="413.25" type="curve" smooth="yes"/>
      <point x="552.825" y="468.323"/>
      <point x="482.377" y="470.325"/>
      <point x="381.358" y="476" type="curve" smooth="yes"/>
      <point x="292.358" y="481"/>
      <point x="166.358" y="476"/>
    </contour>
    <contour>
      <point x="102.108" y="285" type="line"/>
      <point x="102.108" y="315" type="line"/>
      <point x="345.108" y="315" type="line"/>
      <point x="343.108" y="350"/>
      <point x="318.108" y="388.268"/>
      <point x="284.108" y="388.268" type="curve" smooth="yes"/>
      <point x="275.108" y="388.268"/>
      <point x="256.312" y="387.365"/>
      <point x="241.108" y="360" type="curve" smooth="yes"/>
      <point x="231.108" y="342"/>
      <point x="216.108" y="335.264"/>
      <point x="200.108" y="335.264" type="curve" smooth="yes"/>
      <point x="176.108" y="335.264"/>
      <point x="160.319" y="351"/>
      <point x="160.319" y="373.122" type="curve" smooth="yes"/>
      <point x="160.319" y="413"/>
      <point x="208.209" y="432.167"/>
      <point x="250.388" y="432.167" type="curve" smooth="yes"/>
      <point x="329.108" y="432.167"/>
      <point x="382.108" y="384"/>
      <point x="382.108" y="285" type="curve"/>
      <point x="311.108" y="285" type="line" smooth="yes"/>
      <point x="218.065" y="285"/>
      <point x="196.5" y="234"/>
      <point x="196.5" y="210" type="curve" smooth="yes"/>
      <point x="196.5" y="164"/>
      <point x="237.099" y="140"/>
      <point x="290.108" y="140" type="curve" smooth="yes"/>
      <point x="354.108" y="140"/>
      <point x="384.108" y="161"/>
      <point x="384.108" y="200" type="curve" smooth="yes"/>
      <point x="384.108" y="221" type="line"/>
      <point x="415.108" y="221" type="line"/>
      <point x="415.108" y="200" type="line" smooth="yes"/>
      <point x="415.108" y="164"/>
      <point x="440.108" y="140"/>
      <point x="501.108" y="140" type="curve" smooth="yes"/>
      <point x="576.108" y="140"/>
      <point x="627.752" y="198.166"/>
      <point x="627.752" y="298.468" type="curve"/>
      <point x="646.461" y="289.568"/>
      <point x="662.912" y="266.904"/>
      <point x="685.096" y="258.222" type="curve"/>
      <point x="685.096" y="110"/>
      <point x="634.116" y="-0.0253906"/>
      <point x="514.764" y="-0.0253906" type="curve" smooth="yes"/>
      <point x="450.136" y="-0.0253906"/>
      <point x="421.739" y="28.5205"/>
      <point x="400.108" y="59" type="curve"/>
      <point x="370.515" y="21.6865"/>
      <point x="337.108" y="0"/>
      <point x="286.108" y="0" type="curve" smooth="yes"/>
      <point x="185.092" y="0"/>
      <point x="132.989" y="81.1904"/>
      <point x="132.989" y="162" type="curve" smooth="yes"/>
      <point x="132.989" y="212"/>
      <point x="158.157" y="261.198"/>
      <point x="212.108" y="285" type="curve"/>
    </contour>
    <contour>
      <point x="27" y="221" type="curve" smooth="yes"/>
      <point x="27" y="352.7"/>
      <point x="99.7562" y="433"/>
      <point x="239" y="433" type="curve" smooth="yes"/>
      <point x="248" y="433"/>
      <point x="271" y="433"/>
      <point x="293" y="427" type="curve"/>
      <point x="272" y="416"/>
      <point x="195" y="404"/>
      <point x="178" y="398" type="curve"/>
      <point x="106" y="381"/>
      <point x="59" y="319.268"/>
      <point x="59" y="218" type="curve" smooth="yes"/>
      <point x="59" y="137.333"/>
      <point x="86" y="78"/>
      <point x="135" y="34" type="curve"/>
      <point x="135" y="0" type="line"/>
      <point x="68.5828" y="33.2086"/>
      <point x="27" y="120.07"/>
    </contour>
  </outline>
</glyph>
<glyph name="si_NngIi" format="1">
  <advance width="749"/>
  <outline>
    <contour>
      <point x="509.796" y="520" type="curve" smooth="yes"/>
      <point x="509.796" y="487.107"/>
      <point x="539.332" y="460.258"/>
      <point x="576.25" y="460.258" type="curve" smooth="yes"/>
      <point x="613.168" y="460.258"/>
      <point x="642.704" y="487.107"/>
      <point x="642.704" y="520" type="curve" smooth="yes"/>
      <point x="642.704" y="552.893"/>
      <point x="613.168" y="579.742"/>
      <point x="576.25" y="579.742" type="curve" smooth="yes"/>
      <point x="539.332" y="579.742"/>
      <point x="509.796" y="552.893"/>
    </contour>
    <contour>
      <point x="266.25" y="537" type="curve" smooth="yes"/>
      <point x="266.25" y="628"/>
      <point x="365.234" y="667"/>
      <point x="467.25" y="667" type="curve" smooth="yes"/>
      <point x="572.595" y="667"/>
      <point x="675.25" y="618.415"/>
      <point x="675.25" y="525" type="curve" smooth="yes"/>
      <point x="675.25" y="456.817"/>
      <point x="618.42" y="431"/>
      <point x="576.25" y="431" type="curve" smooth="yes"/>
      <point x="530.606" y="431"/>
      <point x="477.25" y="463.284"/>
      <point x="477.25" y="520" type="curve" smooth="yes"/>
      <point x="477.25" y="538.988"/>
      <point x="483.893" y="554.466"/>
      <point x="491.25" y="565.781" type="curve"/>
      <point x="485.604" y="565.931"/>
      <point x="479.928" y="566"/>
      <point x="474.25" y="566" type="curve" smooth="yes"/>
      <point x="392.777" y="566"/>
      <point x="337.25" y="537.781"/>
      <point x="337.25" y="503" type="curve" smooth="yes"/>
      <point x="337.25" y="453.811"/>
      <point x="441.25" y="431.492"/>
      <point x="527.25" y="431.492" type="curve" smooth="yes"/>
      <point x="528.256" y="431.492"/>
      <point x="528.256" y="431.494"/>
      <point x="529.25" y="431.5" type="curve"/>
      <point x="513.25" y="406.5" type="line"/>
      <point x="353.25" y="409.833"/>
      <point x="266.25" y="462"/>
    </contour>
    <contour>
      <point x="150.75" y="207" type="curve" smooth="yes"/>
      <point x="150.75" y="330"/>
      <point x="229.03" y="431.5"/>
      <point x="319.5" y="431.5" type="curve" smooth="yes"/>
      <point x="323.453" y="431.5"/>
      <point x="324.704" y="431.25"/>
      <point x="328.75" y="431" type="curve"/>
      <point x="328.75" y="405.5" type="line"/>
      <point x="325.395" y="405.784"/>
      <point x="324.811" y="405.95"/>
      <point x="321.5" y="405.95" type="curve" smooth="yes"/>
      <point x="251.996" y="405.95"/>
      <point x="204.75" y="334.841"/>
      <point x="204.75" y="258" type="curve" smooth="yes"/>
      <point x="204.75" y="186"/>
      <point x="258.75" y="140"/>
      <point x="327.75" y="140" type="curve" smooth="yes"/>
      <point x="386.75" y="140"/>
      <point x="410.75" y="164"/>
      <point x="410.75" y="191" type="curve" smooth="yes"/>
      <point x="410.75" y="216"/>
      <point x="392.75" y="220"/>
      <point x="385.75" y="220" type="curve" smooth="yes"/>
      <point x="374.75" y="220"/>
      <point x="367.75" y="217"/>
      <point x="362.75" y="214" type="curve"/>
      <point x="361.75" y="208"/>
      <point x="360.75" y="197.333"/>
      <point x="360.75" y="194" type="curve"/>
      <point x="332.75" y="194" type="line"/>
      <point x="341.75" y="321"/>
      <point x="404.75" y="431.5"/>
      <point x="526.75" y="431.5" type="curve" smooth="yes"/>
      <point x="638.75" y="431.5"/>
      <point x="702.75" y="332"/>
      <point x="702.75" y="217" type="curve" smooth="yes"/>
      <point x="702.75" y="95"/>
      <point x="616.803" y="-1"/>
      <point x="485.75" y="-1" type="curve" smooth="yes"/>
      <point x="475.75" y="-1"/>
      <point x="465.417" y="-0.333008"/>
      <point x="454.75" y="1" type="curve"/>
      <point x="454.75" y="29" type="line"/>
      <point x="462.75" y="28"/>
      <point x="470.75" y="27"/>
      <point x="478.75" y="27" type="curve" smooth="yes"/>
      <point x="582.75" y="27"/>
      <point x="614.75" y="110"/>
      <point x="614.75" y="175" type="curve" smooth="yes"/>
      <point x="614.75" y="255"/>
      <point x="577.75" y="320"/>
      <point x="479.75" y="320" type="curve" smooth="yes"/>
      <point x="408.75" y="320"/>
      <point x="373.75" y="277"/>
      <point x="366.75" y="241" type="curve"/>
      <point x="372.75" y="244"/>
      <point x="380.083" y="246"/>
      <point x="386.75" y="246" type="curve" smooth="yes"/>
      <point x="436.75" y="246"/>
      <point x="468.75" y="202"/>
      <point x="468.75" y="136" type="curve" smooth="yes"/>
      <point x="468.75" y="56"/>
      <point x="411.75" y="-2"/>
      <point x="324.75" y="-2" type="curve" smooth="yes"/>
      <point x="213.75" y="-2"/>
      <point x="150.75" y="96"/>
    </contour>
    <contour>
      <point x="27" y="221" type="curve" smooth="yes"/>
      <point x="27" y="352.7"/>
      <point x="99.7562" y="433"/>
      <point x="239" y="433" type="curve" smooth="yes"/>
      <point x="248" y="433"/>
      <point x="299.539" y="431.849"/>
      <point x="326" y="431.25" type="curve"/>
      <point x="305" y="420.25"/>
      <point x="265.037" y="412.302"/>
      <point x="256" y="407" type="curve"/>
      <point x="171.918" y="407"/>
      <point x="59" y="379.98"/>
      <point x="59" y="218" type="curve" smooth="yes"/>
      <point x="59" y="137.333"/>
      <point x="86" y="78"/>
      <point x="135" y="34" type="curve"/>
      <point x="135" y="0" type="line"/>
      <point x="68.5828" y="33.2086"/>
      <point x="27" y="120.07"/>
    </contour>
  </outline>
</glyph>
<glyph name="si_NyIi" format="1">
  <advance width="1024"/>
  <outline>
    <contour>
      <point x="820.694" y="492.5" type="curve" smooth="yes"/>
      <point x="820.694" y="462.728"/>
      <point x="849.506" y="438.718"/>
      <point x="884.08" y="438.718" type="curve" smooth="yes"/>
      <point x="918.654" y="438.718"/>
      <point x="947.466" y="462.728"/>
      <point x="947.466" y="492.5" type="curve" smooth="yes"/>
      <point x="947.466" y="522.272"/>
      <point x="918.654" y="546.282"/>
      <point x="884.08" y="546.282" type="curve" smooth="yes"/>
      <point x="849.506" y="546.282"/>
      <point x="820.694" y="522.272"/>
    </contour>
    <contour>
      <point x="606.41" y="523.25" type="curve" smooth="yes"/>
      <point x="606.41" y="614.193"/>
      <point x="697.633" y="671"/>
      <point x="794.33" y="671" type="curve" smooth="yes"/>
      <point x="891.027" y="671"/>
      <point x="983.25" y="619.928"/>
      <point x="983.25" y="511.25" type="curve" smooth="yes"/>
      <point x="983.25" y="440.185"/>
      <point x="934.794" y="407.5"/>
      <point x="883.58" y="407.5" type="curve" smooth="yes"/>
      <point x="823.905" y="407.5"/>
      <point x="786.08" y="448.5"/>
      <point x="786.08" y="493.5" type="curve" smooth="yes"/>
      <point x="786.08" y="535.516"/>
      <point x="818.482" y="555.592"/>
      <point x="825.33" y="560" type="curve"/>
      <point x="818.62" y="560.581"/>
      <point x="810.742" y="561.25"/>
      <point x="795.33" y="561.25" type="curve" smooth="yes"/>
      <point x="736.683" y="561.25"/>
      <point x="654.25" y="548.585"/>
      <point x="654.25" y="492.75" type="curve" smooth="yes"/>
      <point x="654.25" y="465.337"/>
      <point x="683.499" y="445.521"/>
      <point x="709" y="441.5" type="curve"/>
      <point x="724" y="416" type="line"/>
      <point x="675.263" y="418.15"/>
      <point x="606.41" y="456.205"/>
    </contour>
    <component base="uni0DA4"/>
  </outline>
</glyph>
<glyph name="si_PhI" format="1">
  <advance width="583"/>
  <outline>
    <contour>
      <point x="76.792" y="576.158" type="curve" smooth="yes"/>
      <point x="76.792" y="666.106"/>
      <point x="186.621" y="699.834"/>
      <point x="290.48" y="699.834" type="curve" smooth="yes"/>
      <point x="388.601" y="699.834"/>
      <point x="503.208" y="664.411"/>
      <point x="503.208" y="575.178" type="curve" smooth="yes"/>
      <point x="503.208" y="529.406"/>
      <point x="467.086" y="501.953"/>
      <point x="414.372" y="501.953" type="curve"/>
      <point x="409.011" y="506.471"/>
      <point x="402.198" y="516.595"/>
      <point x="398.525" y="523.993" type="curve"/>
      <point x="410.59" y="524.542"/>
      <point x="455.188" y="528.739"/>
      <point x="455.188" y="559.505" type="curve" smooth="yes"/>
      <point x="455.188" y="603.613"/>
      <point x="364.405" y="619.75"/>
      <point x="292.882" y="619.75" type="curve" smooth="yes"/>
      <point x="178.913" y="619.75"/>
      <point x="122.891" y="595.002"/>
      <point x="122.891" y="559.26" type="curve" smooth="yes"/>
      <point x="122.891" y="532.006"/>
      <point x="155.679" y="519.34"/>
      <point x="188.197" y="519.34" type="curve" smooth="yes"/>
      <point x="231.72" y="519.34"/>
      <point x="265.263" y="531.692"/>
      <point x="281.646" y="539.667" type="curve"/>
      <point x="280.281" y="533.541"/>
      <point x="280.122" y="522.878"/>
      <point x="276.555" y="507.34" type="curve"/>
      <point x="252.512" y="499.806"/>
      <point x="227.927" y="491.666"/>
      <point x="186.277" y="491.666" type="curve" smooth="yes"/>
      <point x="128.461" y="491.666"/>
      <point x="76.792" y="519.285"/>
    </contour>
    <component base="uni0DB5"/>
  </outline>
</glyph>
<glyph name="si_PhIi" format="1">
  <advance width="583"/>
  <outline>
    <contour>
      <point x="398.516" y="554.75" type="curve" smooth="yes"/>
      <point x="398.516" y="527.317"/>
      <point x="420.067" y="505.766"/>
      <point x="447.5" y="505.766" type="curve" smooth="yes"/>
      <point x="474.933" y="505.766"/>
      <point x="496.484" y="527.317"/>
      <point x="496.484" y="554.75" type="curve" smooth="yes"/>
      <point x="496.484" y="582.183"/>
      <point x="474.933" y="603.734"/>
      <point x="447.5" y="603.734" type="curve" smooth="yes"/>
      <point x="420.067" y="603.734"/>
      <point x="398.516" y="582.183"/>
    </contour>
    <contour>
      <point x="64.75" y="574.75" type="curve" smooth="yes"/>
      <point x="64.75" y="666.57"/>
      <point x="179.108" y="700.5"/>
      <point x="288" y="700.5" type="curve" smooth="yes"/>
      <point x="455.333" y="700.5"/>
      <point x="532" y="647.534"/>
      <point x="532" y="566" type="curve" smooth="yes"/>
      <point x="532" y="513.176"/>
      <point x="497.115" y="474.25"/>
      <point x="447.25" y="474.25" type="curve" smooth="yes"/>
      <point x="399.198" y="474.25"/>
      <point x="367" y="513.607"/>
      <point x="367" y="553.5" type="curve" smooth="yes"/>
      <point x="367" y="567.359"/>
      <point x="370.777" y="595.187"/>
      <point x="393.75" y="611.75" type="curve"/>
      <point x="383.794" y="616.449"/>
      <point x="345.509" y="624.25"/>
      <point x="296.75" y="624.25" type="curve" smooth="yes"/>
      <point x="182.316" y="624.25"/>
      <point x="117.75" y="597.532"/>
      <point x="117.75" y="558.75" type="curve" smooth="yes"/>
      <point x="117.75" y="530.584"/>
      <point x="146.891" y="516.5"/>
      <point x="180.75" y="516.5" type="curve" smooth="yes"/>
      <point x="226.066" y="516.5"/>
      <point x="264.441" y="531.359"/>
      <point x="281.5" y="539.5" type="curve"/>
      <point x="280.079" y="533.245"/>
      <point x="276.465" y="519.611"/>
      <point x="272.75" y="503.75" type="curve"/>
      <point x="247.717" y="496.058"/>
      <point x="222.117" y="487.75"/>
      <point x="178.75" y="487.75" type="curve" smooth="yes"/>
      <point x="118.55" y="487.75"/>
      <point x="64.75" y="516.692"/>
    </contour>
    <component base="uni0DB5"/>
  </outline>
</glyph>
<glyph name="si_PhU" format="1">
  <advance width="583"/>
  <outline>
    <contour>
      <point x="44.5" y="-142.5" type="curve" smooth="yes"/>
      <point x="44.5" y="-90.4912"/>
      <point x="90.793" y="-50.5"/>
      <point x="146" y="-50.5" type="curve" smooth="yes"/>
      <point x="187.906" y="-50.5"/>
      <point x="225.25" y="-74.1416"/>
      <point x="240" y="-110" type="curve"/>
      <point x="207.25" y="-121.5" type="line"/>
      <point x="200.426" y="-104.358"/>
      <point x="179" y="-81.75"/>
      <point x="146" y="-81.75" type="curve" smooth="yes"/>
      <point x="109.296" y="-81.75"/>
      <point x="80" y="-109.716"/>
      <point x="80" y="-142.5" type="curve" smooth="yes"/>
      <point x="80" y="-171.663"/>
      <point x="101.748" y="-192.5"/>
      <point x="171.5" y="-192.5" type="curve" smooth="yes"/>
      <point x="489.75" y="-192.5" type="line"/>
      <point x="489.75" y="128" type="line"/>
      <point x="525" y="219" type="line"/>
      <point x="525" y="-235" type="line"/>
      <point x="150" y="-235" type="line" smooth="yes"/>
      <point x="70.457" y="-235"/>
      <point x="44.5" y="-186.092"/>
    </contour>
    <component base="uni0DB5"/>
  </outline>
</glyph>
<glyph name="si_RAae" format="1">
  <advance width="681"/>
  <outline>
    <contour>
      <point x="437.75" y="420.75" type="line"/>
      <point x="437.75" y="446.25" type="line"/>
      <point x="546.5" y="505.5" type="line"/>
      <point x="531.167" y="511.5"/>
      <point x="515.782" y="530.253"/>
      <point x="507" y="550" type="curve"/>
      <point x="502.333" y="540.667"/>
      <point x="487.417" y="527"/>
      <point x="456.75" y="509" type="curve"/>
      <point x="464.441" y="525.175"/>
      <point x="496.769" y="599.311"/>
      <point x="503" y="610" type="curve"/>
      <point x="514.116" y="608.738"/>
      <point x="526.281" y="594.399"/>
      <point x="527.75" y="583.75" type="curve" smooth="yes"/>
      <point x="530.417" y="564.417"/>
      <point x="536.622" y="555.163"/>
      <point x="547.75" y="541" type="curve" smooth="yes"/>
      <point x="555.083" y="531.667"/>
      <point x="567.763" y="522.613"/>
      <point x="582" y="516" type="curve"/>
      <point x="581.75" y="495.25" type="line"/>
      <point x="490" y="445.25" type="line"/>
      <point x="585.75" y="445.25" type="line"/>
      <point x="585.75" y="422.75" type="line"/>
      <point x="562.129" y="397.407"/>
      <point x="503" y="328.813"/>
      <point x="503" y="231" type="curve" smooth="yes"/>
      <point x="503" y="177.005"/>
      <point x="530.064" y="128"/>
      <point x="575.75" y="128" type="curve" smooth="yes"/>
      <point x="600.623" y="128"/>
      <point x="617" y="141.265"/>
      <point x="617" y="157.5" type="curve"/>
      <point x="637" y="157.5" type="line"/>
      <point x="640.042" y="150.003"/>
      <point x="642" y="127.417"/>
      <point x="642" y="118.75" type="curve" smooth="yes"/>
      <point x="642" y="36.6104"/>
      <point x="609.461" y="0"/>
      <point x="554" y="0" type="curve" smooth="yes"/>
      <point x="459.926" y="0"/>
      <point x="452.5" y="114.287"/>
      <point x="452.5" y="186" type="curve" smooth="yes"/>
      <point x="452.5" y="313.918"/>
      <point x="521.076" y="387.345"/>
      <point x="550.75" y="420.75" type="curve"/>
    </contour>
    <component base="uni0DBB"/>
  </outline>
</glyph>
<glyph name="si_SIi" format="1">
  <advance width="677"/>
  <outline>
    <contour>
      <point x="420.313" y="514" type="curve" smooth="yes"/>
      <point x="420.313" y="483.616"/>
      <point x="449.717" y="459.114"/>
      <point x="485" y="459.114" type="curve" smooth="yes"/>
      <point x="520.283" y="459.114"/>
      <point x="549.687" y="483.616"/>
      <point x="549.687" y="514" type="curve" smooth="yes"/>
      <point x="549.687" y="544.384"/>
      <point x="520.283" y="568.886"/>
      <point x="485" y="568.886" type="curve" smooth="yes"/>
      <point x="449.717" y="568.886"/>
      <point x="420.313" y="544.384"/>
    </contour>
    <contour>
      <point x="82" y="517" type="curve" smooth="yes"/>
      <point x="82" y="624.211"/>
      <point x="205.946" y="671"/>
      <point x="333" y="671" type="curve" smooth="yes"/>
      <point x="449.714" y="671"/>
      <point x="586" y="627.399"/>
      <point x="586" y="524" type="curve" smooth="yes"/>
      <point x="586" y="468.769"/>
      <point x="541.277" y="429"/>
      <point x="485" y="429" type="curve" smooth="yes"/>
      <point x="427" y="429"/>
      <point x="387" y="470"/>
      <point x="387" y="515" type="curve" smooth="yes"/>
      <point x="387" y="525.451"/>
      <point x="389.769" y="549.089"/>
      <point x="403" y="562" type="curve"/>
      <point x="394.151" y="563.391"/>
      <point x="353.502" y="565"/>
      <point x="321" y="565" type="curve" smooth="yes"/>
      <point x="226.836" y="565"/>
      <point x="128.5" y="542.711"/>
      <point x="128.5" y="482" type="curve" smooth="yes"/>
      <point x="128.5" y="459.935"/>
      <point x="142.611" y="436.422"/>
      <point x="176.5" y="428" type="curve"/>
      <point x="172" y="406" type="line"/>
      <point x="118.755" y="410.733"/>
      <point x="82" y="456"/>
    </contour>
    <component base="uni0DC3"/>
  </outline>
</glyph>
<glyph name="si_SRIi" format="1">
  <advance width="677"/>
  <outline>
    <contour>
      <point x="420.313" y="514" type="curve" smooth="yes"/>
      <point x="420.313" y="483.616"/>
      <point x="449.717" y="459.114"/>
      <point x="485" y="459.114" type="curve" smooth="yes"/>
      <point x="520.283" y="459.114"/>
      <point x="549.687" y="483.616"/>
      <point x="549.687" y="514" type="curve" smooth="yes"/>
      <point x="549.687" y="544.384"/>
      <point x="520.283" y="568.886"/>
      <point x="485" y="568.886" type="curve" smooth="yes"/>
      <point x="449.717" y="568.886"/>
      <point x="420.313" y="544.384"/>
    </contour>
    <contour>
      <point x="82" y="517" type="curve" smooth="yes"/>
      <point x="82" y="624.211"/>
      <point x="205.946" y="671"/>
      <point x="333" y="671" type="curve" smooth="yes"/>
      <point x="449.714" y="671"/>
      <point x="586" y="627.399"/>
      <point x="586" y="524" type="curve" smooth="yes"/>
      <point x="586" y="468.769"/>
      <point x="541.277" y="429"/>
      <point x="485" y="429" type="curve" smooth="yes"/>
      <point x="427" y="429"/>
      <point x="387" y="470"/>
      <point x="387" y="515" type="curve" smooth="yes"/>
      <point x="387" y="525.451"/>
      <point x="389.769" y="549.089"/>
      <point x="403" y="562" type="curve"/>
      <point x="394.151" y="563.391"/>
      <point x="353.502" y="565"/>
      <point x="321" y="565" type="curve" smooth="yes"/>
      <point x="226.836" y="565"/>
      <point x="128.5" y="542.711"/>
      <point x="128.5" y="482" type="curve" smooth="yes"/>
      <point x="128.5" y="459.935"/>
      <point x="142.611" y="436.422"/>
      <point x="176.5" y="428" type="curve"/>
      <point x="172" y="406" type="line"/>
      <point x="118.755" y="410.733"/>
      <point x="82" y="456"/>
    </contour>
    <contour>
      <point x="74.25" y="-44" type="curve"/>
      <point x="103.75" y="-44" type="line"/>
      <point x="141.226" y="-86.958"/>
      <point x="217.417" y="-114.25"/>
      <point x="322.75" y="-114.25" type="curve" smooth="yes"/>
      <point x="465.75" y="-114.25"/>
      <point x="583" y="-31.0107"/>
      <point x="583" y="63.25" type="curve" smooth="yes"/>
      <point x="583" y="78.2842"/>
      <point x="581.438" y="90.4463"/>
      <point x="576" y="102" type="curve"/>
      <point x="589" y="133" type="line"/>
      <point x="607" y="106.333"/>
      <point x="616" y="74.667"/>
      <point x="616" y="38" type="curve" smooth="yes"/>
      <point x="616" y="-123.729"/>
      <point x="481.5" y="-219"/>
      <point x="337.5" y="-219" type="curve" smooth="yes"/>
      <point x="198.368" y="-219"/>
      <point x="111.583" y="-153.333"/>
    </contour>
    <component base="uni0DC3"/>
  </outline>
</glyph>
<glyph name="si_SUu" format="1">
  <advance width="677"/>
  <outline>
    <contour>
      <point x="68.5" y="-138" type="curve" smooth="yes"/>
      <point x="68.5" y="-80"/>
      <point x="117.5" y="-40"/>
      <point x="170.5" y="-40" type="curve" smooth="yes"/>
      <point x="212.5" y="-40"/>
      <point x="244.833" y="-55"/>
      <point x="267.5" y="-91" type="curve"/>
      <point x="234.5" y="-102" type="line"/>
      <point x="223.184" y="-84.6992"/>
      <point x="204.5" y="-70"/>
      <point x="175.5" y="-70" type="curve" smooth="yes"/>
      <point x="136.5" y="-70"/>
      <point x="111.5" y="-95.0762"/>
      <point x="111.5" y="-120" type="curve" smooth="yes"/>
      <point x="111.5" y="-151.995"/>
      <point x="140.315" y="-167"/>
      <point x="174.5" y="-167" type="curve" smooth="yes"/>
      <point x="250.715" y="-167"/>
      <point x="352.327" y="-114.5"/>
      <point x="460" y="-114.5" type="curve" smooth="yes"/>
      <point x="511.082" y="-114.5"/>
      <point x="557" y="-133.75"/>
      <point x="584" y="-165.75" type="curve"/>
      <point x="584" y="152" type="line"/>
      <point x="619" y="212" type="line"/>
      <point x="619" y="-231" type="line"/>
      <point x="593.5" y="-231" type="line"/>
      <point x="578.5" y="-195"/>
      <point x="532.949" y="-146.25"/>
      <point x="470" y="-146.25" type="curve" smooth="yes"/>
      <point x="379" y="-146.25"/>
      <point x="277.5" y="-237"/>
      <point x="179.5" y="-237" type="curve" smooth="yes"/>
      <point x="124.5" y="-237"/>
      <point x="68.5" y="-206"/>
    </contour>
    <component base="uni0DC3"/>
  </outline>
</glyph>
<glyph name="si_TRIi" format="1">
  <advance width="704"/>
  <outline>
    <contour>
      <point x="508.302" y="476" type="curve" smooth="yes"/>
      <point x="508.302" y="444.706"/>
      <point x="535.077" y="418.458"/>
      <point x="567" y="418.458" type="curve" smooth="yes"/>
      <point x="598.923" y="418.458"/>
      <point x="625.698" y="444.706"/>
      <point x="625.698" y="476" type="curve" smooth="yes"/>
      <point x="625.698" y="507.294"/>
      <point x="598.923" y="533.542"/>
      <point x="567" y="533.542" type="curve" smooth="yes"/>
      <point x="535.077" y="533.542"/>
      <point x="508.302" y="507.294"/>
    </contour>
    <contour>
      <point x="211.25" y="421" type="curve" smooth="yes"/>
      <point x="211.25" y="590"/>
      <point x="333.658" y="671"/>
      <point x="449" y="671" type="curve" smooth="yes"/>
      <point x="579" y="671"/>
      <point x="665" y="600"/>
      <point x="665" y="495" type="curve" smooth="yes"/>
      <point x="665" y="444"/>
      <point x="627" y="388"/>
      <point x="569" y="388" type="curve" smooth="yes"/>
      <point x="511" y="388"/>
      <point x="476" y="433"/>
      <point x="476" y="477" type="curve" smooth="yes"/>
      <point x="476" y="509.015"/>
      <point x="490.197" y="528.213"/>
      <point x="507.25" y="543.25" type="curve"/>
      <point x="493.943" y="547.273"/>
      <point x="467.614" y="550"/>
      <point x="450.25" y="550" type="curve" smooth="yes"/>
      <point x="312.69" y="550"/>
      <point x="239.5" y="464.061"/>
      <point x="239.5" y="398" type="curve" smooth="yes"/>
      <point x="239.5" y="383.333"/>
      <point x="241.582" y="376.011"/>
      <point x="243.5" y="365" type="curve"/>
      <point x="218.25" y="343" type="line"/>
      <point x="214.153" y="360.752"/>
      <point x="211.25" y="389.837"/>
    </contour>
    <contour>
      <point x="110.75" y="-44" type="curve"/>
      <point x="140.25" y="-44" type="line"/>
      <point x="173.783" y="-93.29"/>
      <point x="230.552" y="-113.75"/>
      <point x="343.75" y="-113.75" type="curve" smooth="yes"/>
      <point x="495.314" y="-113.75"/>
      <point x="627" y="-31.0107"/>
      <point x="627" y="63.25" type="curve" smooth="yes"/>
      <point x="627" y="78.2842"/>
      <point x="624.25" y="90.793"/>
      <point x="617.25" y="102" type="curve"/>
      <point x="630.25" y="133" type="line"/>
      <point x="648.25" y="106.333"/>
      <point x="657.25" y="74.667"/>
      <point x="657.25" y="38" type="curve" smooth="yes"/>
      <point x="657.25" y="-123.729"/>
      <point x="517.8" y="-219"/>
      <point x="366.25" y="-219" type="curve" smooth="yes"/>
      <point x="235.619" y="-219"/>
      <point x="148.083" y="-153.333"/>
    </contour>
    <component base="uni0DAD"/>
  </outline>
</glyph>
<glyph name="si_TUu" format="1">
  <advance width="704"/>
  <outline>
    <contour>
      <point x="394.946" y="-129" type="curve" smooth="yes"/>
      <point x="394.946" y="-93.3486"/>
      <point x="423.934" y="-72"/>
      <point x="458.946" y="-67" type="curve"/>
      <point x="403.946" y="-39" type="line"/>
      <point x="489.196" y="-14.5" type="line"/>
      <point x="454" y="-1" type="line"/>
      <point x="454" y="21.5" type="line"/>
      <point x="551.196" y="-15" type="line"/>
      <point x="466.696" y="-43.25" type="line"/>
      <point x="526.946" y="-76" type="line"/>
      <point x="498.946" y="-83"/>
      <point x="444.946" y="-83.4658"/>
      <point x="444.946" y="-104.5" type="curve" smooth="yes"/>
      <point x="444.946" y="-120.922"/>
      <point x="476.87" y="-129"/>
      <point x="518.946" y="-129" type="curve" smooth="yes"/>
      <point x="572.946" y="-129"/>
      <point x="617.175" y="-112.984"/>
      <point x="617.175" y="-82" type="curve" smooth="yes"/>
      <point x="617.175" y="-77"/>
      <point x="616.442" y="-66.9287"/>
      <point x="611.196" y="-59" type="curve"/>
      <point x="645.946" y="-59" type="line"/>
      <point x="649.537" y="-71.1182"/>
      <point x="650.25" y="-82.833"/>
      <point x="650.25" y="-94" type="curve" smooth="yes"/>
      <point x="650.25" y="-161"/>
      <point x="598.946" y="-205"/>
      <point x="516.946" y="-205" type="curve" smooth="yes"/>
      <point x="458.946" y="-205"/>
      <point x="394.946" y="-187.466"/>
    </contour>
    <component base="uni0DAD"/>
  </outline>
</glyph>
<glyph name="si_ThI" format="1">
  <advance width="614"/>
  <outline>
    <contour>
      <point x="105.75" y="574" type="curve" smooth="yes"/>
      <point x="105.75" y="665.82"/>
      <point x="220.109" y="700.25"/>
      <point x="328.25" y="700.25" type="curve" smooth="yes"/>
      <point x="430.417" y="700.25"/>
      <point x="549.75" y="664.09"/>
      <point x="549.75" y="573" type="curve" smooth="yes"/>
      <point x="549.75" y="526.275"/>
      <point x="512.138" y="498.25"/>
      <point x="457.25" y="498.25" type="curve"/>
      <point x="451.668" y="502.863"/>
      <point x="444.575" y="513.196"/>
      <point x="440.75" y="520.75" type="curve"/>
      <point x="453.312" y="521.31"/>
      <point x="499.75" y="525.594"/>
      <point x="499.75" y="557" type="curve" smooth="yes"/>
      <point x="499.75" y="602.026"/>
      <point x="405.224" y="618.5"/>
      <point x="330.75" y="618.5" type="curve" smooth="yes"/>
      <point x="212.083" y="618.5"/>
      <point x="153.75" y="593.236"/>
      <point x="153.75" y="556.75" type="curve" smooth="yes"/>
      <point x="153.75" y="528.929"/>
      <point x="187.891" y="516"/>
      <point x="221.75" y="516" type="curve" smooth="yes"/>
      <point x="267.066" y="516"/>
      <point x="300.691" y="528.609"/>
      <point x="317.75" y="536.75" type="curve"/>
      <point x="316.329" y="530.495"/>
      <point x="317.465" y="519.611"/>
      <point x="313.75" y="503.75" type="curve"/>
      <point x="288.717" y="496.058"/>
      <point x="263.117" y="487.75"/>
      <point x="219.75" y="487.75" type="curve" smooth="yes"/>
      <point x="159.55" y="487.75"/>
      <point x="105.75" y="515.942"/>
    </contour>
    <component base="uni0DAE"/>
  </outline>
</glyph>
<glyph name="si_TtTh.halant" format="1">
  <advance width="729"/>
  <outline>
    <contour>
      <point x="561.105" y="517.023" type="curve"/>
      <point x="561.105" y="649.337" type="line"/>
      <point x="607.17" y="618.953"/>
      <point x="639" y="599.352"/>
      <point x="639" y="558.188" type="curve" smooth="yes"/>
      <point x="639" y="534.665"/>
      <point x="625.454" y="510.163"/>
      <point x="593.448" y="510.163" type="curve" smooth="yes"/>
      <point x="580.382" y="510.163"/>
      <point x="569.6" y="512.449"/>
    </contour>
    <contour>
      <point x="532.5" y="474" type="line"/>
      <point x="561" y="435" type="line"/>
      <point x="561" y="490.75" type="line"/>
      <point x="576.333" y="484.083"/>
      <point x="591.333" y="480.75"/>
      <point x="606" y="480.75" type="curve" smooth="yes"/>
      <point x="649.191" y="480.75"/>
      <point x="684" y="510.75"/>
      <point x="684" y="554.75" type="curve" smooth="yes"/>
      <point x="684" y="646.75"/>
      <point x="586.5" y="651.75"/>
      <point x="532.5" y="693.75" type="curve"/>
    </contour>
    <contour>
      <point x="125" y="195" type="curve" smooth="yes"/>
      <point x="125" y="288"/>
      <point x="178.248" y="363.669"/>
      <point x="244" y="387" type="curve" smooth="yes"/>
      <point x="264.667" y="394.333"/>
      <point x="287.667" y="398"/>
      <point x="313" y="398" type="curve"/>
      <point x="313" y="371" type="line"/>
      <point x="309.651" y="371.289"/>
      <point x="306.316" y="371.437"/>
      <point x="303" y="371.437" type="curve" smooth="yes"/>
      <point x="224" y="371.437"/>
      <point x="182" y="304.536"/>
      <point x="182" y="246" type="curve" smooth="yes"/>
      <point x="182" y="193.204"/>
      <point x="205.501" y="140"/>
      <point x="281.5" y="140" type="curve" smooth="yes"/>
      <point x="332.411" y="140"/>
      <point x="380.75" y="161"/>
      <point x="380.75" y="225" type="curve" smooth="yes"/>
      <point x="380.75" y="248" type="line"/>
      <point x="411.25" y="248" type="line"/>
      <point x="411.25" y="225" type="line" smooth="yes"/>
      <point x="411.25" y="161"/>
      <point x="457.33" y="140"/>
      <point x="506.5" y="140" type="curve" smooth="yes"/>
      <point x="602.21" y="140"/>
      <point x="620" y="224"/>
      <point x="620" y="276" type="curve" smooth="yes"/>
      <point x="620" y="327.052"/>
      <point x="597.396" y="378.861"/>
      <point x="575.75" y="407.75" type="curve"/>
      <point x="561.971" y="375.865"/>
      <point x="527.5" y="354.5"/>
      <point x="484.5" y="354.5" type="curve" smooth="yes"/>
      <point x="421.345" y="354.5"/>
      <point x="384.5" y="409.5"/>
      <point x="384.5" y="475.5" type="curve" smooth="yes"/>
      <point x="384.5" y="523.199"/>
      <point x="400.217" y="559.517"/>
      <point x="426.5" y="592.5" type="curve"/>
      <point x="487.5" y="559.5"/>
      <point x="557.699" y="488.863"/>
      <point x="601.5" y="429" type="curve" smooth="yes"/>
      <point x="644.529" y="370.191"/>
      <point x="681" y="290"/>
      <point x="681" y="215" type="curve" smooth="yes"/>
      <point x="681" y="132.354"/>
      <point x="639.876" y="0"/>
      <point x="514" y="0" type="curve" smooth="yes"/>
      <point x="464.667" y="0"/>
      <point x="425" y="19.667"/>
      <point x="395" y="59" type="curve"/>
      <point x="364.333" y="20.333"/>
      <point x="326.672" y="0"/>
      <point x="282" y="0" type="curve" smooth="yes"/>
      <point x="180" y="0"/>
      <point x="125" y="96"/>
    </contour>
    <contour>
      <point x="416.32" y="478.307" type="curve" smooth="yes"/>
      <point x="416.32" y="430.443"/>
      <point x="442.078" y="396.209"/>
      <point x="491.026" y="396.209" type="curve" smooth="yes"/>
      <point x="514.312" y="396.209"/>
      <point x="544.216" y="407.808"/>
      <point x="553.93" y="437.117" type="curve"/>
      <point x="529.288" y="472.971"/>
      <point x="473.562" y="524.876"/>
      <point x="436.695" y="552.041" type="curve"/>
      <point x="425.053" y="534.578"/>
      <point x="416.32" y="511.94"/>
    </contour>
    <contour>
      <point x="27" y="211.5" type="curve" smooth="yes"/>
      <point x="27" y="343.2"/>
      <point x="101.731" y="433"/>
      <point x="220.25" y="433" type="curve" smooth="yes"/>
      <point x="246.319" y="433"/>
      <point x="288.876" y="427.134"/>
      <point x="313.25" y="398" type="curve"/>
      <point x="300.255" y="396.265"/>
      <point x="275.707" y="393.113"/>
      <point x="271.75" y="393" type="curve"/>
      <point x="266.632" y="398.879"/>
      <point x="247.82" y="404.5"/>
      <point x="223.75" y="404.5" type="curve" smooth="yes"/>
      <point x="97.2451" y="404.5"/>
      <point x="58.75" y="297.872"/>
      <point x="58.75" y="208.5" type="curve" smooth="yes"/>
      <point x="58.75" y="131.217"/>
      <point x="85.9997" y="75.2388"/>
      <point x="135" y="33.75" type="curve"/>
      <point x="135" y="0" type="line"/>
      <point x="68.5828" y="33.2086"/>
      <point x="27" y="110.57"/>
    </contour>
  </outline>
</glyph>
<glyph name="si_Tta.reph" format="1">
  <advance width="603"/>
  <outline>
    <contour>
      <point x="253.9" y="622" type="curve" smooth="yes"/>
      <point x="253.9" y="642.146"/>
      <point x="272.128" y="658.453"/>
      <point x="294" y="658.453" type="curve" smooth="yes"/>
      <point x="315.872" y="658.453"/>
      <point x="334.1" y="642.146"/>
      <point x="334.1" y="622" type="curve" smooth="yes"/>
      <point x="334.1" y="601.854"/>
      <point x="315.872" y="585.547"/>
      <point x="294" y="585.547" type="curve" smooth="yes"/>
      <point x="272.128" y="585.547"/>
      <point x="253.9" y="601.854"/>
    </contour>
    <contour>
      <point x="151" y="641" type="curve" smooth="yes"/>
      <point x="151" y="585"/>
      <point x="210" y="556"/>
      <point x="269" y="556" type="curve" smooth="yes"/>
      <point x="327" y="556"/>
      <point x="362" y="582"/>
      <point x="362" y="621" type="curve" smooth="yes"/>
      <point x="362" y="656"/>
      <point x="334" y="683"/>
      <point x="293" y="683" type="curve" smooth="yes"/>
      <point x="257.354" y="683"/>
      <point x="226" y="658"/>
      <point x="226" y="623" type="curve" smooth="yes"/>
      <point x="226" y="602"/>
      <point x="236.5" y="588.25"/>
      <point x="244.5" y="582.25" type="curve"/>
      <point x="226.901" y="584.688"/>
      <point x="183.75" y="601.925"/>
      <point x="183.75" y="641" type="curve" smooth="yes"/>
      <point x="183.75" y="690.99"/>
      <point x="237.222" y="713.5"/>
      <point x="290" y="713.5" type="curve" smooth="yes"/>
      <point x="351" y="713.5"/>
      <point x="400" y="681.521"/>
      <point x="400" y="627" type="curve" smooth="yes"/>
      <point x="400" y="599.734"/>
      <point x="384.42" y="575.387"/>
      <point x="371.25" y="563" type="curve"/>
      <point x="407" y="563" type="line"/>
      <point x="423.667" y="582.333"/>
      <point x="432" y="604"/>
      <point x="432" y="628" type="curve" smooth="yes"/>
      <point x="432" y="699"/>
      <point x="368" y="742"/>
      <point x="291" y="742" type="curve" smooth="yes"/>
      <point x="209.12" y="742"/>
      <point x="151" y="705"/>
    </contour>
    <component base="uni0DA7"/>
  </outline>
</glyph>
